<?xml version="1.0" encoding="utf-8"?>
<!-- Generator: Adobe Illustrator 24.2.0, SVG Export Plug-In . SVG Version: 6.00 Build 0)  -->
<svg version="1.1" id="Layer_1" xmlns="http://www.w3.org/2000/svg" xmlns:xlink="http://www.w3.org/1999/xlink" x="0px" y="0px"
	 viewBox="0 0 3138.6 1400" style="enable-background:new 0 0 3138.6 1400;" xml:space="preserve">
<style type="text/css">
	.st0{fill:#E5E7EB;}
	.st1{opacity:0.3;}
	.st2{clip-path:url(#SVGID_2_);}
	.st3{opacity:0.2;}
	.st4{fill:#FFFFFF;}
	.st5{fill:#A4A4A4;}
	.st6{opacity:0.4;}
	.st7{fill:none;stroke:#A4A4A4;stroke-width:34.7589;stroke-linecap:round;stroke-linejoin:round;stroke-miterlimit:10;}
</style>
<polygon class="st0" points="1.1,282 3139.7,0 3139.7,1204.7 1.1,1400 "/>
<g class="st1">
	<g>
		<defs>
			<polygon id="SVGID_1_" points="1.1,282 3139.7,0 3139.7,1204.7 1.1,1400 			"/>
		</defs>
		<clipPath id="SVGID_2_">
			<use xlink:href="#SVGID_1_"  style="overflow:visible;"/>
		</clipPath>
		<g class="st2">
			<g class="st3">
				<rect x="651" y="356.6" class="st4" width="1087.7" height="1087.7"/>
				<rect x="651" y="356.6" class="st5" width="1087.7" height="228.4"/>
				<g>
					<path class="st5" d="M881.9,1196.5v-36.1l46.1-44.8c111-105.6,161.8-161.8,161.8-227.3c0-44.1-20.7-84.9-85.6-84.9
						c-39.4,0-72.2,20.1-92.3,36.8l-18.7-41.5c29.4-24.7,72.9-44.1,122.4-44.1c93.6,0,133.1,64.2,133.1,126.4
						c0,80.2-58.2,145.1-149.8,233.4l-34.1,32.1v1.3h194.6v48.8H881.9V1196.5z"/>
					<path class="st5" d="M1238.9,1129.7c16.7,10,54.8,26.7,96.3,26.7c74.9,0,99-47.5,98.3-84.2c-0.7-60.8-55.5-86.9-112.3-86.9
						h-32.8v-44.1h32.8c42.8,0,97-22.1,97-73.6c0-34.8-22.1-65.5-76.2-65.5c-34.8,0-68.2,15.4-86.9,28.7l-16-42.8
						c23.4-16.7,67.5-33.4,114.3-33.4c85.6,0,124.4,50.8,124.4,103.6c0,45.5-27.4,83.6-80.2,103v1.3c53.5,10,96.3,50.1,97,111
						c0,69.5-54.8,130.4-158.5,130.4c-48.8,0-91.6-15.4-113-29.4L1238.9,1129.7z"/>
				</g>
			</g>
			<g class="st3">
				<rect x="-171.4" y="155.3" class="st4" width="1082.3" height="1082.3"/>
				<rect x="-171.4" y="155.3" class="st5" width="1082.3" height="227.3"/>
				<g>
					<path class="st5" d="M185.5,613.2h-1.3L109,653.7l-11.3-44.6l94.5-50.6h49.9V991h-56.6V613.2z"/>
					<path class="st5" d="M657.9,607.8h-165L476.3,719c10-1.3,19.3-2,35.3-2c33.9,0,66.5,6.7,93.1,23.3
						c33.9,18.6,61.9,56.6,61.9,110.4c0,84.5-67.2,147.7-161,147.7c-47.2,0-86.5-13.3-107.8-26.6l14.6-44.6c18,10.6,53.2,24,93.1,24
						c54.6,0,102.5-35.9,101.8-93.8c0-55.9-37.9-95.1-123.8-95.1c-25.3,0-44.6,2-60.5,4l28-207.7h206.9V607.8z"/>
				</g>
			</g>
			<g class="st6">
				<g>
					<path class="st4" d="M1583.1,1041.6c-58,0-114.2-11.3-167.1-33.7c-51.1-21.6-97-52.6-136.5-92c-39.4-39.4-70.4-85.4-92-136.5
						c-22.4-52.9-33.7-109.1-33.7-167.1c0-58,11.3-114.2,33.7-167.1c21.6-51.1,52.6-97,92-136.5c39.4-39.4,85.4-70.4,136.5-92
						c52.9-22.4,109.1-33.7,167.1-33.7s114.2,11.3,167.1,33.7c51.1,21.6,97,52.6,136.5,92c39.4,39.4,70.4,85.4,92,136.5
						c22.4,52.9,33.7,109.1,33.7,167.1s-11.3,114.2-33.7,167.1c-21.6,51.1-52.6,97-92,136.5s-85.4,70.4-136.5,92
						C1697.3,1030.2,1641.1,1041.6,1583.1,1041.6z"/>
					<path class="st5" d="M1583.1,211.9c54.1,0,106.5,10.6,155.8,31.4c47.7,20.2,90.5,49,127.3,85.8s65.7,79.6,85.8,127.3
						c20.9,49.3,31.4,101.7,31.4,155.8S1972.9,718.7,1952,768c-20.2,47.7-49,90.5-85.8,127.3s-79.6,65.7-127.3,85.8
						c-49.3,20.9-101.7,31.4-155.8,31.4s-106.5-10.6-155.8-31.4c-47.7-20.2-90.5-49-127.3-85.8s-65.7-79.6-85.8-127.3
						c-20.9-49.3-31.4-101.7-31.4-155.8s10.6-106.5,31.4-155.8c20.2-47.7,49-90.5,85.8-127.3s79.6-65.7,127.3-85.8
						C1476.6,222.4,1529,211.9,1583.1,211.9 M1583.1,153.9c-253.1,0-458.3,205.2-458.3,458.3s205.2,458.3,458.3,458.3
						s458.3-205.2,458.3-458.3S1836.2,153.9,1583.1,153.9L1583.1,153.9z"/>
				</g>
				<line class="st7" x1="1583.1" y1="276.4" x2="1583.1" y2="612.2"/>
				<line class="st7" x1="1813.9" y1="612.2" x2="1583.1" y2="612.2"/>
			</g>
			<g class="st3">
				<rect x="1194.1" y="-224.2" class="st4" width="2215.8" height="2215.8"/>
				<rect x="1194.1" y="-224.2" class="st5" width="2215.8" height="465.3"/>
				<g>
					<path class="st5" d="M1924.7,713.2h-2.7l-154,83.1l-23.2-91.3l193.4-103.5h102.2v885.4h-115.8L1924.7,713.2L1924.7,713.2z"/>
					<path class="st5" d="M2526.7,1021.1c-99.4-46.3-141.7-122.6-141.7-198.9c0-140.3,118.5-235.7,275.2-235.7
						c171.6,0,258.8,106.2,258.8,218c0,74.9-38.1,156.6-147.1,207.1v4.1c110.3,43.6,178.4,122.6,178.4,228.8
						c0,155.3-132.1,257.5-301,257.5c-185.3,0-297-109-297-238.4c0-111.7,66.8-192.1,175.7-238.4L2526.7,1021.1z M2829.2,1256.7
						c0-106.2-74.9-159.4-194.8-193.4c-103.5,30-159.4,99.4-159.4,183.9c-4.1,88.5,64,167.5,177.1,167.5
						C2759.7,1414.8,2829.2,1348,2829.2,1256.7z M2499.5,814c-1.4,88.6,66.8,136.2,168.9,163.5c76.3-25.9,134.8-80.4,134.8-160.7
						c0-70.8-42.2-144.4-149.8-144.4C2554,672.4,2499.5,737.7,2499.5,814z"/>
				</g>
			</g>
		</g>
	</g>
</g>
</svg>
