<?xml version="1.0" encoding="utf-8"?>
<!-- Generator: Adobe Illustrator 24.2.0, SVG Export Plug-In . SVG Version: 6.00 Build 0)  -->
<svg version="1.1" id="Layer_1" xmlns="http://www.w3.org/2000/svg" xmlns:xlink="http://www.w3.org/1999/xlink" x="0px" y="0px"
	 viewBox="0 0 3138.6 1400" style="enable-background:new 0 0 3138.6 1400;" xml:space="preserve">
<style type="text/css">
	.st0{fill:#E5E7EB;}
	.st1{fill:#A4A4A4;}
	.st2{opacity:0.6;}
	.st3{fill:#FFFFFF;}
	.st4{opacity:0.2;}
	.st5{fill:#FFFFFF;stroke:#A4A4A4;stroke-width:3;stroke-linecap:round;stroke-linejoin:round;stroke-miterlimit:10;}
	.st6{fill:#FFFFFF;stroke:#A4A4A4;stroke-width:2;stroke-miterlimit:10;}
	.st7{opacity:0.3;}
	.st8{clip-path:url(#SVGID_2_);}
	.st9{opacity:0.4;}
	.st10{fill:#FFFFFF;stroke:#A4A4A4;stroke-width:34.7589;stroke-linecap:round;stroke-linejoin:round;stroke-miterlimit:10;}
</style>
<polygon class="st0" points="1.1,282 3139.7,0 3139.7,1204.7 1.1,1400 "/>
<text transform="matrix(1 0 0 1 4039.7661 1010.2694)" style="font-family:'Roboto-Thin'; font-size:100.1548px;">18</text>
<g>
	<rect x="3539.3" y="870.8" class="st0" width="169" height="169"/>
	<rect x="3539.3" y="870.8" class="st1" width="169" height="35.5"/>
	
		<text transform="matrix(1 0 0 1 3570.4998 1001.3107)" class="st1" style="font-family:'MyriadPro-Regular'; font-size:103.8664px;">18</text>
</g>
<g class="st2">
	<g>
		<rect x="2261.3" y="1571.6" class="st3" width="119.1" height="119.1"/>
	</g>
	<rect x="2261.3" y="1571.6" class="st1" width="119.1" height="25"/>
	<g>
		<path class="st1" d="M2314.2,1638.5c-5.3-2.5-7.6-6.6-7.6-10.7c0-7.5,6.4-12.7,14.8-12.7c9.2,0,13.9,5.7,13.9,11.7
			c0,4-2.1,8.4-7.9,11.1v0.2c5.9,2.3,9.6,6.6,9.6,12.3c0,8.3-7.1,13.8-16.2,13.8c-10,0-16-5.9-16-12.8c0-6,3.6-10.3,9.4-12.8
			L2314.2,1638.5z M2330.4,1651.2c0-5.7-4-8.6-10.5-10.4c-5.6,1.6-8.6,5.3-8.6,9.9c-0.2,4.8,3.4,9,9.5,9
			C2326.7,1659.7,2330.4,1656.1,2330.4,1651.2z M2312.7,1627.4c-0.1,4.8,3.6,7.3,9.1,8.8c4.1-1.4,7.2-4.3,7.2-8.6
			c0-3.8-2.3-7.8-8.1-7.8C2315.6,1619.8,2312.7,1623.3,2312.7,1627.4z"/>
	</g>
</g>
<g>
	<rect x="3765.3" y="870.8" class="st0" width="169" height="169"/>
	<rect x="3765.3" y="870.8" class="st1" width="169" height="35.5"/>
	
		<text transform="matrix(1 0 0 1 3796.4541 1001.3107)" class="st1" style="font-family:'MyriadPro-Regular'; font-size:103.8664px;">23</text>
</g>
<g>
	<rect x="3680.8" y="649.7" class="st0" width="169" height="169"/>
	<rect x="3680.8" y="649.7" class="st1" width="169" height="35.5"/>
	
		<text transform="matrix(1 0 0 1 3711.9753 780.2228)" class="st1" style="font-family:'MyriadPro-Regular'; font-size:103.8664px;">12</text>
</g>
<g class="st4">
	<rect x="3654.5" y="-209.3" class="st3" width="63.1" height="63.1"/>
	<rect x="3654.5" y="-209.3" class="st1" width="63.1" height="13.3"/>
	<g>
		<path class="st1" d="M3675.3-182.6L3675.3-182.6l-4.5,2.4l-0.7-2.6l5.5-2.9h2.9v25.2h-3.3V-182.6z"/>
		<path class="st1" d="M3687.8-160.6v-2.1l2.7-2.6c6.4-6.1,9.4-9.4,9.4-13.2c0-2.6-1.2-4.9-5-4.9c-2.3,0-4.2,1.2-5.4,2.1l-1.1-2.4
			c1.7-1.4,4.2-2.6,7.1-2.6c5.4,0,7.7,3.7,7.7,7.3c0,4.7-3.4,8.4-8.7,13.5l-2,1.9v0.1h11.3v2.8H3687.8z"/>
	</g>
</g>
<g>
	<rect x="3449.7" y="445.4" class="st0" width="169" height="169"/>
	<rect x="3449.7" y="445.4" class="st1" width="169" height="35.5"/>
	
		<text transform="matrix(1 0 0 1 3480.9302 575.8699)" class="st1" style="font-family:'MyriadPro-Regular'; font-size:103.8664px;">28</text>
</g>
<g class="st4">
	<rect x="3517.5" y="-293.1" class="st3" width="100.6" height="100.6"/>
	<rect x="3517.5" y="-293.1" class="st1" width="100.6" height="21.1"/>
	<g>
		<path class="st1" d="M3538.8-215.4v-3.3l4.3-4.1c10.3-9.8,15-15,15-21c0-4.1-1.9-7.9-7.9-7.9c-3.6,0-6.7,1.9-8.5,3.4l-1.7-3.8
			c2.7-2.3,6.7-4.1,11.3-4.1c8.7,0,12.3,5.9,12.3,11.7c0,7.4-5.4,13.4-13.9,21.6l-3.2,3v0.1h18v4.5H3538.8z"/>
		<path class="st1" d="M3578-236.6c-4.5-2.1-6.4-5.6-6.4-9c0-6.4,5.4-10.7,12.5-10.7c7.8,0,11.7,4.8,11.7,9.9c0,3.4-1.7,7.1-6.7,9.4
			v0.2c5,2,8.1,5.6,8.1,10.4c0,7-6,11.7-13.7,11.7c-8.4,0-13.5-4.9-13.5-10.8c0-5.1,3-8.7,8-10.8L3578-236.6z M3591.7-225.9
			c0-4.8-3.4-7.2-8.8-8.8c-4.7,1.4-7.2,4.5-7.2,8.3c-0.2,4,2.9,7.6,8,7.6C3588.5-218.7,3591.7-221.7,3591.7-225.9z M3576.7-246
			c-0.1,4,3,6.2,7.7,7.4c3.5-1.2,6.1-3.6,6.1-7.3c0-3.2-1.9-6.6-6.8-6.6C3579.2-252.4,3576.7-249.4,3576.7-246z"/>
	</g>
</g>
<text transform="matrix(1 0 0 1 3996.7021 1187.6371)" style="font-family:'MyriadPro-Regular'; font-size:131.1589px;">18</text>
<g class="st4">
	<g>
		<path class="st3" d="M3766.1-283.1c-20.4,0-37.1-16.6-37.1-37.1s16.6-37.1,37.1-37.1c20.4,0,37.1,16.6,37.1,37.1
			S3786.5-283.1,3766.1-283.1z"/>
		<path class="st1" d="M3766.1-354.7c19.1,0,34.6,15.5,34.6,34.6c0,19.1-15.5,34.6-34.6,34.6c-19.1,0-34.6-15.5-34.6-34.6
			C3731.6-339.2,3747.1-354.7,3766.1-354.7 M3766.1-359.7c-21.8,0-39.6,17.7-39.6,39.6c0,21.8,17.7,39.6,39.6,39.6
			c21.8,0,39.6-17.7,39.6-39.6C3805.7-342,3788-359.7,3766.1-359.7L3766.1-359.7z"/>
	</g>
	<line class="st5" x1="3766.1" y1="-349.1" x2="3766.1" y2="-320.1"/>
	<line class="st5" x1="3786" y1="-320.1" x2="3766.1" y2="-320.1"/>
</g>
<g class="st4">
	<g>
		<path class="st3" d="M3420.1,1178.3c-20.4,0-37.1-16.6-37.1-37.1s16.6-37.1,37.1-37.1c20.4,0,37.1,16.6,37.1,37.1
			S3440.6,1178.3,3420.1,1178.3z"/>
		<path class="st1" d="M3420.1,1106.7c19.1,0,34.6,15.5,34.6,34.6c0,19.1-15.5,34.6-34.6,34.6c-19.1,0-34.6-15.5-34.6-34.6
			C3385.6,1122.2,3401.1,1106.7,3420.1,1106.7 M3420.1,1101.7c-21.8,0-39.6,17.7-39.6,39.6c0,21.8,17.7,39.6,39.6,39.6
			s39.6-17.7,39.6-39.6C3459.7,1119.4,3442,1101.7,3420.1,1101.7L3420.1,1101.7z"/>
	</g>
	<line class="st5" x1="3420.1" y1="1112.3" x2="3420.1" y2="1141.3"/>
	<line class="st5" x1="3440.1" y1="1141.3" x2="3420.1" y2="1141.3"/>
</g>
<g>
	<circle class="st6" cx="1085.2" cy="-320" r="78.5"/>
	<line class="st6" x1="1085.2" y1="-377.6" x2="1085.2" y2="-320"/>
	<line class="st6" x1="1124.8" y1="-320" x2="1085.2" y2="-320"/>
</g>
<g class="st7">
	<defs>
		<polygon id="SVGID_1_" class="st7" points="1.1,282 3139.7,0 3139.7,1204.7 1.1,1400 		"/>
	</defs>
	<clipPath id="SVGID_2_">
		<use xlink:href="#SVGID_1_"  style="overflow:visible;"/>
	</clipPath>
	<g class="st8">
		<g class="st4">
			<rect x="651" y="356.6" class="st3" width="1087.7" height="1087.7"/>
			<rect x="651" y="356.6" class="st1" width="1087.7" height="228.4"/>
			<g>
				<path class="st1" d="M881.9,1196.5v-36.1l46.1-44.8c111-105.6,161.8-161.8,161.8-227.3c0-44.1-20.7-84.9-85.6-84.9
					c-39.4,0-72.2,20.1-92.3,36.8l-18.7-41.5c29.4-24.7,72.9-44.1,122.4-44.1c93.6,0,133.1,64.2,133.1,126.4
					c0,80.2-58.2,145.1-149.8,233.4l-34.1,32.1v1.3h194.6v48.8H881.9z"/>
				<path class="st1" d="M1238.9,1129.7c16.7,10,54.8,26.7,96.3,26.7c74.9,0,99-47.5,98.3-84.2c-0.7-60.8-55.5-86.9-112.3-86.9
					h-32.8v-44.1h32.8c42.8,0,97-22.1,97-73.6c0-34.8-22.1-65.5-76.2-65.5c-34.8,0-68.2,15.4-86.9,28.7l-16-42.8
					c23.4-16.7,67.5-33.4,114.3-33.4c85.6,0,124.4,50.8,124.4,103.6c0,45.5-27.4,83.6-80.2,103v1.3c53.5,10,96.3,50.1,97,111
					c0,69.5-54.8,130.4-158.5,130.4c-48.8,0-91.6-15.4-113-29.4L1238.9,1129.7z"/>
			</g>
		</g>
		<g class="st4">
			<rect x="-171.4" y="155.3" class="st3" width="1082.3" height="1082.3"/>
			<rect x="-171.4" y="155.3" class="st1" width="1082.3" height="227.3"/>
			<g>
				<path class="st1" d="M185.5,613.2h-1.3L109,653.7l-11.3-44.6l94.5-50.6h49.9v432.5h-56.6V613.2z"/>
				<path class="st1" d="M657.9,607.8h-165L476.3,719c10-1.3,19.3-2,35.3-2c33.9,0,66.5,6.7,93.1,23.3
					c33.9,18.6,61.9,56.6,61.9,110.4c0,84.5-67.2,147.7-161,147.7c-47.2,0-86.5-13.3-107.8-26.6l14.6-44.6c18,10.6,53.2,24,93.1,24
					c54.6,0,102.5-35.9,101.8-93.8c0-55.9-37.9-95.1-123.8-95.1c-25.3,0-44.6,2-60.5,4L451,558.6h206.9V607.8z"/>
			</g>
		</g>
		<g class="st9">
			<g>
				<path class="st3" d="M1583.1,1041.6c-58,0-114.2-11.3-167.1-33.7c-51.1-21.6-97-52.6-136.5-92c-39.4-39.4-70.4-85.4-92-136.5
					c-22.4-52.9-33.7-109.1-33.7-167.1c0-58,11.3-114.2,33.7-167.1c21.6-51.1,52.6-97,92-136.5c39.4-39.4,85.4-70.4,136.5-92
					c52.9-22.4,109.1-33.7,167.1-33.7c58,0,114.2,11.3,167.1,33.7c51.1,21.6,97,52.6,136.5,92c39.4,39.4,70.4,85.4,92,136.5
					c22.4,52.9,33.7,109.1,33.7,167.1c0,58-11.3,114.2-33.7,167.1c-21.6,51.1-52.6,97-92,136.5s-85.4,70.4-136.5,92
					C1697.3,1030.2,1641.1,1041.6,1583.1,1041.6z"/>
				<path class="st1" d="M1583.1,211.9c54.1,0,106.5,10.6,155.8,31.4c47.7,20.2,90.5,49,127.3,85.8c36.8,36.8,65.7,79.6,85.8,127.3
					c20.9,49.3,31.4,101.7,31.4,155.8S1972.9,718.7,1952,768c-20.2,47.7-49,90.5-85.8,127.3c-36.8,36.8-79.6,65.7-127.3,85.8
					c-49.3,20.9-101.7,31.4-155.8,31.4s-106.5-10.6-155.8-31.4c-47.7-20.2-90.5-49-127.3-85.8c-36.8-36.8-65.7-79.6-85.8-127.3
					c-20.9-49.3-31.4-101.7-31.4-155.8s10.6-106.5,31.4-155.8c20.2-47.7,49-90.5,85.8-127.3c36.8-36.8,79.6-65.7,127.3-85.8
					C1476.6,222.4,1529,211.9,1583.1,211.9 M1583.1,153.9c-253.1,0-458.3,205.2-458.3,458.3s205.2,458.3,458.3,458.3
					s458.3-205.2,458.3-458.3S1836.2,153.9,1583.1,153.9L1583.1,153.9z"/>
			</g>
			<line class="st10" x1="1583.1" y1="276.4" x2="1583.1" y2="612.2"/>
			<line class="st10" x1="1813.9" y1="612.2" x2="1583.1" y2="612.2"/>
		</g>
		<g class="st4">
			<rect x="1194.1" y="-224.2" class="st3" width="2215.8" height="2215.8"/>
			<rect x="1194.1" y="-224.2" class="st1" width="2215.8" height="465.3"/>
			<g>
				<path class="st1" d="M1924.7,713.2h-2.7L1768,796.3l-23.2-91.3l193.4-103.5h102.2v885.4h-115.8V713.2z"/>
				<path class="st1" d="M2526.7,1021.1c-99.4-46.3-141.7-122.6-141.7-198.9c0-140.3,118.5-235.7,275.2-235.7
					c171.6,0,258.8,106.2,258.8,218c0,74.9-38.1,156.6-147.1,207.1v4.1c110.3,43.6,178.4,122.6,178.4,228.8
					c0,155.3-132.1,257.5-301,257.5c-185.3,0-297-109-297-238.4c0-111.7,66.8-192.1,175.7-238.4L2526.7,1021.1z M2829.2,1256.7
					c0-106.2-74.9-159.4-194.8-193.4c-103.5,30-159.4,99.4-159.4,183.9c-4.1,88.5,64,167.5,177.1,167.5
					C2759.7,1414.8,2829.2,1348,2829.2,1256.7z M2499.5,814c-1.4,88.6,66.8,136.2,168.9,163.5c76.3-25.9,134.8-80.4,134.8-160.7
					c0-70.8-42.2-144.4-149.8-144.4C2554,672.4,2499.5,737.7,2499.5,814z"/>
			</g>
		</g>
	</g>
</g>
</svg>
