<?xml version="1.0" encoding="utf-8"?>
<!-- Generator: Adobe Illustrator 24.2.0, SVG Export Plug-In . SVG Version: 6.00 Build 0)  -->
<svg version="1.1" id="Layer_1" xmlns="http://www.w3.org/2000/svg" xmlns:xlink="http://www.w3.org/1999/xlink" x="0px" y="0px"
	 viewBox="0 0 3138.6 1400" style="enable-background:new 0 0 3138.6 1400;" xml:space="preserve">
<style type="text/css">
	.st0{fill:#E5E7EB;}
	.st1{opacity:0.3;}
	.st2{clip-path:url(#SVGID_2_);}
	.st3{opacity:0.4;}
	.st4{fill:#A4A4A4;}
	.st5{enable-background:new    ;}
	.st6{opacity:0.2;}
	.st7{fill:#FFFFFF;}
	.st8{fill:none;stroke:#A4A4A4;stroke-width:34.7589;stroke-linecap:round;stroke-linejoin:round;stroke-miterlimit:10;}
	.st9{fill:none;stroke:#A4A4A4;stroke-width:43.8109;stroke-linecap:round;stroke-linejoin:round;stroke-miterlimit:10;}
</style>
<polygon class="st0" points="1.1,282 3139.7,0 3139.7,1204.7 1.1,1400 "/>
<g class="st1">
	<defs>
		<polygon id="SVGID_1_" class="st1" points="1.1,282 3139.7,0 3139.7,1204.7 1.1,1400 		"/>
	</defs>
	<clipPath id="SVGID_2_">
		<use xlink:href="#SVGID_1_"  style="overflow:visible;"/>
	</clipPath>
	<g class="st2">
		<g class="st3">
			<rect x="2195.6" y="-8.8" class="st0" width="701.9" height="701.9"/>
			<rect x="2195.6" y="-8.8" class="st4" width="701.9" height="147.4"/>
			<g class="st5">
				<path class="st4" d="M2426.9,288.3h-0.9l-48.7,26.3l-7.3-28.9l61.3-32.8h32.4v280.4h-36.7V288.3z"/>
				<path class="st4" d="M2565.8,533.3V510l29.8-28.9c71.6-68.2,104.4-104.4,104.4-146.7c0-28.5-13.4-54.8-55.2-54.8
					c-25.4,0-46.6,12.9-59.5,23.7l-12.1-26.7c19-16,47-28.5,78.9-28.5c60.4,0,85.8,41.4,85.8,81.5c0,51.8-37.5,93.6-96.6,150.5
					l-22,20.7v0.9h125.5v31.5H2565.8z"/>
			</g>
		</g>
		<g class="st3">
			<rect x="16" y="911" class="st0" width="559.8" height="559.8"/>
			<rect x="16" y="911" class="st4" width="559.8" height="117.6"/>
			<g class="st5">
				<path class="st4" d="M134.9,1343.1v-18.6l23.7-23.1c57.1-54.4,83.3-83.3,83.3-117c0-22.7-10.7-43.7-44-43.7
					c-20.3,0-37.2,10.3-47.5,18.9l-9.6-21.3c15.1-12.7,37.5-22.7,63-22.7c48.2,0,68.5,33,68.5,65c0,41.3-29.9,74.7-77.1,120.1
					l-17.5,16.5v0.7h100.1v25.1H134.9z"/>
				<path class="st4" d="M352.7,1225.5c-25.1-11.7-35.8-31-35.8-50.2c0-35.4,29.9-59.5,69.5-59.5c43.3,0,65.4,26.8,65.4,55.1
					c0,18.9-9.6,39.6-37.2,52.3v1c27.9,11,45.1,31,45.1,57.8c0,39.2-33.4,65-76,65c-46.8,0-75-27.5-75-60.2
					c0-28.2,16.9-48.5,44.4-60.2L352.7,1225.5z M429.1,1285c0-26.8-18.9-40.3-49.2-48.9c-26.1,7.6-40.3,25.1-40.3,46.4
					c-1,22.4,16.2,42.3,44.7,42.3C411.5,1324.9,429.1,1308,429.1,1285z M345.8,1173.2c-0.3,22.4,16.9,34.4,42.7,41.3
					c19.3-6.5,34.1-20.3,34.1-40.6c0-17.9-10.7-36.5-37.8-36.5C359.6,1137.4,345.8,1153.9,345.8,1173.2z"/>
			</g>
		</g>
		<g class="st6">
			<rect x="559" y="-2.6" class="st7" width="985.7" height="985.7"/>
			<rect x="559" y="-2.6" class="st4" width="985.7" height="207"/>
			<g>
				<path class="st4" d="M768.2,758.5v-32.7l41.8-40.6c100.6-95.7,146.6-146.6,146.6-206c0-40-18.8-76.9-77.6-76.9
					c-35.7,0-65.4,18.2-83.6,33.4L778.5,398c26.6-22.4,66.1-40,110.9-40c84.8,0,120.6,58.2,120.6,114.6
					c0,72.7-52.7,131.5-135.8,211.5l-30.9,29.1v1.2h176.4v44.2L768.2,758.5L768.2,758.5z"/>
				<path class="st4" d="M1091.8,698c15.1,9.1,49.7,24.2,87.3,24.2c67.9,0,89.7-43,89.1-76.3c-0.6-55.1-50.3-78.8-101.8-78.8h-29.7
					v-40h29.7c38.8,0,87.9-20,87.9-66.7c0-31.5-20-59.4-69.1-59.4c-31.5,0-61.8,14-78.8,26l-14.5-38.8
					c21.2-15.1,61.2-30.3,103.6-30.3c77.6,0,112.7,46,112.7,93.9c0,41.2-24.8,75.8-72.7,93.3v1.2c48.5,9.1,87.3,45.4,87.9,100.6
					c0,63-49.7,118.2-143.6,118.2c-44.2,0-83-14-102.4-26.6L1091.8,698z"/>
			</g>
		</g>
		<g class="st6">
			<rect x="474.7" y="740.3" class="st7" width="871.1" height="871.1"/>
			<rect x="474.7" y="740.3" class="st4" width="871.1" height="183"/>
			<g>
				<path class="st4" d="M761.9,1108.8h-1l-60.5,32.6l-9.1-35.9l76.1-40.7h40.2v348.1h-45.6V1108.8z"/>
				<path class="st4" d="M1142.2,1104.5h-132.8L996,1194c8-1,15.5-1.6,28.4-1.6c27.3,0,53.5,5.4,74.9,18.8
					c27.3,15,49.8,45.6,49.8,88.9c0,68-54.1,118.9-129.6,118.9c-38,0-69.6-10.7-86.8-21.4l11.8-35.9c14.5,8.5,42.8,19.3,74.9,19.3
					c43.9,0,82.5-28.9,81.9-75.5c0-45-30.5-76.5-99.6-76.5c-20.4,0-35.9,1.6-48.7,3.2l22.5-167.2h166.5V1104.5z"/>
			</g>
		</g>
		<g class="st3">
			<g>
				<path class="st7" d="M217.1,973.4c-58,0-114.2-11.3-167.1-33.7c-51.1-21.6-97-52.6-136.5-92c-39.4-39.4-70.4-85.4-92-136.5
					c-22.4-52.9-33.7-109.1-33.7-167.1c0-58,11.3-114.2,33.7-167.1c21.6-51.1,52.6-97,92-136.5c39.4-39.4,85.4-70.4,136.5-92
					c52.9-22.4,109.1-33.7,167.1-33.7s114.2,11.3,167.1,33.7c51.1,21.6,97,52.6,136.5,92c39.4,39.4,70.4,85.4,92,136.5
					c22.4,52.9,33.7,109.1,33.7,167.1s-11.3,114.2-33.7,167.1c-21.6,51.1-52.6,97-92,136.5s-85.4,70.4-136.5,92
					C331.3,962,275.1,973.4,217.1,973.4z"/>
				<path class="st4" d="M217.1,143.7c54.1,0,106.5,10.6,155.8,31.4c47.7,20.2,90.5,49,127.3,85.8s65.7,79.6,85.8,127.3
					c20.9,49.3,31.4,101.7,31.4,155.8S606.9,650.5,586,699.8c-20.2,47.7-49,90.5-85.8,127.3s-79.6,65.7-127.3,85.8
					c-49.3,20.9-101.7,31.4-155.8,31.4s-106.5-10.6-155.8-31.4c-47.7-20.2-90.5-49-127.3-85.8s-65.7-79.6-85.8-127.3
					c-20.9-49.3-31.4-101.7-31.4-155.8s10.6-106.5,31.4-155.8c20.2-47.7,49-90.5,85.8-127.3s79.6-65.7,127.3-85.8
					C110.6,154.2,163,143.7,217.1,143.7 M217.1,85.7C-36,85.7-241.2,290.9-241.2,544s205.2,458.3,458.3,458.3S675.4,797.1,675.4,544
					S470.2,85.7,217.1,85.7L217.1,85.7z"/>
			</g>
			<line class="st8" x1="217.1" y1="208.2" x2="217.1" y2="544"/>
			<line class="st8" x1="447.9" y1="544" x2="217.1" y2="544"/>
		</g>
		<g class="st3">
			<g>
				<path class="st7" d="M2675.1,1658.4c-73.1,0-143.9-14.2-210.6-42.5c-64.4-27.2-122.3-66.3-172-116
					c-49.7-49.7-88.7-107.6-116-172c-28.2-66.7-42.5-137.5-42.5-210.6s14.2-143.9,42.5-210.6c27.2-64.4,66.3-122.3,116-172
					c49.7-49.7,107.6-88.7,172-116c66.7-28.2,137.5-42.5,210.6-42.5c73.1,0,143.9,14.2,210.6,42.5c64.4,27.2,122.3,66.3,172,116
					c49.7,49.7,88.7,107.6,116,172c28.2,66.7,42.5,137.5,42.5,210.6c0,73.1-14.2,143.9-42.5,210.6c-27.2,64.4-66.3,122.3-116,172
					s-107.6,88.7-172,116C2819.1,1644.1,2748.2,1658.4,2675.1,1658.4z"/>
				<path class="st4" d="M2675.1,612.7c68.2,0,134.2,13.4,196.4,39.6c60.1,25.5,114.1,61.8,160.5,108.1
					c46.4,46.4,82.8,100.3,108.1,160.5c26.3,62.1,39.6,128.2,39.6,196.4c0,68.2-13.2,134.2-39.6,196.4
					c-25.5,60.1-61.8,114.1-108.1,160.5s-100.3,82.8-160.5,108.1c-62.1,26.3-128.2,39.6-196.4,39.6s-134.2-13.4-196.4-39.6
					c-60.1-25.5-114.1-61.8-160.5-108.1s-82.8-100.3-108.1-160.5c-26.3-62.1-39.6-128.2-39.6-196.4c0-68.2,13.4-134.2,39.6-196.4
					c25.5-60.1,61.8-114.1,108.1-160.5c46.4-46.4,100.3-82.8,160.5-108.1C2540.9,625.9,2606.9,612.7,2675.1,612.7 M2675.1,539.6
					c-319,0-577.7,258.6-577.7,577.7s258.6,577.7,577.7,577.7s577.7-258.6,577.7-577.7S2994.1,539.6,2675.1,539.6L2675.1,539.6z"/>
			</g>
			<line class="st9" x1="2675.1" y1="694" x2="2675.1" y2="1117.2"/>
			<line class="st9" x1="2966" y1="1117.2" x2="2675.1" y2="1117.2"/>
		</g>
		<g class="st6">
			<rect x="857.7" y="176.6" class="st7" width="1656.6" height="1656.6"/>
			<rect x="857.7" y="176.6" class="st4" width="1656.6" height="347.9"/>
			<g>
				<path class="st4" d="M1403.9,877.4h-2l-115.1,62.1l-17.3-68.3l144.6-77.4h76.4v661.9h-86.6L1403.9,877.4L1403.9,877.4z"/>
				<path class="st4" d="M1854,1107.6c-74.3-34.6-105.9-91.7-105.9-148.7c0-104.9,88.6-176.2,205.7-176.2
					c128.3,0,193.5,79.4,193.5,163c0,56-28.5,117.1-110,154.8v3.1c82.5,32.6,133.4,91.7,133.4,171.1c0,116.1-98.8,192.5-225,192.5
					c-138.5,0-222-81.5-222-178.2c0-83.5,49.9-143.6,131.4-178.2L1854,1107.6z M2080.2,1283.7c0-79.4-56-119.2-145.6-144.6
					c-77.4,22.4-119.2,74.3-119.2,137.5c-3.1,66.2,47.8,125.2,132.4,125.2C2028.2,1401.9,2080.2,1352,2080.2,1283.7z M1833.7,952.7
					c-1,66.2,49.9,101.8,126.3,122.2c57-19.4,100.8-60.1,100.8-120.1c0-52.9-31.5-108-112-108
					C1874.4,846.9,1833.7,895.7,1833.7,952.7z"/>
			</g>
		</g>
	</g>
</g>
</svg>
