<?xml version="1.0" encoding="utf-8"?>
<!-- Generator: Adobe Illustrator 24.2.0, SVG Export Plug-In . SVG Version: 6.00 Build 0)  -->
<svg version="1.1" id="Layer_1" xmlns="http://www.w3.org/2000/svg" xmlns:xlink="http://www.w3.org/1999/xlink" x="0px" y="0px"
	 viewBox="0 0 491 474.3" style="enable-background:new 0 0 491 474.3;" xml:space="preserve">
<style type="text/css">
	.st0{fill-rule:evenodd;clip-rule:evenodd;fill:#F3F3F3;}
	.st1{fill:none;stroke:#FFFFFF;stroke-width:7.9502;stroke-linecap:round;stroke-linejoin:round;}
	.st2{fill:none;stroke:#DFDFDF;stroke-width:1.7946;stroke-linecap:round;}
	.st3{fill-rule:evenodd;clip-rule:evenodd;fill:#E49D75;}
	.st4{fill-rule:evenodd;clip-rule:evenodd;}
	.st5{fill-rule:evenodd;clip-rule:evenodd;fill:#E0E0E0;}
	.st6{fill-rule:evenodd;clip-rule:evenodd;fill:#A4A4A4;}
	.st7{fill-rule:evenodd;clip-rule:evenodd;fill:#5FC5D1;}
	.st8{fill-rule:evenodd;clip-rule:evenodd;fill:#6BD5E1;}
	.st9{fill-rule:evenodd;clip-rule:evenodd;fill:#FFD98E;}
	.st10{fill-rule:evenodd;clip-rule:evenodd;fill:#FFE4AD;}
	.st11{fill:#A4A4A4;}
</style>
<g id="Layer_2_1_">
	<g id="Layer_1-2">
		<path class="st0" d="M0,0.2h491v331H0V0.2z"/>
		<path class="st1" d="M278.2,68.9h57.6"/>
		<path class="st1" d="M278.2,87.8h51.3"/>
		<path class="st2" d="M122.6,331.9V0.9"/>
		<path class="st2" d="M245.1,331.9V0.9"/>
		<path class="st2" d="M367.7,331.9V0.9"/>
		<path class="st3" d="M214.6,455l1.1,12.7l11.2,0.3l-2.1-13.5L214.6,455z"/>
		<path class="st3" d="M112.9,432.3l-5.2,17.5l5.3,5.5l9.4-15.3L112.9,432.3z"/>
		<path class="st4" d="M213.8,464.8l-0.2,9.4l29.3-0.2c0.2,0.1,0.1-4.6,0.1-4.6l-17.4-4.8L213.8,464.8z"/>
		<path class="st4" d="M107.3,446.8l-5.9,8.1l12.4,17.6l11.7,0.1l-0.2-5.9l-4.7-2.1l-4.2-10.3L107.3,446.8z"/>
		<path class="st5" d="M224.8,89.8H282v57.1h-57.1V89.8z"/>
		<path class="st6" d="M224.8,89.8H282v12.8h-57.1V89.8z"/>
		<path class="st3" d="M159.1,157.8c3-0.7,13.6-0.4,16.4-1.9c2.8-1.5,37.8-27.7,41.4-31.3c3.5-3.6,7.9-6.7,11-10.6
			c3.1-3.9,0.1,6.9-2.6,9c-0.3,2.9-0.4,8.9-0.4,8.9c-1.5-0.3-3,0.1-4.2,1c-2,1.6-30.7,35.3-30.7,35.3S156.1,158.5,159.1,157.8z"/>
		<path class="st7" d="M133.1,258.7c-1.8,6.7-5.2,53.9,5.3,77.5c-4.6,17.3-27.8,97.7-27.8,97.7l11.5,10.2l59.5-90
			C181.7,354,169.3,255.5,133.1,258.7z"/>
		<path class="st8" d="M193.8,255.8c2.4,6.7,27,94.5,27,94.5l5.6,106.7l-12.7,1l-39.5-107.4c-4.8-5.5-35.5-78.9-36.9-88.3
			C143.3,255.9,191.4,249.1,193.8,255.8z"/>
		<path class="st9" d="M149.6,153.6c4.8,0,32.3,6.7,37.4,17.4c2.8,5.9,15.3,77.9,8.4,89.3c-6.9,11.3-54.5,10.8-63.8,2.3
			C126.3,257.7,124.7,153.5,149.6,153.6z"/>
		<path class="st5" d="M0,0.2h491v44.3H0V0.2z"/>
		<path class="st1" d="M22.8,70.4H99"/>
		<path class="st3" d="M143.5,141.3H154v20.4c-3.8,3-10.5,0-10.5,0V141.3z"/>
		<path class="st3" d="M130,122.9c0-12.7,8.6-23,19.3-23c10.7,0,19.3,10.3,19.3,23s-8.6,23-19.3,23S130,135.6,130,122.9z"/>
		<path class="st4" d="M147,96.1c6.2-0.1,14,3.8,14,6.5c0,4.7-7.3,15.4-12.8,19.8c1.5,3.5,2.9,5.8,2.9,8.8c0,3-4.6,14.7-4.6,22.7
			c0,6.2,1.4,10.5,1.4,15.7c0,14.2-9.2,22.7-22.6,22.7S103,177.8,102.9,166c-0.1-14.4,15.9-32.1,19.8-43
			C126,113.9,132.2,96.1,147,96.1z"/>
		<path class="st3" d="M142.9,124.1c0-2.7,2.2-4.8,4.8-4.8s4.8,2.2,4.8,4.8s-2.2,4.8-4.8,4.8c0,0,0,0,0,0
			C145.1,128.9,142.9,126.7,142.9,124.1C142.9,124.1,142.9,124.1,142.9,124.1z"/>
		<path class="st3" d="M194.8,192.7c5.4,1.3,27.6,5,31.8,3.7s48.1-43.2,51.5-46.2s10.3-7.5,11.1-12.8s0-9.9-7.4-12.6
			c0.1,3.5,0.3,8.8,0.1,8c-1.3-4.2-1.4-8.9-3.7-8.8c-1.2,3.9,0.5,11.2-2.5,16.2c-3.5,3.8-49.4,33.9-54.2,35.4
			c-6.3,0-22.4-5.5-22.4-5.5S189.4,191.4,194.8,192.7z"/>
		<path class="st10" d="M158.8,171.1c3.7-15.7,36.6-7.4,42.2-3c1.9,6-1.1,23.8-5.9,27.1C187.8,196.3,154.9,187.9,158.8,171.1z"/>
		<path class="st1" d="M22.8,103.9h57.6"/>
		<path class="st1" d="M22.8,161.5H54"/>
		<path class="st1" d="M22.8,183.2h57.6"/>
		<path class="st1" d="M22.8,202.1H74"/>
		<path class="st1" d="M388.8,67.8H465"/>
		<path class="st1" d="M388.8,88.6h53.3"/>
		<path class="st1" d="M388.8,110.9h71.6"/>
		<path class="st1" d="M388.8,131.1h36.1"/>
		<path class="st11" d="M243.2,115.6L243.2,115.6l-3.9,2l-0.6-2.3l4.8-2.6h2.5v21.9h-2.8V115.6z"/>
		<path class="st11" d="M268.2,112.8v2l-9.5,19.9h-3.1l9.5-19.4v-0.1h-10.7v-2.4L268.2,112.8z"/>
	</g>
</g>
</svg>
