<?xml version="1.0" encoding="utf-8"?>
<!-- Generator: Adobe Illustrator 24.2.0, SVG Export Plug-In . SVG Version: 6.00 Build 0)  -->
<svg version="1.1" id="Layer_1" xmlns="http://www.w3.org/2000/svg" xmlns:xlink="http://www.w3.org/1999/xlink" x="0px" y="0px"
	 viewBox="0 0 960 839.3" style="enable-background:new 0 0 960 839.3;" xml:space="preserve">
<style type="text/css">
	.st0{opacity:0.1;fill:#FFFFFF;enable-background:new    ;}
	.st1{fill:#D3D3D3;}
	.st2{fill:#DE8E68;}
	.st3{fill:#56CAD8;}
	.st4{fill:#74D5DE;}
	.st5{fill:#D37C59;}
	.st6{fill:#FED385;}
	.st7{fill:#FED892;}
	.st8{fill:#DC8E6C;}
</style>
<g id="Layer_2_1_">
	<g id="vector">
		<path class="st0" d="M654.5,122.1c42.8,38.5,70.8,92.2,115.8,169.3c45.2,77.2,107.5,177.8,83.9,237.8s-133.7,79.3-237.6,118.7
			C512.8,687.2,415,746.3,325,734.8s-172.1-93.7-192.8-184.5c-20.9-91.1,19.6-190.8,48.7-281.7c28.9-90.8,46.5-172.8,97.2-209.9
			S412.4,29.5,483.3,45C554.1,60.6,611.7,83.7,654.5,122.1z"/>
		<path class="st1" d="M263.4,769.3h-29.8v35.3h-43.7v-35.3h-89.3V756l103.2-141.1h29.8v116.8h29.8V769.3z M189.9,731.7v-44
			l-31.2,44H189.9z"/>
		<path class="st1" d="M288.2,710c0-54.7,15.9-97.7,71.4-97.7c55.2,0,70.6,43.1,70.6,97.7c0,54.4-15.3,97.2-70.6,97.2
			C304.1,807.2,288.2,764.4,288.2,710z M386.5,710c0-33-6.4-58.4-26.9-58.4c-20.8,0-28,25.4-28,58.4c0,32.7,7.2,57.5,28,57.5
			C380.2,767.6,386.5,742.7,386.5,710L386.5,710z"/>
		<path class="st1" d="M609.8,769.3H580v35.3h-43.7v-35.3H447V756l103.2-141.1H580v116.8h29.8V769.3z M536.3,731.7v-44l-31.2,44
			H536.3z"/>
		<rect x="611.3" y="756.5" class="st2" width="16.2" height="13.7"/>
		<polygon points="629,768.1 629,781.8 590.5,781.8 590.5,776.8 610.6,768.1 		"/>
		<rect x="359.7" y="588.4" class="st2" width="16.2" height="13.7"/>
		<polygon points="377.4,600 377.4,613.7 338.9,613.7 338.9,608.7 359,600 		"/>
		<path class="st3" d="M610.8,416.7c0.8,7.8,18,343.4,18,343.4h-18l-87.6-316L610.8,416.7z"/>
		<path class="st4" d="M620,379.7c0,45.6-16.8,86.6-50.7,86.6c-46.6,0-108.2-29.7-125.2-46.4c-4.2,12.5-64.3,170.3-64.3,170.3H355
			c0,0,15.9-183.7,45.8-230.8c9.8-13.1,90.1-9.8,130.6,0S620,379.7,620,379.7z"/>
		<path class="st5" d="M499.7,114.1c0.6-2.9,3.3-4.9,6.2-4.7c3.6,0.3,9.6,9.9,9.6,17.7s-2.2,10.7-1.5,16.4s15.1,82.4,15.1,87.1
			c3.6,0.3,16.6-1.6,16.6-1.6l-9.1,36.7h-26.5L493,118L499.7,114.1z"/>
		<path d="M525.2,127.2l-5.6,22.6c0,0-55.1-6.4-61.1-7.9s3-38.8,9.2-37.3C473.8,106.1,525.2,127.2,525.2,127.2z"/>
		<path class="st6" d="M575.7,194c70.5,0,53.1,182.1,44.9,188.9c-8.2,6.8-95.9-16.2-103.2-26.3C510.1,346.4,524,194,575.7,194z"/>
		<path class="st2" d="M550.5,240.2c-3.9,1.3-26.6,10.2-26.6,10.2c-0.4-4.6-17.8-95.2-18.9-100.7c2.2-5.5,3.3-11.5,3.2-17.4
			c0-14.9-6-26.9-13.5-26.9s-13.5,12.1-13.5,26.9c-0.1,6.2,1.1,12.4,3.5,18.1c-0.8,11.3-8.4,118.8,7,134.2
			c16.2,16.2,55.5,1.6,79.4-9.3C576.3,273.5,569.3,235.1,550.5,240.2z"/>
		<rect x="520" y="132.3" transform="matrix(0.2566 -0.9665 0.9665 0.2566 255.4185 611.3083)" width="10.3" height="14.7"/>
		<path class="st7" d="M620.6,227.4c10.7,20.9-31.8,58.4-43.6,55.6s-30.8-44.8-27.2-52.3C553.3,223.2,610.1,207.1,620.6,227.4z"/>
		<path class="st5" d="M580,211.6c0,3.5-21.5,4.4-21.5,0V171H580V211.6z"/>
		<ellipse class="st8" cx="561.4" cy="149.1" rx="28.1" ry="45.5"/>
		<path d="M540.4,119c-0.4,6.6,2.7,13,8.3,16.7c8.4,5.7,14.4,3.2,20.5,8.6c3.2,3.2,11.2,9.5,11.3,19.2c0,7.2,2.4,10.8,4.4,10.8
			s7.5-1.4,11-1.4c34.4,0,74.8,35.5,152.3,35.5c40.5,0,104-10.2,104-69.6c0-32.1-11.6-70.9-72.6-70.9c-38.8,0-65.9,19-97.8,19
			c-40.9,0-56.7-14.8-85-14.8c-20.1,0-65.5,11.7-65.5,42.2c0,11.6,3.6,15,4.8,15.6C536.4,128.5,538.6,121.9,540.4,119z"/>
		<circle class="st8" cx="577.6" cy="159.9" r="7.2"/>
	</g>
</g>
</svg>
