<?xml version="1.0" encoding="utf-8"?>
<!-- Generator: Adobe Illustrator 24.2.0, SVG Export Plug-In . SVG Version: 6.00 Build 0)  -->
<svg version="1.1" id="Layer_1" xmlns="http://www.w3.org/2000/svg" xmlns:xlink="http://www.w3.org/1999/xlink" x="0px" y="0px"
	 viewBox="0 0 1920 1080" style="enable-background:new 0 0 1920 1080;" xml:space="preserve">
<style type="text/css">
	.st0{fill:url(#SVGID_1_);}
	.st1{fill:url(#SVGID_2_);}
	.st2{clip-path:url(#SVGID_4_);fill:url(#SVGID_5_);}
	.st3{clip-path:url(#SVGID_4_);fill:url(#SVGID_6_);}
	.st4{clip-path:url(#SVGID_4_);fill:url(#SVGID_7_);}
	.st5{clip-path:url(#SVGID_4_);}
	.st6{fill:url(#SVGID_8_);}
	.st7{clip-path:url(#SVGID_4_);fill:url(#SVGID_9_);}
	.st8{fill:url(#SVGID_10_);}
	.st9{fill:url(#SVGID_11_);}
	.st10{fill:url(#SVGID_12_);}
	.st11{fill:url(#SVGID_13_);}
	.st12{fill:url(#SVGID_14_);}
	.st13{fill:url(#SVGID_15_);}
	.st14{fill:url(#SVGID_16_);}
	.st15{opacity:0.4;clip-path:url(#SVGID_4_);}
	.st16{fill:#FFFFFF;}
	.st17{opacity:0.7;clip-path:url(#SVGID_4_);}
	.st18{opacity:0.3;clip-path:url(#SVGID_4_);}
	.st19{fill-rule:evenodd;clip-rule:evenodd;fill:#FFFFFF;}
	.st20{fill-rule:evenodd;clip-rule:evenodd;fill:#A4A4A4;}
	.st21{fill:#A4A4A4;}
	.st22{font-family:'MyriadPro-Bold';}
	.st23{font-size:88.5179px;}
	.st24{font-size:64.0413px;}
	.st25{font-size:47.2061px;}
	.st26{font-size:63.6957px;}
	.st27{font-size:36.2144px;}
	.st28{font-size:80.7806px;}
</style>
<linearGradient id="SVGID_1_" gradientUnits="userSpaceOnUse" x1="873.6337" y1="540.6882" x2="1186.437" y2="541.4383">
	<stop  offset="0" style="stop-color:#000000"/>
	<stop  offset="0.2295" style="stop-color:#050505"/>
	<stop  offset="0.4926" style="stop-color:#131313"/>
	<stop  offset="0.7711" style="stop-color:#292929"/>
	<stop  offset="1" style="stop-color:#424242"/>
</linearGradient>
<path class="st0" d="M724.4,539.3c18.8-51.6,57.4-67.1,106.5-74.4c41.9-6.2,89.2-3.2,124.6-25.8c35.3-22.6,56.2-55.8,98-61.3
	c56-7.4,88.5,32.4,93.6,76c7.1,60.5-39,99.9-91.2,105.6c-43.2,4.7-89.2,8.8-121.9,43c-30.1,31.5-42.9,91.2-91.4,101.4
	C787.6,715.3,689.6,634.7,724.4,539.3z"/>
<linearGradient id="SVGID_2_" gradientUnits="userSpaceOnUse" x1="848.9023" y1="514.3656" x2="1077.6912" y2="518.1162">
	<stop  offset="0" style="stop-color:#000000"/>
	<stop  offset="0.2295" style="stop-color:#050505"/>
	<stop  offset="0.4926" style="stop-color:#131313"/>
	<stop  offset="0.7711" style="stop-color:#292929"/>
	<stop  offset="1" style="stop-color:#424242"/>
</linearGradient>
<path class="st1" d="M679.7,568.6c5.7-54.6,39.4-79.1,85.2-98.1c39.2-16.2,85.8-24.8,114.6-55.4c28.7-30.5,41-67.9,80.1-83.3
	c52.5-20.8,93.7,9.8,109.3,50.9c21.6,57-13.5,106.4-62.8,124.6c-40.8,15.1-84.4,30.2-107.8,71.4c-21.5,37.9-19.4,98.9-63.9,120.6
	C783.8,723.9,669.1,669.6,679.7,568.6z"/>
<g>
	<defs>
		<rect id="SVGID_3_" x="-19.6" y="-44.2" width="1958.2" height="1205"/>
	</defs>
	<clipPath id="SVGID_4_">
		<use xlink:href="#SVGID_3_"  style="overflow:visible;"/>
	</clipPath>
	<linearGradient id="SVGID_5_" gradientUnits="userSpaceOnUse" x1="1725.2074" y1="-207.4198" x2="134.5847" y2="1383.2029">
		<stop  offset="0" style="stop-color:#008ACD"/>
		<stop  offset="0.2511" style="stop-color:#4764C2"/>
		<stop  offset="0.6204" style="stop-color:#A92FB4"/>
		<stop  offset="0.8782" style="stop-color:#E70DAB"/>
		<stop  offset="1" style="stop-color:#FF00A7"/>
	</linearGradient>
	<rect x="-19.6" y="-44.2" class="st2" width="1958.2" height="1205"/>
	<linearGradient id="SVGID_6_" gradientUnits="userSpaceOnUse" x1="1725.2074" y1="-207.4198" x2="-193.4691" y2="1711.2567">
		<stop  offset="0" style="stop-color:#008ACD"/>
		<stop  offset="0.2511" style="stop-color:#4764C2"/>
		<stop  offset="0.6204" style="stop-color:#A92FB4"/>
		<stop  offset="0.8782" style="stop-color:#E70DAB"/>
		<stop  offset="1" style="stop-color:#FF00A7"/>
	</linearGradient>
	<rect x="-19.6" y="-44.2" class="st3" width="1958.2" height="1205"/>
	<linearGradient id="SVGID_7_" gradientUnits="userSpaceOnUse" x1="782.1757" y1="226.5501" x2="1337.7104" y2="1172.842">
		<stop  offset="0" style="stop-color:#000000"/>
		<stop  offset="0.2295" style="stop-color:#050505"/>
		<stop  offset="0.4926" style="stop-color:#131313"/>
		<stop  offset="0.7711" style="stop-color:#292929"/>
		<stop  offset="1" style="stop-color:#424242"/>
	</linearGradient>
	<path class="st4" d="M137.2,498.7C253.9,300.8,424.6,266,631.8,273.3c177.3,6.3,369.5,54.7,532.4-11.7
		c162.3-66.2,273.8-187.1,449.7-178.1c235.8,12.1,339.5,200.3,327.4,383.7c-16.8,254.3-236.3,381.5-455.6,365.2
		c-181.5-13.4-373.7-31.7-534.3,84.4c-147.9,106.9-245.8,342.8-452.9,347.9C263.6,1270.6-78.5,864.8,137.2,498.7z"/>
	<g class="st5">
		<linearGradient id="SVGID_8_" gradientUnits="userSpaceOnUse" x1="1600.129" y1="905.5766" x2="2000.302" y2="905.5766">
			<stop  offset="0" style="stop-color:#918D60"/>
			<stop  offset="0.3772" style="stop-color:#555338"/>
			<stop  offset="0.799" style="stop-color:#181710"/>
			<stop  offset="1" style="stop-color:#000000"/>
		</linearGradient>
		<path class="st6" d="M1602.5,1105.7c-0.6,0-1.2-0.2-1.7-0.7c-0.9-0.9-0.9-2.4,0-3.3l395.5-395.5c0.9-0.9,2.4-0.9,3.3,0
			c0.9,0.9,0.9,2.4,0,3.3L1604.1,1105C1603.7,1105.4,1603.1,1105.7,1602.5,1105.7z"/>
	</g>
	<linearGradient id="SVGID_9_" gradientUnits="userSpaceOnUse" x1="1323.9304" y1="832.6038" x2="1846.5094" y2="832.6038">
		<stop  offset="0" style="stop-color:#000000"/>
		<stop  offset="0.2295" style="stop-color:#050505"/>
		<stop  offset="0.4926" style="stop-color:#131313"/>
		<stop  offset="0.7711" style="stop-color:#292929"/>
		<stop  offset="1" style="stop-color:#424242"/>
	</linearGradient>
	<circle class="st7" cx="1585.2" cy="832.6" r="261.3"/>
	<g class="st5">
		<linearGradient id="SVGID_10_" gradientUnits="userSpaceOnUse" x1="407.0624" y1="348.2767" x2="846.0756" y2="348.2767">
			<stop  offset="0" style="stop-color:#918D60"/>
			<stop  offset="0.3772" style="stop-color:#555338"/>
			<stop  offset="0.799" style="stop-color:#181710"/>
			<stop  offset="1" style="stop-color:#000000"/>
		</linearGradient>
		<path class="st8" d="M409.4,567.8c-0.6,0-1.2-0.2-1.7-0.7c-0.9-0.9-0.9-2.4,0-3.3l434.3-434.3c0.9-0.9,2.4-0.9,3.3,0
			c0.9,0.9,0.9,2.4,0,3.3L411.1,567.1C410.6,567.6,410,567.8,409.4,567.8z"/>
	</g>
	<g class="st5">
		<linearGradient id="SVGID_11_" gradientUnits="userSpaceOnUse" x1="1919.4813" y1="195.8578" x2="2039.5331" y2="195.8578">
			<stop  offset="0" style="stop-color:#918D60"/>
			<stop  offset="0.3772" style="stop-color:#555338"/>
			<stop  offset="0.799" style="stop-color:#181710"/>
			<stop  offset="1" style="stop-color:#000000"/>
		</linearGradient>
		<path class="st9" d="M1921.8,255.9c-0.6,0-1.2-0.2-1.7-0.7c-0.9-0.9-0.9-2.4,0-3.3l115.3-115.3c0.9-0.9,2.4-0.9,3.3,0
			c0.9,0.9,0.9,2.4,0,3.3l-115.3,115.3C1923,255.7,1922.4,255.9,1921.8,255.9z"/>
	</g>
	<g class="st5">
		<linearGradient id="SVGID_12_" gradientUnits="userSpaceOnUse" x1="189.3212" y1="1110.3711" x2="580.0782" y2="1110.3711">
			<stop  offset="0" style="stop-color:#918D60"/>
			<stop  offset="0.3772" style="stop-color:#555338"/>
			<stop  offset="0.799" style="stop-color:#181710"/>
			<stop  offset="1" style="stop-color:#000000"/>
		</linearGradient>
		<path class="st10" d="M191.7,1305.7c-0.6,0-1.2-0.2-1.7-0.7c-0.9-0.9-0.9-2.4,0-3.3l386-386c0.9-0.9,2.4-0.9,3.3,0
			c0.9,0.9,0.9,2.4,0,3.3l-386,386C192.9,1305.5,192.3,1305.7,191.7,1305.7z"/>
	</g>
	<g class="st5">
		<linearGradient id="SVGID_13_" gradientUnits="userSpaceOnUse" x1="1205.0547" y1="1087.4199" x2="1479.2906" y2="1087.4199">
			<stop  offset="0" style="stop-color:#918D60"/>
			<stop  offset="0.3772" style="stop-color:#555338"/>
			<stop  offset="0.799" style="stop-color:#181710"/>
			<stop  offset="1" style="stop-color:#000000"/>
		</linearGradient>
		<path class="st11" d="M1207.4,1224.5c-0.6,0-1.2-0.2-1.7-0.7c-0.9-0.9-0.9-2.4,0-3.3L1475.3,951c0.9-0.9,2.4-0.9,3.3,0
			c0.9,0.9,0.9,2.4,0,3.3l-269.5,269.5C1208.6,1224.3,1208,1224.5,1207.4,1224.5z"/>
	</g>
	<g class="st5">
		
			<radialGradient id="SVGID_14_" cx="-1046.4731" cy="9796.6582" r="478.5653" gradientTransform="matrix(1.0833 -1.0833 0.2411 0.2411 441.5259 -2742.4595)" gradientUnits="userSpaceOnUse">
			<stop  offset="0" style="stop-color:#CFCFCF"/>
			<stop  offset="0.4637" style="stop-color:#E7E7E7"/>
			<stop  offset="1" style="stop-color:#FFFFFF"/>
		</radialGradient>
		<path class="st12" d="M2123.4,225.1c-115.1,24.2-341.2,185-568.9,412.7c-227.7,227.7-388.5,453.8-412.7,568.9L2123.4,225.1z"/>
		
			<radialGradient id="SVGID_15_" cx="-1380.6891" cy="7169.9839" r="342.4119" gradientTransform="matrix(1.0833 -1.0833 0.2411 0.2411 441.5259 -2742.4595)" gradientUnits="userSpaceOnUse">
			<stop  offset="0" style="stop-color:#CFCFCF"/>
			<stop  offset="0.4637" style="stop-color:#E7E7E7"/>
			<stop  offset="1" style="stop-color:#FFFFFF"/>
		</radialGradient>
		<path class="st13" d="M999,104.1c-82.3,17.3-244.1,132.3-407,295.3C429,562.3,314,724.1,296.7,806.4L999,104.1z"/>
		
			<radialGradient id="SVGID_16_" cx="-1626.9579" cy="7260.6631" r="418.6795" gradientTransform="matrix(1.0833 -1.0833 0.2411 0.2411 441.5259 -2742.4595)" gradientUnits="userSpaceOnUse">
			<stop  offset="0" style="stop-color:#CFCFCF"/>
			<stop  offset="0.4637" style="stop-color:#E7E7E7"/>
			<stop  offset="1" style="stop-color:#FFFFFF"/>
		</radialGradient>
		<path class="st14" d="M826.3,308.6c-100.7,21.2-298.5,161.8-497.7,361c-199.2,199.2-339.8,397-361,497.7L826.3,308.6z"/>
	</g>
	<g class="st15">
		<path class="st16" d="M829,296.3c-0.4,0-0.8-0.2-1.1-0.5c-0.6-0.6-0.6-1.6,0-2.2l451.9-451.9c0.6-0.6,1.6-0.6,2.2,0
			c0.6,0.6,0.6,1.6,0,2.2L830.2,295.8C829.9,296.1,829.5,296.3,829,296.3z"/>
	</g>
	<g class="st17">
		<path class="st16" d="M327,1346.5c-0.4,0-0.8-0.2-1.1-0.5c-0.6-0.6-0.6-1.6,0-2.2l546-546c0.6-0.6,1.6-0.6,2.2,0
			c0.6,0.6,0.6,1.6,0,2.2l-546,546C327.8,1346.3,327.4,1346.5,327,1346.5z"/>
	</g>
	<g class="st18">
		<rect x="336.4" y="647.9" class="st19" width="159.3" height="159.3"/>
		<rect x="336.4" y="647.9" class="st20" width="159.3" height="52.2"/>
		<text transform="matrix(1 0 0 1 364.853 776.3848)" class="st21 st22 st23">18</text>
	</g>
	<g class="st18">
		<rect x="510.6" y="391.2" class="st19" width="115.3" height="115.3"/>
		<rect x="510.6" y="391.2" class="st20" width="115.3" height="37.8"/>
		<text transform="matrix(1 0 0 1 531.1997 484.146)" class="st21 st22 st24">12</text>
	</g>
	<g class="st18">
		<rect x="874.6" y="887.7" class="st19" width="85" height="85"/>
		<rect x="874.6" y="887.7" class="st20" width="85" height="27.8"/>
		<text transform="matrix(1 0 0 1 889.7158 956.1592)" class="st21 st22 st25">12</text>
	</g>
	<g class="st18">
		<rect x="1297" y="227.9" class="st19" width="114.6" height="114.6"/>
		<rect x="1297" y="227.9" class="st20" width="114.6" height="37.6"/>
		<text transform="matrix(1 0 0 1 1317.4541 320.3716)" class="st21 st22 st26">12</text>
	</g>
	<g class="st18">
		<rect x="1024.5" y="503.5" class="st19" width="65.2" height="65.2"/>
		<rect x="1024.5" y="503.5" class="st20" width="65.2" height="21.4"/>
		<text transform="matrix(1 0 0 1 1036.167 556.0205)" class="st21 st22 st27">12</text>
	</g>
	<g class="st18">
		<rect x="1336.8" y="715.7" class="st19" width="145.4" height="145.4"/>
		<rect x="1336.8" y="715.7" class="st20" width="145.4" height="47.6"/>
		<text transform="matrix(1 0 0 1 1362.7686 832.8701)" class="st21 st22 st28">12</text>
	</g>
</g>
</svg>
