<?xml version="1.0" encoding="utf-8"?>
<!-- Generator: Adobe Illustrator 23.1.0, SVG Export Plug-In . SVG Version: 6.00 Build 0)  -->
<svg version="1.1" id="Layer_2" xmlns="http://www.w3.org/2000/svg" xmlns:xlink="http://www.w3.org/1999/xlink" x="0px" y="0px"
	 viewBox="0 0 537 790" style="enable-background:new 0 0 537 790;" xml:space="preserve">
<style type="text/css">
	.st0{fill:#FFFFFF;}
	.st1{fill:#353535;}
	.st2{fill:#FBF607;}
</style>
<g>
	<path class="st1" d="M521.47,515.54c-0.28-23-3.18-47.74-8.79-74.37C500.85,333.11,288.19,50.13,265.26,19.89V18
		c-0.19,0.25-0.43,0.57-0.72,0.94c-0.28-0.37-0.53-0.69-0.72-0.94v1.89C241.85,48.86,45.76,309.77,18.92,426.65
		C7.24,475.17,4.12,517.6,9.14,554.87c0.09,0.7,0.17,1.4,0.27,2.1c0.01,0.04,0.01,0.09,0.02,0.13l0,0
		C26.47,678.74,133.68,772.65,263.8,773.71v0.02c0.25,0,0.49-0.01,0.74-0.01c0.25,0,0.49,0.01,0.74,0.01v-0.02
		c141.3-1.15,255.59-111.8,256.73-248.56l0.02-0.63C522.03,521.69,521.83,518.68,521.47,515.54z M263.95,751.63v0.02
		c-0.24,0-0.48-0.01-0.73-0.01c-0.24,0-0.48,0.01-0.72,0.01v-0.02c-125.82-1.03-229.72-90.91-248-207.98
		c-0.18-3.33-0.15-7.39,0.33-12.21c0.92-9.2,6.34-21.81,11.94-9.7l0-0.03c31.07,101.8,125.31,176.03,237.06,176.97v0.02
		c0.24,0,0.48-0.01,0.72-0.01c0.24,0,0.48,0.01,0.72,0.01v-0.02c112.77-0.95,207.72-76.52,237.91-179.75
		c5-6.92,9.51,4.19,10.35,12.51c0.01,0.05,0.01,0.1,0.01,0.15C500.72,654.49,394.06,750.57,263.95,751.63z"/>
	<g>
		<path class="st2" d="M105.84,597.04V577.9l14.1-2.99v-91.62l-14.1-2.99v-19.24h14.1h47.45c17.12,0,30.48,3.15,40.07,9.43
			c9.59,6.29,14.38,15.66,14.38,28.11c0,6.41-1.53,12.16-4.58,17.23c-3.05,5.08-7.75,8.92-14.1,11.53
			c5.42,1.18,9.84,3.19,13.26,6.02c3.42,2.83,5.95,6.26,7.56,10.27s2.43,8.36,2.43,13.03c0,13.33-4.45,23.38-13.36,30.17
			c-8.9,6.79-21.82,10.18-38.76,10.18H105.84z M152.73,517.47h13.26c7.72,0,13.5-1.23,17.32-3.69c3.83-2.46,5.74-6.27,5.74-11.44
			c0-5.67-1.79-9.79-5.37-12.38c-3.58-2.58-9.01-3.88-16.3-3.88h-14.66V517.47z M152.73,572.11h21.57c6.48,0,11.35-1.28,14.62-3.83
			c3.27-2.55,4.9-6.44,4.9-11.67c0-3.92-0.62-7.18-1.87-9.76c-1.25-2.58-3.18-4.51-5.79-5.79c-2.62-1.28-6.04-1.91-10.27-1.91
			h-23.16V572.11z"/>
		<path class="st2" d="M231.93,597.04V577.9l14.01-2.99v-91.62l-14.01-2.99v-19.24h14.01h50.15l32.88,89.57h0.56l31.94-89.57h63.42
			v19.24l-14.1,2.99v91.62l14.1,2.99v19.15h-60.89V577.9l14.66-2.99v-17.75l0.75-63.98l-0.56-0.09l-38.48,103.95h-25.78
			l-39.04-102.74l-0.65,0.09l2.24,58.28v22.23l15.78,2.99v19.15H231.93z"/>
	</g>
	<g>
		<path class="st0" d="M105.83,387.95h5v35.63h-5V387.95z M108.33,418.82h20.39v4.75h-20.39V418.82z"/>
		<path class="st0" d="M138.87,422.39c-1.87-1.04-3.3-2.55-4.28-4.53c-0.98-1.98-1.47-4.37-1.47-7.17v-22.74h5v22.91
			c0,2.6,0.65,4.61,1.96,6.03c1.31,1.42,3.15,2.13,5.54,2.13c2.4,0,4.26-0.71,5.57-2.13c1.31-1.42,1.97-3.43,1.97-6.03v-22.91h5
			v22.74c0,2.79-0.49,5.18-1.47,7.17c-0.98,1.98-2.41,3.5-4.29,4.53c-1.88,1.04-4.14,1.56-6.79,1.56
			C142.99,423.94,140.74,423.42,138.87,422.39z"/>
		<path class="st0" d="M166.01,387.95h4.97v35.63h-4.97V387.95z M168.95,418.94h9.65c2.53,0,4.38-0.48,5.54-1.45
			c1.16-0.96,1.74-2.32,1.74-4.07v-0.07c0-1.21-0.21-2.25-0.63-3.11c-0.42-0.87-1.07-1.53-1.97-2c-0.9-0.47-2.05-0.7-3.46-0.7
			h-10.88v-4.51h10.88c1.85,0,3.24-0.43,4.18-1.3c0.94-0.87,1.41-2.15,1.41-3.85c0-1.78-0.52-3.11-1.57-3.99
			c-1.05-0.88-2.61-1.32-4.71-1.32h-10.19v-4.63h11.1c2.3,0,4.23,0.39,5.78,1.18c1.55,0.78,2.71,1.9,3.48,3.33
			c0.77,1.44,1.15,3.15,1.15,5.15c0,1.23-0.24,2.37-0.71,3.44c-0.47,1.07-1.2,1.98-2.17,2.74c-0.97,0.76-2.18,1.27-3.61,1.53
			c1.44,0.21,2.68,0.72,3.72,1.53c1.05,0.81,1.85,1.82,2.4,3.03c0.56,1.21,0.83,2.52,0.83,3.92v0.07c0,1.93-0.42,3.63-1.27,5.1
			c-0.85,1.47-2.07,2.61-3.65,3.41c-1.58,0.8-3.43,1.2-5.54,1.2h-11.52V418.94z"/>
		<path class="st0" d="M198.4,387.92h5v35.65h-5V387.92z M200.58,403.75h12.15c0.95,0,1.79-0.23,2.52-0.69
			c0.74-0.46,1.3-1.11,1.7-1.95s0.6-1.81,0.6-2.9c0-1.09-0.2-2.06-0.6-2.9s-0.96-1.49-1.69-1.95c-0.73-0.46-1.57-0.69-2.54-0.69
			h-12.15v-4.75h11.96c2.06,0,3.87,0.43,5.43,1.27c1.56,0.85,2.77,2.05,3.63,3.61c0.86,1.56,1.29,3.36,1.29,5.4s-0.43,3.84-1.3,5.4
			c-0.87,1.56-2.08,2.77-3.64,3.61c-1.56,0.85-3.36,1.27-5.4,1.27h-11.96V403.75z M210.29,407.4l4.97-1.13l9.12,17.3h-5.93
			L210.29,407.4z"/>
		<path class="st0" d="M236.12,423.58h-5v-35.63h5V423.58z"/>
		<path class="st0" d="M252.9,423.94c0,0-0.94-0.55-2.81-1.64c-1.87-1.09-3.32-2.65-4.35-4.66s-1.54-4.34-1.54-6.98v-9.78
			c0-2.65,0.51-4.97,1.54-6.98s2.48-3.57,4.35-4.67c1.87-1.1,4.04-1.65,6.51-1.65c2.04,0,3.92,0.44,5.64,1.31
			c1.71,0.87,3.15,2.11,4.3,3.71c1.15,1.6,1.93,3.46,2.34,5.56h-5.12c-0.31-1.11-0.83-2.1-1.56-2.98c-0.73-0.87-1.58-1.55-2.56-2.02
			s-1.99-0.71-3.04-0.71c-1.45,0-2.73,0.35-3.82,1.05c-1.09,0.7-1.94,1.69-2.55,2.95c-0.6,1.27-0.91,2.74-0.91,4.42v9.78
			c0,1.67,0.3,3.14,0.91,4.41c0.6,1.27,1.45,2.26,2.55,2.95c1.09,0.69,2.37,1.04,3.82,1.04c1.06,0,2.08-0.22,3.05-0.66
			c0.97-0.44,1.82-1.09,2.55-1.96c0.73-0.87,1.25-1.89,1.56-3.09h5.12c-0.41,2.11-1.19,3.96-2.35,5.56s-2.6,2.84-4.31,3.71
			c-1.72,0.87-3.59,1.31-5.61,1.31C254.13,423.94,252.9,423.94,252.9,423.94z"/>
		<path class="st0" d="M275.49,387.95h5v35.63h-5V387.95z M277.92,387.95h20.46v4.75h-20.46V387.95z M277.92,403.51h17.77v4.75
			h-17.77V403.51z M277.92,418.82h20.46v4.75h-20.46V418.82z"/>
		<path class="st0" d="M305.49,387.95h4.53l17.42,27.54l-0.59,0.64v-28.18h4.95v35.6h-4.58l-17.37-27.13l0.59-0.64v27.76h-4.95
			V387.95z"/>
		<path class="st0" d="M337.69,387.95h25.14v4.75h-25.14V387.95z M347.76,390.86h5v32.71h-5V390.86z"/>
		<path class="st0" d="M367.73,387.92h5v35.65h-5V387.92z M369.91,403.75h12.15c0.95,0,1.79-0.23,2.52-0.69
			c0.74-0.46,1.3-1.11,1.7-1.95s0.6-1.81,0.6-2.9c0-1.09-0.2-2.06-0.6-2.9s-0.96-1.49-1.69-1.95c-0.73-0.46-1.57-0.69-2.54-0.69
			h-12.15v-4.75h11.96c2.06,0,3.87,0.43,5.43,1.27c1.56,0.85,2.77,2.05,3.63,3.61c0.86,1.56,1.29,3.36,1.29,5.4s-0.43,3.84-1.3,5.4
			c-0.87,1.56-2.08,2.77-3.64,3.61c-1.56,0.85-3.36,1.27-5.4,1.27h-11.96V403.75z M379.61,407.4l4.97-1.13l9.12,17.3h-5.93
			L379.61,407.4z"/>
		<path class="st0" d="M404.68,422.31c-1.89-1.09-3.36-2.62-4.4-4.61s-1.56-4.28-1.56-6.9v-10.1c0-2.61,0.52-4.91,1.56-6.9
			s2.5-3.52,4.4-4.61c1.9-1.09,4.08-1.63,6.57-1.63s4.67,0.54,6.57,1.63c1.89,1.09,3.36,2.62,4.4,4.61c1.04,1.98,1.56,4.28,1.56,6.9
			v10.1c0,2.61-0.52,4.91-1.56,6.9c-1.04,1.98-2.5,3.52-4.4,4.61c-1.9,1.09-4.08,1.63-6.57,1.63S406.58,423.4,404.68,422.31z
			 M415.13,418.02c1.12-0.66,1.99-1.6,2.6-2.82c0.61-1.22,0.92-2.63,0.92-4.23v-10.44c0-1.6-0.31-3.01-0.92-4.23
			c-0.61-1.22-1.48-2.16-2.6-2.82s-2.41-0.99-3.88-0.99c-1.47,0-2.76,0.33-3.88,0.99s-1.99,1.6-2.6,2.82
			c-0.61,1.22-0.92,2.63-0.92,4.23v10.44c0,1.6,0.31,3.01,0.92,4.23c0.61,1.22,1.48,2.16,2.6,2.82s2.41,0.99,3.88,0.99
			C412.72,419.02,414.01,418.69,415.13,418.02z"/>
	</g>
</g>
</svg>
