<?xml version="1.0" encoding="utf-8"?>
<!-- Generator: Adobe Illustrator 23.1.0, SVG Export Plug-In . SVG Version: 6.00 Build 0)  -->
<svg version="1.1" id="Layer_1" xmlns="http://www.w3.org/2000/svg" xmlns:xlink="http://www.w3.org/1999/xlink" x="0px" y="0px"
	 viewBox="0 0 80.56 72.65" style="enable-background:new 0 0 80.56 72.65;" xml:space="preserve">
<style type="text/css">
	.st0{fill:#FFFFFF;}
</style>
<g>
	<path class="st0" d="M11.29,39.32c3.13,0,6.07-1.91,7.9-3.86c1.08-1.15,2.03-2.55,3.09-4.52c0.31-0.59,0.62-1.19,0.93-1.83
		c0.03,0.06,0.07,0.11,0.1,0.17c0.01,0.02,0.03,0.04,0.05,0.06c0.03,0.04,0.06,0.09,0.1,0.13c0.02,0.02,0.04,0.05,0.06,0.07
		c0.03,0.04,0.06,0.07,0.1,0.11c0.02,0.02,0.04,0.04,0.07,0.07c0.03,0.03,0.07,0.07,0.1,0.1c0.02,0.02,0.05,0.04,0.07,0.06
		c0.04,0.03,0.08,0.06,0.11,0.09c0.02,0.02,0.05,0.03,0.07,0.05c0.04,0.03,0.09,0.06,0.14,0.09c0.02,0.01,0.04,0.02,0.06,0.04
		c0.07,0.04,0.13,0.08,0.2,0.11c0.01,0.01,0.02,0.01,0.03,0.02c0.06,0.03,0.12,0.06,0.17,0.08c0.02,0.01,0.05,0.02,0.07,0.03
		c0.05,0.02,0.09,0.04,0.14,0.05c0.03,0.01,0.06,0.02,0.09,0.03c0.05,0.01,0.09,0.03,0.14,0.04c0.03,0.01,0.06,0.02,0.09,0.02
		c0.05,0.01,0.09,0.02,0.14,0.03c0.03,0.01,0.06,0.01,0.09,0.02c0.05,0.01,0.1,0.02,0.15,0.02c0.03,0,0.06,0.01,0.08,0.01
		c0.06,0.01,0.12,0.01,0.18,0.02c0.02,0,0.04,0,0.05,0c0.08,0,0.15,0.01,0.23,0.01c0,0,0.01,0,0.01,0c0.06,0,0.11,0,0.17-0.01
		c0.03,0,0.06,0,0.09,0c0.08-0.01,0.16-0.01,0.25-0.02c0,0,0,0,0.01,0c0.95-0.12,1.8-0.55,2.54-1.12c0.07-0.05,0.13-0.1,0.2-0.16
		c0.26-0.22,0.51-0.45,0.75-0.69c0.23-0.23,0.45-0.47,0.67-0.72c0.22-0.25,0.43-0.5,0.64-0.76c0.02,0.27,0.05,0.54,0.1,0.8
		c0.05,0.26,0.12,0.52,0.21,0.77c0.02,0.06,0.05,0.12,0.07,0.18c0.08,0.18,0.17,0.34,0.28,0.5c0.07,0.1,0.15,0.2,0.24,0.29
		c0.09,0.09,0.18,0.17,0.28,0.25c0.05,0.04,0.1,0.07,0.15,0.11c0.02,0.01,0.03,0.02,0.05,0.03c0.04,0.02,0.07,0.04,0.11,0.06
		c0.02,0.01,0.04,0.02,0.05,0.03c0.04,0.02,0.08,0.04,0.11,0.05c0.02,0.01,0.03,0.01,0.04,0.02c0.05,0.02,0.11,0.04,0.16,0.06
		c0.01,0,0.02,0.01,0.03,0.01c0.04,0.01,0.09,0.03,0.13,0.04c0.02,0,0.04,0.01,0.05,0.01c0.04,0.01,0.08,0.02,0.11,0.02
		c0.02,0,0.04,0.01,0.05,0.01c0.04,0.01,0.08,0.01,0.13,0.01c0.01,0,0.02,0,0.04,0c0.05,0,0.11,0.01,0.16,0.01c0,0,0.01,0,0.01,0
		c0.01,0,0.02,0,0.03,0c0.05,0,0.09,0,0.14-0.01c0.02,0,0.03,0,0.05,0c0.05,0,0.1-0.01,0.14-0.02c0.01,0,0.02,0,0.03,0
		c0.06-0.01,0.11-0.02,0.17-0.03c0.01,0,0.03-0.01,0.04-0.01c0.04-0.01,0.09-0.02,0.13-0.03c0.02,0,0.03-0.01,0.05-0.01
		c0.05-0.02,0.11-0.03,0.16-0.05c0,0,0,0,0.01,0c0.06-0.02,0.11-0.04,0.17-0.07c0.02-0.01,0.03-0.01,0.05-0.02
		c0.04-0.02,0.08-0.04,0.13-0.06c0.01-0.01,0.03-0.01,0.04-0.02c0.05-0.03,0.11-0.05,0.16-0.08c0.01,0,0.01-0.01,0.02-0.01
		c0.05-0.03,0.09-0.05,0.14-0.08c0.01-0.01,0.03-0.02,0.04-0.03c0.04-0.03,0.08-0.05,0.12-0.08c0.01-0.01,0.02-0.02,0.03-0.02
		c0.05-0.03,0.1-0.07,0.15-0.11c0.01-0.01,0.02-0.02,0.03-0.02c0.04-0.03,0.08-0.06,0.12-0.09c0,0,0.01-0.01,0.01-0.01
		c0.01,0.01,0.01,0.02,0.02,0.03c0.31,0.49,0.75,0.94,1.22,1.26c0.75,0.51,1.59,0.78,2.43,0.78c0.01,0,0.02,0,0.03,0
		c0.09,0.04,0.19,0.07,0.3,0.08c0.12,0.02,0.24,0.02,0.37,0.02c0.97,0,2.06-0.46,3.23-1.38c1.06-0.83,1.86-1.85,2.58-2.82
		c0.41-0.55,0.78-1.08,1.13-1.61c-0.04,0.36-0.07,0.71-0.1,1.07c-0.08,1.2,0.2,2.16,0.84,2.87c0.71,0.78,1.83,0.98,2.84,0.5
		c0.9-0.43,1.69-1.15,2.2-1.67c0.48-0.48,0.85-1.08,1.2-1.66c0.07-0.12,0.15-0.25,0.22-0.36c0.37-0.59,0.72-1.24,1.07-2.01
		c-0.11,1.32-0.25,2.58-0.4,3.8c0,0.01,0,0.02,0,0.04c-0.4,0.31-0.79,0.62-1.19,0.93c-0.66,0.52-1.35,1.05-2,1.59
		c-1.67,1.37-3.79,3.25-5.39,5.67c-0.95,1.45-3.02,5.14-1.65,8.19c0.57,1.29,1.79,2.16,3.11,2.22c0.08,0,0.17,0.01,0.25,0.01
		c1.24,0,2.53-0.44,3.59-1.23c1.16-0.87,2.2-2.2,3.09-3.96c1.86-3.7,2.68-7.9,3.23-11.53c0.13-0.87,0.25-1.75,0.37-2.71
		c1.85-1.87,3.11-3.58,3.96-5.4c0.25-0.53,0.47-1.09,0.65-1.66v0c0.05-0.17,0.03-0.35-0.06-0.5c-0.09-0.14-0.24-0.23-0.4-0.25
		c-0.37-0.05-0.65,0.25-0.76,0.54c-0.62,1.69-1.61,3.23-3.11,4.81c0.22-2.26,0.37-4.56,0.45-6.86c0.01-0.36,0.01-0.74,0-1.17
		c-0.02-0.47-0.23-0.91-0.57-1.17c-0.3-0.24-0.69-0.32-1.08-0.24c-0.9,0.19-1.58,0.97-1.65,1.9c-0.06,0.88-0.1,1.77-0.14,2.64
		c-0.01,0.21-0.02,0.42-0.03,0.63c-0.22,0.41-0.39,0.85-0.57,1.27c-0.1,0.25-0.2,0.5-0.31,0.74c-0.37,0.83-0.72,1.49-1.09,2.07
		c-0.68,1.07-1.62,1.95-2.79,2.64c-0.09,0.05-0.37,0.21-0.56,0.24c0,0-0.01,0-0.01,0c-0.02,0-0.05-0.01-0.06-0.01
		c-0.01,0-0.03-0.02-0.05-0.03L50.5,27.8c-0.02-0.02-0.04-0.03-0.05-0.05c-0.02-0.04-0.05-0.09-0.09-0.14
		c-0.01-0.02-0.01-0.04-0.02-0.06c-0.01-0.02-0.01-0.03-0.01-0.04l-0.01-0.03c-0.02-0.09-0.03-0.14-0.03-0.17
		c-0.03-0.27,0.03-0.7,0.06-0.99c0.05-0.41,0.06-0.51,0.13-0.91c0.07-0.4,0.15-0.8,0.24-1.16c0.18-0.75,0.39-1.49,0.64-2.23
		l0.01-0.04c0.14-0.41,0.28-0.83,0.43-1.23l0.08-0.2c0-0.01,0.07-0.19,0.1-0.25c0.07-0.16,0.13-0.32,0.2-0.48
		c0.1-0.22,0.2-0.44,0.3-0.66c0.34-0.72,0.69-1.47,0.77-2.3c0.05-0.5-0.19-0.93-0.64-1.16c-0.51-0.26-1.16-0.18-1.57,0.18
		c-0.87,0.78-1.31,1.74-1.72,2.75c-0.33,0.82-0.71,1.79-1,2.8c-0.04,0.15-0.08,0.3-0.12,0.45c-1.02,1.75-2.02,3.12-3.09,4.27
		c-0.08,0.09-0.17,0.18-0.27,0.28c0.02-0.17,0.04-0.33,0.05-0.49c0.17-2.25-0.39-4.62-1.67-7.02c-0.03-0.06-0.06-0.12-0.09-0.17
		c0.09-0.01,0.18-0.05,0.26-0.1c1.25-0.79,2.66-2.47,2.79-4.04c0.07-0.83-0.21-1.53-0.84-2.09C44.53,11.8,43.3,11.6,42.21,12
		c-1.12,0.41-2.03,1.45-2.45,2.77c-0.62,1.97,0.2,3.78,0.99,5.53c0.26,0.58,0.51,1.13,0.71,1.69c0.41,1.14,0.63,2.28,0.65,3.38
		c0.01,0.52-0.03,1.14-0.08,1.44c-0.11,0.55-0.18,0.79-0.42,1.18c-0.03,0.03-0.06,0.08-0.09,0.12c-0.02,0.03-0.04,0.05-0.04,0.05
		c-0.01,0.02-0.06,0.06-0.1,0.1c-0.05,0.05-0.09,0.09-0.13,0.13c-0.07,0.05-0.14,0.11-0.21,0.16L41,28.57
		c-0.07,0.03-0.13,0.06-0.19,0.09c-0.21,0.09-0.23,0.1-0.36,0.08l-0.1-0.01c-0.14-0.01-0.15-0.02-0.36-0.1l-0.07-0.03
		c-0.2-0.08-0.2-0.08-0.35-0.21l-0.08-0.06c-0.17-0.14-0.35-0.32-0.54-0.53c-0.04-0.05-0.11-0.14-0.15-0.19l0,0
		c-0.12-0.15-0.25-0.3-0.38-0.44l-0.03-0.04c-0.08-0.13-0.19-0.24-0.32-0.33c0.11-0.2,0.21-0.4,0.31-0.6
		c0.16-0.32,0.32-0.65,0.46-0.99c0.25-0.56,0.48-1.13,0.7-1.71c0.14-0.39,0.28-0.77,0.4-1.16c0.06-0.2,0.12-0.39,0.18-0.59
		c0.12-0.39,0.22-0.79,0.32-1.19c0.01-0.03,0.01-0.06,0.01-0.09c0-0.01,0-0.02,0-0.03c0-0.02,0-0.03,0-0.05c0-0.01,0-0.02-0.01-0.03
		c0-0.01-0.01-0.03-0.01-0.04c0-0.01-0.01-0.01-0.01-0.02c-0.01-0.01-0.01-0.02-0.02-0.03c-0.01-0.01-0.01-0.01-0.02-0.02
		c-0.01-0.01-0.01-0.02-0.02-0.02c-0.01-0.01-0.02-0.01-0.02-0.01c-0.01-0.01-0.02-0.01-0.03-0.01c-0.01,0-0.02-0.01-0.03-0.01
		c-0.01,0-0.02-0.01-0.03-0.01c-0.01,0-0.02,0-0.03,0c-0.01,0-0.02,0-0.03,0c0,0,0,0-0.01,0c-0.01,0-0.02,0-0.03,0
		c-0.01,0-0.02,0-0.03,0c-0.01,0-0.02,0-0.03,0.01c-0.01,0-0.02,0-0.03,0.01c-0.01,0-0.02,0.01-0.03,0.01
		c-0.01,0-0.02,0.01-0.03,0.01c-0.01,0.01-0.02,0.01-0.03,0.02c-0.01,0.01-0.02,0.01-0.03,0.02c-0.01,0.01-0.02,0.02-0.03,0.02
		c-0.01,0.01-0.02,0.01-0.02,0.02c-0.01,0.01-0.02,0.02-0.03,0.03c-0.01,0.01-0.01,0.01-0.02,0.02c-0.01,0.01-0.02,0.03-0.03,0.04
		c0,0.01-0.01,0.01-0.01,0.02c-0.01,0.02-0.02,0.04-0.03,0.07c-0.3,0.94-0.64,1.86-1.05,2.76c-0.24,0.54-0.51,1.07-0.8,1.58
		c-0.12,0.22-0.25,0.45-0.39,0.68c-0.04,0.08-0.09,0.15-0.14,0.23c-0.09,0.15-0.19,0.3-0.29,0.45c-0.09,0.14-0.19,0.27-0.29,0.4
		c-0.38,0.11-0.72,0.38-0.87,0.72c-0.04,0.08-0.07,0.17-0.1,0.25c-0.2,0.14-0.41,0.26-0.63,0.36c0,0,0,0,0,0
		c-0.03,0.01-0.06,0.03-0.09,0.04c-0.01,0-0.02,0.01-0.03,0.01c-0.02,0.01-0.04,0.01-0.06,0.02c-0.01,0-0.02,0.01-0.03,0.01
		C35,28,34.97,28.01,34.95,28.01c0,0,0,0-0.01,0c-0.03,0-0.05,0.01-0.08,0.01c-0.01,0-0.02,0-0.02,0c-0.02,0-0.04,0-0.07-0.01
		c-0.01,0-0.02,0-0.03,0c-0.03-0.01-0.06-0.01-0.1-0.02c0.01,0,0.02,0,0.03,0c0,0,0,0,0.01,0c0,0,0.01,0,0.01,0c0,0,0,0,0,0
		c0,0,0,0,0,0c0,0,0,0,0,0c0,0,0,0,0,0c0,0-0.01,0-0.01-0.01c0,0,0,0,0,0c-0.01,0-0.01-0.01-0.02-0.01c0,0-0.01,0-0.01,0
		c-0.01,0-0.03-0.01-0.04-0.02c-0.01-0.01-0.03-0.03-0.06-0.05c-0.01-0.01-0.01-0.01-0.02-0.02c-0.03-0.07-0.06-0.14-0.09-0.21
		c-0.01-0.02-0.01-0.02-0.02-0.04c-0.02-0.07-0.04-0.13-0.06-0.2c0-0.01,0-0.03-0.01-0.05c0-0.03-0.01-0.06-0.01-0.1
		c0-0.03-0.01-0.06-0.01-0.09c0,0,0-0.01,0-0.01c0-0.01,0-0.03-0.01-0.04c0,0,0-0.01,0-0.01c0-0.01,0-0.02,0-0.03c0,0,0,0,0-0.01
		c0,0,0-0.01,0-0.01h0c-0.01-0.16-0.01-0.33-0.01-0.49c0-0.16,0.01-0.33,0.01-0.49c0-0.09,0.01-0.19,0.01-0.28
		c0.01-0.28,0.02-0.57,0.05-0.85c0.01-0.1,0.02-0.19,0.03-0.29c0-0.01,0-0.02,0.01-0.03c0-0.01,0-0.02,0.01-0.04
		c0.04-0.2,0.08-0.4,0.12-0.59c0.14-0.61,0.5-1.31,0.53-1.97c0-0.06,0-0.12,0-0.18c-0.01-0.24-0.07-0.47-0.2-0.69
		c-0.02-0.04-0.05-0.07-0.07-0.11c-0.01-0.01-0.02-0.02-0.02-0.03c-0.02-0.02-0.04-0.05-0.06-0.07c-0.01-0.01-0.02-0.02-0.03-0.03
		c-0.03-0.02-0.06-0.05-0.09-0.07c0,0,0,0-0.01-0.01c-0.03-0.02-0.07-0.04-0.1-0.06c-0.01-0.01-0.02-0.01-0.03-0.01
		c-0.03-0.01-0.05-0.02-0.08-0.03c-0.01,0-0.02-0.01-0.03-0.01c-0.03-0.01-0.07-0.02-0.1-0.03c0,0-0.01,0-0.01,0
		c-0.04-0.01-0.08-0.01-0.12-0.02c-0.01,0-0.02,0-0.03,0c-0.03,0-0.06,0-0.09,0c-0.01,0-0.01,0-0.02,0c-0.01,0-0.01,0-0.02,0
		c-0.04,0-0.07,0-0.11,0.01c0,0-0.01,0-0.01,0c-0.04,0-0.08,0.01-0.12,0.02c-0.01,0-0.02,0-0.03,0.01
		c-0.03,0.01-0.06,0.01-0.09,0.02c-0.01,0-0.02,0.01-0.03,0.01c-0.04,0.01-0.08,0.03-0.12,0.04c-1.04,0.41-1.39,1.58-1.65,2.57
		c-0.17,0.62-0.28,1.26-0.35,1.91c-0.09,0.13-0.19,0.27-0.29,0.4c-0.15,0.19-0.32,0.38-0.49,0.56c-0.18,0.18-0.36,0.35-0.56,0.5
		c-0.64,0.5-1.45,0.93-2.19,1.16c-0.06,0.02-0.12,0.04-0.18,0.05c-0.02,0-0.04,0.01-0.05,0.01c-0.04,0.01-0.08,0.02-0.12,0.03
		c-0.02,0-0.04,0.01-0.06,0.01c-0.04,0.01-0.07,0.01-0.11,0.01c-0.02,0-0.04,0-0.06,0.01c-0.04,0-0.09,0.01-0.13,0.01
		c-0.01,0-0.02,0-0.03,0c-0.07,0-0.13,0-0.2-0.01c-0.02,0-0.03,0-0.05-0.01c-0.07-0.01-0.14-0.02-0.21-0.03c-0.01,0-0.02,0-0.02,0
		c-0.02-0.01-0.03-0.02-0.06-0.03c-0.09-0.04-0.18-0.07-0.27-0.12c-0.01-0.01-0.03-0.01-0.05-0.02c-0.03-0.02-0.07-0.04-0.09-0.05
		c-0.07-0.05-0.13-0.11-0.2-0.16c-0.03-0.02-0.04-0.03-0.06-0.04c-0.01-0.01-0.01-0.02-0.02-0.04c0,0,0,0,0,0l0,0c0,0,0,0,0,0
		c0,0-0.01-0.02-0.02-0.04c0,0,0-0.01-0.01-0.01c0-0.01-0.01-0.01-0.01-0.02c0-0.01-0.01-0.01-0.01-0.02c0-0.01-0.01-0.01-0.01-0.02
		c0-0.01-0.01-0.01-0.01-0.02c0-0.01-0.01-0.01-0.01-0.02c0-0.01-0.01-0.02-0.01-0.02c0,0,0,0,0-0.01
		c-0.01-0.01-0.01-0.02-0.02-0.03c0-0.01-0.01-0.02-0.01-0.03c0-0.01,0-0.01-0.01-0.02c0-0.01,0-0.01-0.01-0.02
		c0-0.01,0-0.01-0.01-0.02c0-0.01,0-0.01-0.01-0.02c0-0.01,0-0.01-0.01-0.02c0-0.01,0-0.01-0.01-0.02c0-0.01,0-0.01-0.01-0.02
		c0,0,0-0.01,0-0.01c0,0,0-0.01,0-0.01c0-0.01,0-0.01,0-0.01c0,0,0-0.01,0-0.01c0,0,0-0.01,0-0.01c0,0,0,0,0,0c0,0,0,0,0,0s0,0,0,0
		c-0.03-0.11-0.05-0.22-0.07-0.34c0-0.02-0.01-0.03-0.01-0.04c0-0.02,0-0.04,0-0.07c0-0.06,0-0.12,0-0.18c0-0.06,0-0.12,0-0.18
		c0-0.24,0.02-0.48,0.04-0.72c0.01-0.07,0.01-0.13,0.02-0.2c0.01-0.07,0.02-0.13,0.02-0.2c0-0.02,0-0.03,0-0.04
		c0-0.01,0-0.01,0-0.02c0.04-0.21,0.08-0.43,0.13-0.64c0.11-0.45,0.25-0.88,0.4-1.32c0.01-0.02,0.01-0.04,0.02-0.05
		c0.01-0.01,0.01-0.03,0.02-0.05c0.05-0.1,0.09-0.2,0.13-0.3c0.05-0.1,0.09-0.2,0.14-0.29c0.05-0.1,0.1-0.19,0.15-0.29
		c0.1-0.19,0.21-0.38,0.33-0.57c0.06-0.09,0.12-0.18,0.18-0.28c0.01-0.01,0.01-0.02,0.02-0.03c0.02-0.02,0.04-0.05,0.07-0.09
		c0.06-0.09,0.13-0.17,0.2-0.26c0.2-0.26,0.42-0.5,0.64-0.74c0.08-0.08,0.15-0.16,0.23-0.23c0,0,0,0,0.01-0.01
		c0.03-0.03,0.13-0.12,0.17-0.16c0.01-0.01,0.02-0.02,0.03-0.03c0.03-0.03,0.06-0.05,0.06-0.05c0.12-0.1,0.25-0.2,0.38-0.3
		c0.09-0.07,0.19-0.14,0.29-0.2c0.01-0.01,0.03-0.02,0.05-0.03c0.05-0.03,0.11-0.06,0.14-0.08c0.01,0,0.01-0.01,0.02-0.01
		c0.09-0.05,0.18-0.09,0.28-0.13c0.09-0.04,0.19-0.08,0.28-0.11c0.01,0,0.03-0.01,0.06-0.01c0.07-0.02,0.18-0.04,0.2-0.04
		c0.04-0.01,0.22-0.02,0.26-0.03c0.08,0,0.17,0.01,0.25,0.02c0.04,0.01,0.17,0.03,0.21,0.04c0.08,0.02,0.16,0.04,0.23,0.06
		c0.04,0.01,0.06,0.02,0.08,0.02c0,0,0,0,0,0c0.01,0,0.01,0,0.01,0c0,0,0,0,0,0c0,0,0,0,0,0c0,0,0,0,0,0c0,0,0,0,0,0c0,0,0,0-0.01,0
		c0,0,0,0,0,0c-0.01,0-0.03-0.01-0.05-0.01c0,0-0.01,0-0.01,0c-0.01,0-0.03-0.01-0.04-0.01c0,0-0.01,0-0.01,0c-0.01,0-0.02,0-0.02,0
		c0,0,0,0,0,0c0,0,0,0,0,0c0,0,0,0,0,0c0,0,0,0,0,0c0,0,0.01,0,0.02,0.01c0,0,0,0,0.01,0c0.01,0,0.02,0.01,0.04,0.01
		c0,0,0.01,0,0.01,0c0.02,0,0.04,0.01,0.06,0.01c0.01,0,0.02,0,0.03,0.01c0.02,0.01,0.05,0.01,0.08,0.02c0,0,0,0,0.01,0
		c0.02,0.01,0.05,0.01,0.08,0.02c0,0,0,0,0,0c0,0,0,0-0.01,0c-0.01,0-0.02,0-0.03-0.01c0,0-0.01,0-0.01,0c-0.01,0-0.01,0-0.02,0
		c0,0,0,0,0,0c0,0-0.01,0-0.01,0c0,0,0,0,0,0c0,0,0,0,0,0c0,0,0,0,0,0c0,0,0.01,0,0.01,0c0,0,0,0,0.01,0c0.01,0,0.01,0,0.02,0.01
		c0,0,0.01,0,0.01,0c0.01,0,0.03,0.01,0.05,0.01c0.21,0.06,0.4,0.14,0.58,0.26c0.01,0.01,0.02,0.02,0.04,0.04
		c0.05,0.05,0.1,0.09,0.15,0.14c-0.01-0.01-0.02-0.02-0.03-0.03c0,0,0,0,0-0.01c-0.01-0.01-0.01-0.01-0.01-0.02c0,0,0,0,0,0
		c0,0,0,0,0,0c0,0,0,0,0.01,0.01c0,0,0,0,0,0c0.01,0.01,0.02,0.02,0.03,0.03c0,0,0.01,0.01,0.01,0.02c0.01,0.01,0.02,0.03,0.04,0.05
		c0,0.01,0.01,0.01,0.01,0.02c0.02,0.03,0.04,0.05,0.07,0.09c0.06,0.06,0.14,0.1,0.21,0.15c0.02,0.02,0.05,0.03,0.07,0.05
		c0.01,0.01,0.02,0.01,0.03,0.02c0,0,0.01,0,0.01,0c0.01,0,0.01,0.01,0.01,0.01c0,0,0,0,0.01,0c0,0,0.01,0,0.01,0c0,0,0,0,0,0
		c0,0,0,0,0,0c0,0,0,0,0,0c0,0-0.01,0-0.01,0c0,0,0,0,0,0c-0.01,0-0.02-0.01-0.03-0.01c0.04,0.04,0.08,0.07,0.12,0.11
		c0.02,0.02,0.05,0.04,0.07,0.06c0.01,0.01,0.02,0.01,0.03,0.01c0.02,0.01,0.04,0.02,0.05,0.03c0.01,0,0.02,0.01,0.03,0.01
		c0.02,0.01,0.04,0.01,0.05,0.01c0.01,0,0.02,0,0.03,0.01c0.02,0,0.04,0,0.06,0c0.01,0,0.01,0,0.02,0c0,0,0.01,0,0.01,0
		c0.03,0,0.07,0,0.1-0.01c0.01,0,0.01,0,0.02,0c0.03-0.01,0.06-0.01,0.08-0.02c0.01,0,0.02-0.01,0.03-0.01
		c0.03-0.01,0.06-0.02,0.09-0.04c0,0,0.01,0,0.01,0c0.03-0.02,0.06-0.03,0.09-0.05c0.01-0.01,0.02-0.01,0.02-0.02
		c0.02-0.02,0.05-0.03,0.07-0.05c0.01-0.01,0.01-0.01,0.02-0.02c0.03-0.02,0.05-0.05,0.08-0.07c0.01-0.01,0.01-0.01,0.01-0.02
		c0.02-0.02,0.04-0.04,0.05-0.06c0.01-0.01,0.01-0.01,0.02-0.02c0.02-0.03,0.04-0.05,0.05-0.08c0.06-0.12,0.12-0.25,0.16-0.38
		c0.01-0.02,0.01-0.04,0.02-0.07c0.03-0.08,0.07-0.2,0.08-0.24c0.11-0.43-0.01-0.82-0.18-1.21c-0.09-0.21-0.17-0.41-0.31-0.59
		c-0.07-0.1-0.16-0.19-0.24-0.28c-0.02-0.02-0.03-0.03-0.03-0.04c0,0,0,0,0-0.01c0,0,0,0,0,0c0,0,0,0,0,0c0,0,0,0,0,0
		c-0.02-0.03-0.05-0.06-0.07-0.08c-0.02-0.02-0.03-0.04-0.05-0.06c-0.01-0.02-0.03-0.03-0.04-0.05c-0.02-0.02-0.04-0.04-0.06-0.06
		c-0.01-0.01-0.02-0.02-0.03-0.03c-0.03-0.03-0.06-0.06-0.1-0.09c-0.07-0.06-0.14-0.11-0.21-0.16c-0.03-0.02-0.05-0.03-0.08-0.05
		c-0.05-0.03-0.1-0.06-0.15-0.09c-0.03-0.02-0.06-0.03-0.1-0.05c-0.05-0.02-0.09-0.05-0.14-0.07c-0.04-0.01-0.07-0.03-0.11-0.04
		c-0.05-0.02-0.09-0.03-0.14-0.05c-0.04-0.01-0.08-0.02-0.11-0.03c-0.05-0.01-0.09-0.03-0.14-0.04c-0.04-0.01-0.08-0.02-0.12-0.02
		c-0.05-0.01-0.09-0.02-0.14-0.02c-0.04-0.01-0.08-0.01-0.12-0.01c-0.05-0.01-0.09-0.01-0.14-0.01c-0.04,0-0.08,0-0.12-0.01
		c-0.05,0-0.09,0-0.14,0c-0.01,0-0.02,0-0.03,0c-0.04,0-0.07,0-0.11,0c-0.04,0-0.08,0-0.12,0c-0.05,0-0.09,0.01-0.14,0.01
		c-0.04,0-0.08,0.01-0.12,0.01c-0.05,0-0.09,0.01-0.14,0.02c-0.04,0.01-0.08,0.01-0.12,0.02c-0.05,0.01-0.09,0.02-0.14,0.03
		c-0.04,0.01-0.08,0.01-0.11,0.02c-0.05,0.01-0.1,0.02-0.14,0.03c-0.04,0.01-0.07,0.02-0.11,0.03c-0.05,0.01-0.1,0.03-0.15,0.04
		c-0.03,0.01-0.07,0.02-0.1,0.03c-0.05,0.02-0.11,0.03-0.16,0.05c-0.03,0.01-0.05,0.02-0.08,0.03c-0.08,0.03-0.16,0.06-0.23,0.09
		c-1.25,0.49-2.34,1.41-3.24,2.39c-0.51,0.55-0.98,1.16-1.39,1.81c-0.24,0.39-0.47,0.79-0.66,1.2c-0.07,0.14-0.13,0.27-0.19,0.41
		c-0.06,0.14-0.12,0.28-0.18,0.42c-0.11,0.28-0.22,0.56-0.31,0.85c-0.19,0.57-0.33,1.16-0.43,1.76c-0.01,0.08-0.03,0.16-0.04,0.25
		c-0.03,0.17-0.05,0.34-0.07,0.51c-0.01,0.09-0.02,0.17-0.03,0.26c-0.03,0.26-0.05,0.53-0.05,0.79c0,0.16,0,0.32,0.01,0.48
		c-1.09,1.97-2.26,3.91-3.74,5.57c-1.01,1.13-2.05,1.98-3.11,2.5c-0.63,0.32-1.14,0.5-1.74,0.62c-0.32,0.07-0.64,0.11-0.95,0.14
		c-0.05,0-0.09,0.01-0.14,0.01l-0.04,0c-0.03,0-0.06,0-0.07,0c-0.23,0-0.41-0.01-0.57-0.02c-0.34-0.03-0.66-0.07-0.96-0.12
		c-0.06-0.01-0.12-0.03-0.17-0.04l-0.05-0.01c-0.18-0.05-0.36-0.12-0.52-0.18c-0.32-0.12-0.59-0.22-0.84-0.36
		c-0.02-0.01-0.08-0.05-0.13-0.08c-0.03-0.02-0.07-0.04-0.11-0.06c-0.13-0.09-0.25-0.17-0.37-0.27c-0.12-0.1-0.24-0.21-0.36-0.32
		c-0.02-0.02-0.05-0.06-0.09-0.09c-0.04-0.04-0.07-0.08-0.09-0.1c-0.19-0.24-0.35-0.5-0.47-0.76c-0.03-0.06-0.06-0.12-0.08-0.18
		L8.1,33.4c-0.04-0.14-0.08-0.26-0.11-0.4c-0.02-0.09-0.03-0.18-0.05-0.27c-0.01-0.09-0.03-0.17-0.05-0.26c0,0,0,0,0-0.01
		c-0.01-0.09-0.01-0.18-0.02-0.27c-0.01-0.32,0-0.66,0.03-1.01c0.01-0.16,0.03-0.32,0.06-0.49l0.03-0.13
		c0.01-0.06,0.02-0.13,0.04-0.19c0.13-0.61,0.3-1.23,0.52-1.83l0.1-0.24c0.04-0.08,0.07-0.17,0.11-0.25
		c0.13-0.29,0.27-0.57,0.42-0.85c0.15-0.28,0.31-0.55,0.48-0.82l0.05-0.08c0.01-0.02,0.02-0.03,0.03-0.05c0,0,0.01-0.01,0.01-0.01
		l0,0c0,0,0,0,0-0.01c0.01-0.01,0.01-0.02,0.02-0.03c0.02-0.04,0.06-0.08,0.07-0.1c0.06-0.08,0.12-0.16,0.18-0.24
		c0.4-0.54,0.85-1.05,1.33-1.53c0.03-0.03,0.06-0.06,0.09-0.09c0.03-0.03,0.06-0.06,0.08-0.08l0.1-0.09
		c0.1-0.08,0.19-0.17,0.29-0.25c0.25-0.21,0.52-0.42,0.8-0.62c0.29-0.21,0.59-0.41,0.9-0.59c0,0,0.01-0.01,0.02-0.01l0.02-0.01
		c0.05-0.03,0.1-0.06,0.16-0.09c0.15-0.08,0.29-0.15,0.42-0.22c0.34-0.17,0.69-0.31,1.04-0.45c0.32-0.13,0.65-0.26,0.96-0.41
		c0.79-0.38,1.27-1.16,1.19-1.95c-0.04-0.37-0.21-0.7-0.49-0.92c-0.3-0.23-0.68-0.33-1.09-0.27c-0.19,0.03-0.39,0.07-0.62,0.12
		c-0.02,0-0.03,0-0.05,0l-0.32-0.01c-0.37-0.01-0.76-0.03-1.14-0.05c-0.69-0.05-1.58-0.15-2.37-0.41c-0.16-0.05-0.31-0.11-0.46-0.18
		c-0.09-0.04-0.19-0.09-0.27-0.13c-0.01-0.01-0.04-0.02-0.06-0.04c-0.03-0.02-0.06-0.04-0.08-0.05c-0.13-0.09-0.25-0.19-0.34-0.26
		l-0.04-0.03c-0.05-0.04-0.1-0.08-0.14-0.13c-0.01-0.01-0.03-0.03-0.05-0.05c-0.06-0.06-0.08-0.09-0.1-0.11
		c-0.08-0.11-0.16-0.23-0.22-0.35c-0.04-0.07-0.08-0.15-0.12-0.24l0-0.02c-0.04-0.13-0.09-0.31-0.13-0.49
		c-0.02-0.07-0.03-0.15-0.04-0.23c0-0.02,0-0.03-0.01-0.05l0-0.02c0-0.01,0-0.03,0-0.05c-0.01-0.31,0-0.64,0.04-1.01l0-0.02
		c0,0,0-0.01,0-0.01c0.02-0.06,0.03-0.12,0.04-0.18c0.01-0.04,0.02-0.08,0.03-0.13C9.41,14,9.46,13.81,9.53,13.6
		c0.04-0.12,0.08-0.25,0.12-0.37l0.03-0.1l0-0.01c0.03-0.05,0.05-0.11,0.07-0.16c0.02-0.04,0.04-0.09,0.06-0.13
		c0.15-0.33,0.33-0.66,0.52-0.98c0.07-0.12,0.14-0.23,0.22-0.34l0.07-0.11l0.01-0.02c0.03-0.04,0.05-0.07,0.08-0.11
		c0.02-0.03,0.05-0.06,0.07-0.1c0.26-0.33,0.5-0.63,0.75-0.91l0.1-0.11c0.18-0.2,0.37-0.41,0.56-0.58c0.03-0.03,0.07-0.05,0.09-0.07
		c0.08-0.07,0.16-0.14,0.24-0.21c0.16-0.14,0.33-0.27,0.49-0.4c0.28-0.21,0.57-0.43,0.87-0.63c0.15-0.1,0.31-0.21,0.48-0.31
		c0.07-0.04,0.14-0.09,0.22-0.13c0.04-0.02,0.09-0.05,0.12-0.07c0.83-0.45,1.49-0.76,2.14-1c0.16-0.06,0.33-0.12,0.49-0.17
		l0.09-0.03c0.01,0,0.04-0.01,0.06-0.02l0.07-0.02c0.05-0.01,0.09-0.03,0.14-0.04c0.44-0.12,0.89-0.21,1.31-0.27
		c0.18-0.03,0.36-0.05,0.53-0.06c0,0,0.01,0,0.01,0c0.05,0,0.11-0.01,0.19-0.01c0.05,0,0.12,0,0.14,0c0.42,0,0.83,0.03,1.22,0.09
		c0.08,0.01,0.16,0.03,0.24,0.04c0.05,0.02,0.13,0.03,0.23,0.05c0.05,0.02,0.1,0.03,0.14,0.04c0.01,0,0.02,0.01,0.02,0.01
		c0,0,0,0,0,0c0.08,0.03,0.16,0.05,0.24,0.08c0.16,0.06,0.32,0.12,0.47,0.2c0.09,0.04,0.19,0.09,0.29,0.15
		c0.04,0.02,0.08,0.04,0.12,0.07l0.06,0.04c0.25,0.18,0.48,0.36,0.67,0.57c0.01,0.02,0.03,0.05,0.05,0.08
		c0.02,0.02,0.03,0.05,0.04,0.06c0.05,0.07,0.09,0.14,0.13,0.22c0.01,0.02,0.02,0.05,0.04,0.08c0.01,0.02,0.02,0.04,0.03,0.06
		c0.04,0.11,0.06,0.2,0.08,0.29c0.01,0.03,0.02,0.13,0.03,0.19c0.01,0.06,0.01,0.11,0.03,0.16c0.01,0.2,0,0.36-0.01,0.51
		c0,0.02,0,0.05-0.01,0.09c0,0.04-0.01,0.07-0.01,0.09l-0.01,0.04c0,0.02-0.01,0.05-0.01,0.07c-0.04,0.19-0.09,0.38-0.15,0.57
		c0,0.01-0.01,0.04-0.02,0.06c-0.01,0.03-0.02,0.06-0.03,0.09c-0.01,0.02-0.03,0.05-0.04,0.07c-0.07,0.16-0.15,0.32-0.24,0.47
		c-0.02,0.04-0.05,0.08-0.07,0.12c-0.02,0.03-0.04,0.06-0.05,0.09c-0.02,0.03-0.04,0.07-0.06,0.1c-0.07,0.08-0.14,0.17-0.22,0.25
		c-0.03,0.03-0.05,0.06-0.08,0.08c-0.05,0.06-0.11,0.12-0.16,0.17c-0.01,0.01-0.03,0.03-0.04,0.04l-0.05,0.05
		c-0.15,0.12-0.29,0.24-0.44,0.34c-0.04,0.03-0.08,0.05-0.12,0.08l-0.08,0.06l-0.04,0.02c-0.08,0.04-0.16,0.08-0.25,0.12
		c-0.12,0.06-0.24,0.12-0.37,0.17c-0.2,0.09-0.41,0.17-0.61,0.24c-0.04,0.01-0.08,0.03-0.12,0.04c-0.04,0.01-0.09,0.03-0.14,0.05
		c-0.02,0.01-0.03,0.01-0.05,0.02c-0.02,0-0.03,0.01-0.06,0.01c-0.39,0.1-0.86,0.21-1.35,0.27c-0.22,0.03-0.44,0.05-0.66,0.07
		c-0.08,0.01-0.15,0.01-0.23,0.02l-0.11,0.01c-0.03,0-0.06,0-0.08,0.01c-0.02,0-0.05,0-0.08,0c-0.54,0-0.98-0.01-1.38-0.03
		c-0.28-0.02-0.57-0.05-0.87-0.08c-0.84-0.09-1.71-0.19-2.52,0.03c-0.61,0.16-1.04,0.53-1.25,1.06c-0.19,0.47-0.18,1.13,0.28,1.5
		l0.06,0.05c0.22,0.18,0.45,0.36,0.73,0.46c0.24,0.09,0.5,0.13,0.75,0.17c0.07,0.01,0.14,0.02,0.21,0.03
		c0.48,0.08,1.05,0.17,1.61,0.21c1.08,0.08,2.14,0.06,3.17-0.06c1.3-0.15,3.77-0.63,5.62-2.18c1.73-1.46,2.79-3.44,2.97-5.57
		c0.11-1.23-0.17-2.43-0.76-3.3c-0.58-0.85-1.47-1.56-2.57-2.05C19.52,1.4,14.43,4.2,12.45,5.5c-3.74,2.45-6.1,5.98-6.33,9.46
		c-0.17,2.55,1.06,4.67,3.13,5.4c0.48,0.17,1,0.29,1.57,0.36c-0.97,0.73-1.87,1.57-2.66,2.52c-2.1,2.5-3.39,5.52-3.62,8.5
		c-0.09,1.14-0.04,3.3,1.28,4.97c1.07,1.36,2.61,2.26,4.33,2.52C10.53,39.29,10.91,39.32,11.29,39.32 M42.65,17.74
		c-0.01,0.01-0.02,0.02-0.03,0.03c-0.28-0.59-0.51-1.22-0.53-1.87c-0.01-0.43,0.06-0.78,0.21-1.06c0.02-0.04,0.04-0.08,0.07-0.12
		l0,0c0.02-0.03,0.06-0.07,0.14-0.17l0.01-0.01c0.01-0.01,0.02-0.02,0.02-0.03c0.02-0.01,0.04-0.02,0.06-0.04
		c0.04-0.03,0.07-0.05,0.09-0.06c0.04-0.02,0.09-0.04,0.13-0.06l0.01,0c0.05-0.01,0.1-0.02,0.14-0.02c0.02,0,0.04,0,0.06,0
		c0.25,0.02,0.25,0.02,0.47,0.13c0.11,0.06,0.37,0.24,0.39,0.68C43.95,16.29,43.04,17.34,42.65,17.74 M54.92,31.11
		c-0.18,1.08-0.36,2.03-0.54,2.89c-0.44,2.07-0.92,3.74-1.49,5.27c-0.02,0.06-0.04,0.11-0.07,0.17l-0.06,0.16
		c-0.07,0.17-0.14,0.34-0.22,0.51c-0.16,0.35-0.33,0.7-0.5,1.04c-0.18,0.34-0.35,0.65-0.53,0.94c-0.03,0.04-0.06,0.09-0.09,0.13
		l-0.08,0.12c-0.08,0.1-0.15,0.21-0.24,0.31c-0.12,0.16-0.26,0.3-0.4,0.45c-0.07,0.08-0.14,0.15-0.21,0.23
		c-0.03,0.02-0.06,0.05-0.07,0.06c-0.08,0.07-0.15,0.12-0.21,0.17c-0.03,0.02-0.09,0.06-0.15,0.09c-0.05,0.03-0.09,0.05-0.11,0.07
		c-0.21,0.11-0.42,0.2-0.63,0.27L49.28,44c-0.03,0.01-0.06,0.02-0.09,0.02c-0.15,0.03-0.29,0.06-0.43,0.07c-0.04,0-0.08,0-0.12-0.01
		l-0.11-0.01l-0.01,0c-0.02,0-0.04-0.01-0.05-0.01c-0.08-0.03-0.17-0.07-0.25-0.11c-0.03-0.03-0.08-0.06-0.12-0.09
		c-0.05-0.03-0.09-0.07-0.11-0.08c-0.3-0.26-0.5-0.59-0.61-1c-0.13-0.49-0.13-1.05,0-1.67c0.23-1.11,0.57-1.98,1.21-3.09
		c0.51-0.9,1.1-1.69,1.95-2.67c0.7-0.8,1.52-1.64,2.5-2.55C53.66,32.23,54.29,31.66,54.92,31.11"/>
	<path class="st0" d="M24.26,39.24c0.35-0.08,0.7-0.15,1.06-0.22c0.71-0.14,1.42-0.27,2.13-0.39c1.07-0.17,2.14-0.32,3.22-0.44
		c0.28-0.03,0.56-0.06,0.84-0.08c0.28-0.02,0.56-0.05,0.84-0.07c0.25-0.02,0.5-0.03,0.74-0.04c0.02,0,0.05,0,0.08,0
		c0.02,0,0.05,0,0.07,0c0.01,0,0.02,0,0.02,0c0.01,0,0.02,0,0.03,0c0.04,0,0.06,0,0.07,0c0,0,0,0,0,0h0c0.15,0,0.29-0.01,0.44-0.01
		c0.13,0,0.25,0,0.38,0c0.05,0,0.1,0,0.14,0c0.1,0,0.19,0,0.29,0.01c0.04,0,0.08,0,0.12,0c0.13,0,0.27,0.01,0.4,0.01
		c0.04,0,0.07,0,0.11,0c0.13,0.01,0.26,0.01,0.39,0.02c0.1,0,0.2,0.01,0.3,0.01c0.05,0,0.1,0,0.15,0.01c0.1,0,0.19,0.01,0.29,0.01
		c0.04,0,0.09,0,0.13,0c0.14,0,0.27,0.01,0.41,0.01c0,0,0,0,0,0c0.15,0,0.3,0,0.45-0.01c0.3-0.01,0.61-0.08,0.88-0.22
		c0.45-0.22,0.81-0.61,0.93-1.14c0.03-0.15,0.05-0.29,0.05-0.43c0-0.14-0.02-0.27-0.06-0.39c-0.13-0.4-0.46-0.7-0.97-0.8
		c-0.12-0.02-0.24-0.04-0.35-0.06c-0.02,0-0.05-0.01-0.07-0.01c-0.12-0.02-0.23-0.03-0.35-0.04c-0.02,0-0.04,0-0.06-0.01
		c-0.11-0.01-0.22-0.02-0.33-0.02c-0.02,0-0.03,0-0.05,0c-0.12-0.01-0.24-0.01-0.36-0.01c-0.03,0-0.05,0-0.08,0
		c-0.12,0-0.23,0-0.35,0c0,0-0.01,0-0.01,0c-0.19,0-0.38,0-0.58,0.01c-0.22,0-0.43,0.01-0.65,0.01c-0.28,0-0.55,0.01-0.83,0.02
		c-0.55,0.02-1.1,0.05-1.65,0.08c-0.28,0.02-0.55,0.04-0.82,0.07c-1.31,0.12-2.6,0.33-3.87,0.6c-0.77,0.17-1.53,0.36-2.29,0.57
		c-0.26,0.07-0.52,0.15-0.78,0.23c-0.78,0.23-1.55,0.48-2.32,0.74c-0.51,0.18-1.02,0.36-1.53,0.55c-1.01,0.38-2.01,0.79-3,1.22
		c-1.49,0.65-2.95,1.36-4.38,2.12c-0.53,0.28-1.06,0.57-1.59,0.87c-0.53,0.3-1.05,0.6-1.56,0.92c-1.03,0.63-2.03,1.31-2.98,2.05
		c0,0,0,0,0,0C7.32,44.99,7.31,45,7.29,45.01c0,0-0.01,0.01-0.01,0.02c-0.01,0.01-0.02,0.02-0.02,0.03c0,0.01-0.01,0.01-0.01,0.02
		c-0.01,0.01-0.01,0.02-0.02,0.03c0,0.01-0.01,0.01-0.01,0.02c0,0.01-0.01,0.02-0.01,0.03c0,0.01,0,0.01-0.01,0.02
		c0,0.01-0.01,0.02-0.01,0.03c0,0.01,0,0.01,0,0.02c0,0.01,0,0.03,0,0.04c0,0,0,0.01,0,0.01c0,0.02,0,0.04,0,0.05c0,0,0,0.01,0,0.01
		c0,0.01,0,0.03,0.01,0.04c0,0.01,0,0.01,0.01,0.02c0,0.01,0.01,0.02,0.01,0.03c0,0.01,0.01,0.01,0.01,0.02
		c0,0.01,0.01,0.02,0.02,0.02c0,0.01,0.01,0.01,0.01,0.01c0.01,0.01,0.01,0.01,0.02,0.02c0,0,0.01,0.01,0.01,0.01
		c0.01,0.01,0.02,0.01,0.03,0.02c0,0,0.01,0.01,0.01,0.01c0.01,0.01,0.03,0.01,0.05,0.02c0,0,0,0,0,0c0.01,0,0.03,0,0.04,0
		c0,0,0,0,0,0c0.01,0,0.03,0,0.04-0.01c0.01,0,0.01,0,0.02,0c0.02-0.01,0.05-0.01,0.07-0.02c0,0,0,0,0,0
		c1.19-0.49,2.35-1.03,3.51-1.57c0.7-0.32,1.4-0.65,2.1-0.95c1.43-0.63,2.87-1.22,4.33-1.76c0.49-0.18,0.97-0.36,1.47-0.53
		c0.47-0.17,0.95-0.32,1.43-0.47c-0.09,0.58-0.15,1.17-0.24,1.74c-0.15,0.96-0.31,1.91-0.46,2.87c-0.08,0.48-0.17,0.97-0.26,1.45
		c-0.09,0.48-0.19,0.96-0.28,1.44c-0.2,0.96-0.41,1.92-0.62,2.88c-0.75,3.32-1.7,6.6-2.85,9.81c-0.16,0.46-0.33,0.92-0.5,1.37
		c-0.1,0.26-0.2,0.52-0.3,0.78c-0.04,0.09-0.07,0.19-0.11,0.28c-0.01,0.02-0.03,0.08-0.05,0.13c-0.01,0.03-0.03,0.07-0.04,0.09
		c-0.2,0.5-0.41,1.01-0.63,1.51c-0.11,0.26-0.22,0.51-0.34,0.77c-0.11,0.26-0.23,0.51-0.34,0.77c-0.07,0.15-0.15,0.31-0.22,0.46
		c-0.1,0.21-0.19,0.41-0.26,0.62c-0.02,0.07-0.04,0.14-0.06,0.21c-0.06,0.28-0.07,0.57,0.03,0.88c0,0,0,0,0,0
		c0.01,0.04,0.03,0.07,0.04,0.1c0,0.01,0.01,0.02,0.01,0.03c0.01,0.03,0.02,0.05,0.04,0.07c0,0.01,0.01,0.02,0.01,0.03
		c0.02,0.03,0.04,0.06,0.06,0.09c0,0,0.01,0.01,0.01,0.01c0.02,0.03,0.04,0.05,0.06,0.07c0.01,0.01,0.01,0.02,0.02,0.02
		c0.02,0.02,0.04,0.04,0.06,0.06c0.01,0.01,0.01,0.01,0.02,0.02c0.03,0.02,0.05,0.05,0.08,0.07c0.01,0,0.01,0.01,0.02,0.01
		c0.02,0.02,0.05,0.03,0.07,0.05c0.01,0.01,0.02,0.01,0.03,0.02c0.02,0.01,0.05,0.03,0.07,0.04c0.01,0,0.01,0.01,0.02,0.01
		c0.03,0.01,0.06,0.03,0.1,0.04c0.01,0,0.02,0,0.02,0.01c0.03,0.01,0.05,0.02,0.08,0.02c0.01,0,0.02,0,0.03,0.01
		c0.03,0.01,0.06,0.01,0.09,0.01c0.01,0,0.01,0,0.02,0c0.03,0,0.06,0,0.09,0c0,0,0.01,0,0.01,0c0.02,0,0.05,0,0.07,0
		c0.02,0,0.04,0,0.05,0c0.02,0,0.05-0.01,0.07-0.01c0.02,0,0.03-0.01,0.05-0.01c0.03-0.01,0.05-0.02,0.08-0.03
		c0.01,0,0.03-0.01,0.04-0.01c0.04-0.02,0.08-0.03,0.12-0.05c0,0,0,0,0,0c0.11-0.06,0.23-0.12,0.33-0.19
		c0.32-0.2,0.59-0.43,0.78-0.78c0.03-0.06,0.06-0.11,0.09-0.17c0.08-0.17,0.16-0.35,0.23-0.52c0.21-0.46,0.42-0.93,0.62-1.4
		c0.1-0.24,0.21-0.48,0.31-0.73c0.3-0.73,0.6-1.46,0.88-2.2c0.54-1.4,1.05-2.82,1.51-4.26c0.15-0.48,0.3-0.96,0.43-1.44
		c0.49-1.7,0.91-3.42,1.27-5.14c0.15-0.74,0.3-1.48,0.42-2.23c0.09-0.5,0.17-0.99,0.24-1.49s0.14-1,0.21-1.5
		c0.06-0.5,0.12-1,0.17-1.51c0.08-0.81,0.15-1.61,0.19-2.42c0.01-0.27,0.02-0.54,0.03-0.81c0.01-0.2,0.01-0.4,0.02-0.61
		c0-0.1,0.01-0.2,0.01-0.31c0.01-0.21,0.01-0.41,0.01-0.62c0-0.31,0-0.62-0.02-0.93C22.86,39.57,23.56,39.39,24.26,39.24"/>
	<path class="st0" d="M77.5,52.65c0-0.01,0-0.01,0-0.02c0-0.01,0-0.03,0-0.04c0-0.01,0-0.01-0.01-0.02c0-0.01-0.01-0.02-0.01-0.03
		c0-0.01-0.01-0.01-0.01-0.02c0-0.01-0.01-0.02-0.02-0.02c0-0.01-0.01-0.01-0.02-0.01c-0.01-0.01-0.01-0.01-0.02-0.02
		c-0.01,0-0.01-0.01-0.02-0.01c-0.01,0-0.01-0.01-0.02-0.01c-0.01,0-0.01,0-0.02-0.01c-0.01,0-0.02-0.01-0.02-0.01
		c-0.01,0-0.01,0-0.02,0c-0.01,0-0.02,0-0.03,0c0,0,0,0-0.01,0c-0.01,0-0.01,0-0.02,0c-0.01,0-0.02,0-0.02,0
		c-0.01,0-0.02,0-0.03,0.01c-0.01,0-0.02,0-0.02,0.01c-0.01,0-0.02,0.01-0.03,0.01c-0.01,0-0.01,0.01-0.02,0.01
		c-0.01,0-0.02,0.01-0.02,0.01c-0.01,0-0.01,0.01-0.02,0.01c-0.01,0.01-0.02,0.01-0.02,0.02c-0.01,0.01-0.01,0.01-0.02,0.02
		c-0.01,0.01-0.01,0.02-0.02,0.02c0,0.01-0.01,0.01-0.01,0.02C77.01,52.57,77,52.59,77,52.6c0,0.01-0.01,0.01-0.01,0.02
		c-0.01,0.02-0.02,0.04-0.02,0.06c-0.2,0.77-0.53,1.49-0.96,2.16c-0.06,0.1-0.12,0.19-0.19,0.28c-0.06,0.08-0.11,0.16-0.17,0.24
		c-0.18,0.23-0.37,0.45-0.58,0.66c-0.14,0.14-0.3,0.25-0.47,0.34c-0.08,0.04-0.17,0.09-0.26,0.12c-0.09,0.04-0.18,0.08-0.27,0.12
		c-0.06,0.03-0.13,0.05-0.19,0.08c0.23-0.71,0.41-1.42,0.55-2.14c0.23-1.2,0.35-2.42,0.33-3.64c0-0.19-0.01-0.38-0.01-0.57
		c-0.02-0.45-0.05-0.9-0.12-1.35c-0.01-0.06-0.02-0.13-0.03-0.19c-0.02-0.13-0.05-0.25-0.08-0.38c-0.05-0.19-0.1-0.37-0.17-0.55
		c-0.05-0.13-0.1-0.25-0.16-0.37c-0.03-0.06-0.06-0.12-0.09-0.18c-0.34-0.65-0.84-1.2-1.52-1.49c-0.12-0.05-0.25-0.1-0.39-0.13
		c-0.07-0.02-0.14-0.03-0.21-0.04c-0.02,0-0.04-0.01-0.07-0.01c-0.05-0.01-0.09-0.01-0.14-0.02c-0.03,0-0.05,0-0.08-0.01
		c-0.04,0-0.09-0.01-0.13-0.01c-0.03,0-0.05,0-0.08,0c-0.02,0-0.03,0-0.05,0c-0.03,0-0.07,0-0.1,0c-0.02,0-0.04,0-0.06,0
		c-0.07,0-0.14,0.01-0.2,0.02c-0.01,0-0.02,0-0.04,0c-0.06,0.01-0.11,0.01-0.17,0.02c-0.02,0-0.04,0.01-0.07,0.01
		c-0.05,0.01-0.09,0.02-0.14,0.03c-0.02,0-0.05,0.01-0.07,0.02c-0.05,0.01-0.1,0.03-0.15,0.04c-0.02,0-0.03,0.01-0.05,0.01
		c-0.07,0.02-0.13,0.04-0.2,0.06c-0.02,0.01-0.03,0.01-0.05,0.02c-0.05,0.02-0.1,0.03-0.15,0.05c-0.02,0.01-0.04,0.02-0.07,0.03
		c-0.04,0.02-0.09,0.04-0.13,0.06c-0.02,0.01-0.04,0.02-0.06,0.03c-0.05,0.02-0.11,0.05-0.16,0.07c-0.01,0-0.02,0.01-0.03,0.01
		c-0.06,0.03-0.12,0.06-0.18,0.1c-0.02,0.01-0.03,0.02-0.05,0.03c-0.04,0.02-0.09,0.05-0.13,0.07c-0.02,0.01-0.04,0.02-0.06,0.04
		c-0.04,0.03-0.08,0.05-0.12,0.08c-0.02,0.01-0.04,0.02-0.05,0.03c-0.06,0.04-0.11,0.08-0.17,0.11c-1.42,1.02-2.26,2.73-2.56,4.42
		c-0.02,0.09-0.03,0.18-0.05,0.28c-0.06-0.09-0.14-0.17-0.22-0.23c-0.04-0.03-0.09-0.06-0.14-0.08c-0.02-0.01-0.05-0.02-0.07-0.03
		c-0.02-0.01-0.05-0.02-0.07-0.02c-0.04-0.01-0.07-0.01-0.11-0.02c-0.01,0-0.02,0-0.03,0c-0.03,0-0.05,0-0.08,0
		c-0.01,0-0.01,0-0.02,0c0,0,0,0-0.01,0c-0.04,0-0.08,0-0.12,0.01c-0.01,0-0.02,0-0.02,0c-0.04,0.01-0.08,0.01-0.11,0.02
		c0,0-0.01,0-0.01,0c-0.04,0.01-0.07,0.02-0.11,0.04c-0.01,0-0.01,0-0.02,0.01c-0.04,0.01-0.07,0.03-0.1,0.05
		c-0.01,0-0.01,0.01-0.02,0.01c-0.03,0.02-0.07,0.04-0.1,0.06c0,0,0,0,0,0c-0.03,0.02-0.07,0.04-0.1,0.07
		c-0.01,0-0.01,0.01-0.02,0.01c-0.03,0.02-0.06,0.05-0.09,0.08c-0.01,0.01-0.01,0.01-0.02,0.02c-0.03,0.03-0.06,0.06-0.09,0.08
		c-0.25,0.24-0.47,0.49-0.68,0.76c-0.05,0.07-0.1,0.13-0.15,0.2c-0.1,0.14-0.19,0.28-0.27,0.42c-0.26,0.43-0.48,0.89-0.67,1.36
		c-0.1,0.23-0.19,0.47-0.27,0.71c-0.01,0.03-0.02,0.07-0.04,0.11c-0.22,0.42-0.45,0.85-0.7,1.26c-0.66,1.09-1.38,2.15-2.22,3.11
		c-0.09,0.1-0.17,0.2-0.26,0.3c-0.05,0.05-0.09,0.1-0.14,0.15c-0.05,0.05-0.1,0.09-0.15,0.14c-0.05,0.04-0.1,0.09-0.15,0.13
		c-0.16,0.12-0.33,0.21-0.53,0.26c-0.05,0.01-0.09,0.02-0.14,0.03c-0.02,0-0.03,0-0.05,0c-0.03,0-0.07,0.01-0.1,0.01
		c-0.01,0-0.01,0-0.01,0c-0.04,0-0.09,0-0.13-0.01c0,0-0.01,0-0.01,0c-0.04-0.01-0.09-0.02-0.13-0.04c0,0-0.02-0.02-0.03-0.03
		c-0.02-0.02-0.03-0.03-0.04-0.04c0-0.01-0.01-0.02-0.01-0.03c-0.01-0.04-0.02-0.08-0.03-0.09c-0.01-0.09,0-0.18,0.01-0.26
		c0,0.01,0,0.01,0,0.01c0,0,0,0,0,0c0,0,0,0,0,0c0,0,0,0,0-0.01c0,0,0-0.01,0-0.01c0,0,0-0.01,0-0.02c0,0,0-0.01,0-0.01
		c0-0.01,0-0.01,0-0.02c0-0.01,0-0.01,0-0.02c0-0.01,0-0.02,0.01-0.03c0-0.01,0-0.02,0-0.03c0-0.01,0-0.01,0-0.02
		c0-0.01,0-0.02,0-0.02c0,0,0-0.01,0-0.01c0-0.01,0-0.02,0-0.02c0,0,0,0,0,0c0.08-0.33,0.19-0.65,0.28-0.98
		c0.19-0.68,0.41-1.34,0.62-2.01c0.41-1.31,0.82-2.62,1.14-3.96c0.09-0.36,0.16-0.72,0.23-1.08c0.07-0.36,0.13-0.72,0.19-1.09
		c0.09-0.62,0.05-1.27-0.27-1.82c-0.03-0.04-0.05-0.09-0.08-0.13c-0.01-0.01-0.02-0.02-0.03-0.04c-0.02-0.03-0.05-0.06-0.07-0.09
		c-0.01-0.01-0.02-0.02-0.03-0.03c-0.03-0.03-0.07-0.07-0.1-0.1c0,0,0,0-0.01-0.01c-0.04-0.03-0.08-0.06-0.12-0.09
		c-0.01-0.01-0.02-0.02-0.04-0.02c-0.03-0.02-0.06-0.04-0.09-0.06c-0.01-0.01-0.03-0.02-0.04-0.02c-0.04-0.02-0.08-0.04-0.12-0.06
		c0,0-0.01,0-0.01-0.01c-0.05-0.02-0.09-0.04-0.14-0.06c-0.01-0.01-0.03-0.01-0.04-0.01c-0.04-0.01-0.07-0.02-0.11-0.04
		c-0.01,0-0.03-0.01-0.04-0.01c-0.04-0.01-0.08-0.02-0.13-0.03c-0.01,0-0.01,0-0.02,0c-0.05-0.01-0.1-0.02-0.15-0.03
		c-0.01,0-0.03,0-0.04-0.01c-0.04,0-0.08-0.01-0.11-0.01c-0.02,0-0.03,0-0.05,0c-0.04,0-0.08,0-0.13,0c-0.01,0-0.02,0-0.03,0
		c0,0,0,0-0.01,0c-0.03,0-0.06,0-0.09,0c-0.02,0-0.05,0-0.07,0c-0.03,0-0.07,0.01-0.1,0.01c-0.02,0-0.04,0-0.07,0.01
		c-0.04,0-0.07,0.01-0.11,0.02c-0.02,0-0.04,0.01-0.05,0.01c-0.05,0.01-0.11,0.02-0.16,0.04c-1.04,0.28-1.86,1.14-2.55,1.93
		c-0.12,0.13-0.23,0.27-0.34,0.41c-0.56,0.7-1.03,1.47-1.49,2.24c-0.18,0.31-0.36,0.62-0.54,0.93c-0.07,0.12-0.14,0.25-0.21,0.37
		c0.06-0.28,0.13-0.56,0.19-0.84c0.07-0.28,0.14-0.56,0.21-0.84c0.07-0.27,0.14-0.54,0.22-0.8c0.07-0.27,0.15-0.53,0.23-0.8
		c0.17-0.59,0.53-1.36,0.47-1.97c-0.01-0.14-0.04-0.27-0.07-0.4c-0.02-0.06-0.04-0.12-0.06-0.18c-0.05-0.11-0.11-0.22-0.2-0.31
		c-0.04-0.04-0.09-0.09-0.14-0.12c-0.03-0.02-0.05-0.04-0.08-0.05c-0.09-0.05-0.18-0.09-0.3-0.11c-0.04-0.01-0.09-0.02-0.13-0.02
		c-0.01,0-0.02,0-0.04,0c-0.04,0-0.08-0.01-0.12-0.01c0,0-0.01,0-0.01,0c0,0,0,0,0,0c-0.05,0-0.1,0-0.16,0.01c-0.01,0-0.02,0-0.03,0
		c-0.05,0.01-0.1,0.02-0.15,0.03c-0.01,0-0.01,0-0.02,0.01c-0.05,0.01-0.1,0.03-0.14,0.04c-0.01,0-0.01,0-0.02,0.01
		c-0.05,0.02-0.1,0.04-0.15,0.06c-0.01,0-0.02,0.01-0.03,0.01c-0.05,0.02-0.09,0.05-0.14,0.08c0,0-0.01,0.01-0.01,0.01
		c-0.04,0.03-0.08,0.06-0.12,0.09c-0.01,0.01-0.02,0.01-0.02,0.02c-0.04,0.03-0.08,0.07-0.11,0.1c-0.01,0.01-0.01,0.01-0.02,0.02
		c-0.04,0.04-0.07,0.08-0.1,0.12c-0.3,0.41-0.48,0.82-0.61,1.32c-0.07,0.28-0.15,0.56-0.22,0.84c-0.14,0.59-0.26,1.18-0.37,1.77
		c-0.06,0.31-0.11,0.62-0.17,0.94c-0.14,0.83-0.26,1.67-0.35,2.51c-0.44,0.88-0.93,1.74-1.45,2.56c-0.05,0.08-0.11,0.17-0.16,0.26
		c-0.68,1.08-1.52,2.41-2.85,2.5c-0.43,0.03-0.89-0.15-1.18-0.45c-0.01-0.01-0.02-0.03-0.03-0.04c-0.02-0.02-0.03-0.04-0.04-0.05
		c-0.01-0.02-0.02-0.04-0.03-0.06c-0.02-0.04-0.04-0.08-0.06-0.12c0-0.01-0.01-0.03-0.01-0.04c-0.01-0.02-0.01-0.03-0.01-0.05
		c-0.01-0.05-0.02-0.1-0.03-0.15c-0.01-0.03-0.01-0.07-0.02-0.1l0-0.03c0-0.05-0.01-0.1-0.01-0.15c0-0.24,0.01-0.5,0.04-0.79
		c0-0.03,0.01-0.09,0.02-0.15c0.01-0.05,0.01-0.09,0.01-0.1c0.03-0.16,0.05-0.3,0.08-0.43c0.12-0.57,0.28-1.16,0.53-1.93
		c0.12-0.35,0.24-0.72,0.38-1.09c0.06-0.15,0.12-0.31,0.18-0.46l0.02-0.04c0.01-0.03,0.02-0.06,0.03-0.07
		c0.04-0.08,0.07-0.17,0.11-0.25c0.1-0.22,0.21-0.45,0.33-0.68c0.24-0.48,0.5-0.99,0.61-1.51c0.13-0.61-0.08-1.15-0.53-1.4
		c-0.12-0.14-0.29-0.22-0.49-0.25c-0.34-0.04-0.61,0.04-0.87,0.12c-0.05,0.02-0.1,0.03-0.15,0.05c-0.18,0.05-0.35,0.11-0.51,0.16
		c-0.17,0.05-0.33,0.11-0.47,0.14c-0.27,0.07-0.52,0.12-0.75,0.16c0.33-0.51,0.59-1.05,0.76-1.59c0.22-0.68,0.28-1.39,0.19-2.25
		c-0.04-0.44-0.13-0.8-0.39-1.14c-0.3-0.4-0.73-0.62-1.29-0.66c-2.56-0.18-3.56,2.67-3.8,3.55c-0.48,1.72-0.08,3.77,1.61,4.45
		c-0.42,1.29-0.89,2.43-1.44,3.47c-0.32,0.61-0.66,1.2-1.01,1.74c-0.28,0.44-0.63,0.99-1.08,1.34c-0.44,0.35-0.85,0.57-1.12,0.59
		c-0.04-0.01-0.09-0.02-0.13-0.03c-0.02,0-0.03,0-0.04,0c-0.01-0.01-0.03-0.03-0.05-0.05c0,0,0,0,0-0.01
		c-0.02-0.04-0.04-0.07-0.07-0.11c-0.01-0.01-0.02-0.03-0.03-0.04c-0.01-0.09-0.03-0.18-0.04-0.27c-0.01-0.08-0.02-0.15-0.03-0.22
		c0-0.04-0.01-0.09-0.01-0.13c-0.01-0.24,0-0.48,0.02-0.76c0.02-0.27,0.06-0.54,0.09-0.78c0.02-0.14,0.04-0.29,0.06-0.42
		c0.01-0.07,0.02-0.13,0.03-0.2c0.12-0.65,0.28-1.3,0.47-1.95c0.05-0.15,0.11-0.31,0.17-0.48c0.22-0.59,0.48-1.27,0.25-1.87
		c-0.19-0.51-0.54-0.82-0.99-0.89c-0.04-0.03-0.08-0.04-0.13-0.04l-0.34,0.01c-0.01,0-0.01,0-0.02,0c-0.28,0.03-0.52,0.17-0.75,0.32
		c-0.3,0.19-0.57,0.49-0.77,0.82c-0.21,0.36-0.34,0.75-0.46,1.14l-0.04,0.11c-0.17,0.52-0.33,1.09-0.47,1.72
		c-0.24,0.47-0.46,0.87-0.69,1.23c-0.69,1.07-1.62,1.96-2.79,2.64c-0.09,0.05-0.37,0.21-0.56,0.24c0,0-0.01,0-0.01,0
		c-0.02,0-0.05-0.01-0.05-0.01c-0.01,0-0.03-0.02-0.05-0.03l-0.03-0.02c-0.02-0.02-0.04-0.03-0.05-0.05
		c-0.02-0.04-0.05-0.09-0.09-0.14c-0.01-0.02-0.01-0.04-0.02-0.06c-0.01-0.02-0.01-0.03-0.01-0.04l-0.01-0.04
		c-0.02-0.08-0.03-0.13-0.03-0.16c-0.03-0.27,0.03-0.72,0.06-0.99c0.05-0.41,0.06-0.51,0.13-0.91c0.07-0.41,0.15-0.79,0.24-1.16
		c0.18-0.75,0.39-1.49,0.64-2.23l0.01-0.02c0.14-0.41,0.28-0.84,0.44-1.26l0.08-0.21c0-0.01,0.07-0.19,0.1-0.25
		c0.07-0.16,0.13-0.32,0.2-0.48c0.1-0.22,0.2-0.44,0.3-0.66c0.34-0.72,0.69-1.47,0.77-2.3c0.05-0.5-0.19-0.93-0.64-1.16
		c-0.51-0.26-1.16-0.18-1.57,0.18c-0.87,0.78-1.31,1.74-1.72,2.75c-0.33,0.82-0.71,1.79-1,2.8c-0.51,1.8-0.84,3.7-0.97,5.51
		c-0.08,1.2,0.2,2.16,0.84,2.87c0.45,0.5,1.07,0.76,1.72,0.76c0.37,0,0.75-0.09,1.12-0.26c0.68-0.32,1.38-0.85,2.2-1.67
		c0.44-0.44,0.78-0.98,1.11-1.51c0.03,0.53,0.12,1.02,0.27,1.46c0.24,0.73,0.84,1.59,1.78,1.84c0.85,0.23,1.8,0.01,2.67-0.6
		c0.69-0.49,1.15-1.18,1.6-1.85l0.04-0.06c0.4-0.6,0.78-1.28,1.16-2.07c0.75-1.58,1.35-3.21,1.77-4.84c0.66,0.07,1.37,0,2.13-0.22
		c-0.33,0.8-0.59,1.5-0.8,2.18c-0.58,1.83-0.78,3.35-0.63,4.66c0.2,1.68,1.51,2.87,3.15,2.87c0.03,0,0.06,0,0.08,0
		c2.06-0.05,3.37-1.73,4.37-3.37c0.23-0.37,0.44-0.75,0.65-1.14c-0.01,0.26-0.01,0.51-0.01,0.77c0,0.57,0.01,1.14,0.04,1.71
		c0,0.08,0.01,0.16,0.01,0.24c0.01,0.08,0.01,0.16,0.02,0.24c0.02,0.24,0.06,0.49,0.13,0.72c0.03,0.11,0.08,0.23,0.13,0.33
		c0.05,0.11,0.12,0.2,0.19,0.3c0,0,0,0,0,0c0.02,0.03,0.04,0.05,0.07,0.07c0.01,0.01,0.02,0.01,0.02,0.02
		c0.02,0.01,0.03,0.02,0.05,0.03c0.01,0,0.02,0.01,0.03,0.01c0.02,0.01,0.03,0.01,0.05,0.02c0.01,0,0.02,0,0.03,0.01
		c0.02,0,0.03,0,0.05,0c0.01,0,0.01,0,0.02,0c0,0,0.01,0,0.01,0c0.03,0,0.06,0,0.09-0.01c0,0,0.01,0,0.01,0
		c0.03-0.01,0.07-0.02,0.1-0.03c0.01,0,0.02-0.01,0.03-0.01c0.03-0.01,0.05-0.02,0.08-0.04c0.01,0,0.01-0.01,0.02-0.01
		c0.03-0.02,0.06-0.04,0.09-0.06c0.01-0.01,0.01-0.01,0.02-0.02c0.02-0.02,0.05-0.04,0.07-0.05c0.01-0.01,0.01-0.01,0.02-0.02
		c0.03-0.02,0.05-0.05,0.08-0.07c0,0,0.01-0.01,0.01-0.01c0.02-0.02,0.04-0.04,0.06-0.06c0.01-0.01,0.01-0.01,0.02-0.02
		c0.02-0.02,0.04-0.05,0.05-0.07c0.32-0.51,0.38-1.25,0.44-1.83c0.06-0.59,0.13-1.17,0.21-1.76c0.09-0.63,0.17-1.25,0.25-1.87
		c0.22-0.37,0.43-0.74,0.63-1.12c0.21-0.38,0.41-0.75,0.62-1.13c0.07-0.12,0.14-0.25,0.21-0.37c0.14-0.25,0.29-0.49,0.44-0.73
		c0.08-0.12,0.15-0.24,0.23-0.36c0.48-0.71,1.02-1.37,1.67-1.93c0.44-0.38,0.93-0.74,1.45-1c0.03-0.01,0.07-0.03,0.11-0.05
		c0.02,0,0.03,0,0.05,0c-0.01,0-0.02-0.01-0.03-0.01c0,0,0.01,0,0.01,0c0.01,0,0.01,0.01,0.02,0.01c0-0.01,0-0.01,0-0.02
		c0,0,0.01,0,0.01-0.01c0.01,0,0.02,0.01,0.04,0.03c0,0,0.01,0.01,0.01,0.01c0.01,0,0.01,0,0.02,0c0,0,0,0,0,0.01c0,0,0,0,0,0
		c0,0,0,0-0.01,0c0.01,0,0.01,0.01,0.01,0.01c0,0,0,0,0,0.01c0,0,0,0,0,0c0,0,0,0,0,0c0,0,0,0.01,0,0.01c0,0.01,0.01,0.02,0.01,0.02
		c0,0,0,0.01,0,0.01c0,0-0.01,0-0.01,0c0,0.01,0,0.01,0,0.02c0,0,0,0,0,0.01c0,0,0-0.01,0-0.01v0c0,0.01,0,0.01,0,0.02
		c0,0.01,0,0.01,0,0.02c0,0,0,0,0,0.01c0,0,0,0.01,0,0.01c0,0,0,0,0,0c0,0,0,0,0,0c0,0,0,0,0,0c0,0,0,0,0,0c0,0,0,0,0,0
		c0,0,0,0,0-0.01c0,0,0,0,0,0c0,0,0-0.01,0-0.01v0c0,0.06,0,0.11,0,0.17c0,0.08-0.01,0.15-0.02,0.23c-0.01,0.08-0.02,0.15-0.03,0.23
		c-0.01,0.08-0.02,0.15-0.03,0.23c0,0,0,0,0,0s0,0,0,0c0,0,0,0.01,0,0.02c0,0.01,0,0.01,0,0.02c0,0,0,0,0,0c0,0.01,0,0.02,0,0.03
		c0,0.02,0,0.03-0.01,0.05c0,0.01-0.01,0.03-0.01,0.05c0,0.03-0.01,0.06-0.01,0.07c0,0,0,0,0,0c0,0,0,0,0,0s0,0,0,0
		c-0.02,0.1-0.03,0.2-0.05,0.3c-0.06,0.35-0.14,0.71-0.21,1.06c-0.14,0.65-0.31,1.3-0.48,1.95c-0.35,1.32-0.73,2.63-0.99,3.97
		c-0.24,1.25-0.37,3.03,1.21,3.42c0.05,0.01,0.09,0.02,0.13,0.03c0.01,0,0.03,0,0.04,0.01c0.03,0,0.06,0.01,0.09,0.01
		c0.02,0,0.03,0,0.05,0.01c0.03,0,0.05,0.01,0.08,0.01c0.02,0,0.04,0,0.05,0c0.02,0,0.05,0,0.07,0c0,0,0,0,0.01,0c0,0,0.01,0,0.01,0
		c0.06,0,0.12,0,0.19-0.01c0.01,0,0.01,0,0.02,0c0.06-0.01,0.12-0.02,0.18-0.03c0.01,0,0.02,0,0.03-0.01
		c0.06-0.01,0.12-0.03,0.17-0.04c0.01,0,0.02-0.01,0.03-0.01c0.06-0.02,0.12-0.04,0.17-0.06c0,0,0.01,0,0.01-0.01
		c0.06-0.02,0.11-0.05,0.17-0.08c0.01,0,0.01-0.01,0.02-0.01c0.05-0.03,0.11-0.06,0.16-0.09c0.01-0.01,0.02-0.01,0.03-0.02
		c0.05-0.03,0.1-0.06,0.15-0.1c0.01-0.01,0.02-0.01,0.03-0.02c0.05-0.04,0.1-0.07,0.16-0.11c0,0,0,0,0.01-0.01
		c0.05-0.04,0.1-0.08,0.15-0.12c0.01-0.01,0.01-0.01,0.02-0.02c0.05-0.04,0.1-0.08,0.14-0.12c0.01-0.01,0.02-0.02,0.03-0.02
		c0.05-0.04,0.09-0.09,0.14-0.13c0.01-0.01,0.01-0.01,0.02-0.02c0.05-0.05,0.09-0.09,0.14-0.14c0,0,0,0,0,0
		c0.05-0.05,0.09-0.09,0.14-0.14c0.01-0.01,0.01-0.01,0.02-0.02c0.04-0.05,0.09-0.09,0.13-0.14c0.01-0.01,0.02-0.02,0.03-0.03
		c0.04-0.05,0.08-0.09,0.12-0.14c0.01-0.01,0.01-0.01,0.02-0.02c0.04-0.05,0.08-0.09,0.13-0.14c0.59-0.67,1.13-1.39,1.6-2.15
		c0.11-0.17,0.21-0.34,0.31-0.51c-0.01,0.22,0,0.45,0.01,0.67c0.06,0.85,0.26,1.71,0.62,2.48c0.12,0.26,0.26,0.5,0.41,0.74
		c0.04,0.06,0.08,0.12,0.12,0.17c0.08,0.11,0.17,0.22,0.26,0.33c0.05,0.05,0.09,0.11,0.14,0.16c0.57,0.62,1.29,1.09,2.16,1.33
		c0,0,0,0,0,0c0.09,0.02,0.18,0.04,0.27,0.06c0.03,0.01,0.06,0.01,0.08,0.02c0.06,0.01,0.12,0.02,0.19,0.03
		c0.03,0,0.06,0.01,0.09,0.01c0.06,0.01,0.12,0.01,0.18,0.02c0.03,0,0.05,0,0.08,0.01c0.09,0.01,0.17,0.01,0.26,0.01c0,0,0,0,0,0
		c0.07,0,0.14,0,0.21-0.01c0.02,0,0.04,0,0.07,0c0.05,0,0.1-0.01,0.14-0.01c0.03,0,0.05-0.01,0.08-0.01c0.04,0,0.09-0.01,0.13-0.02
		c0.03,0,0.05-0.01,0.08-0.01c0.04-0.01,0.09-0.02,0.13-0.02c0.02,0,0.05-0.01,0.07-0.01c0.05-0.01,0.11-0.02,0.16-0.04
		c0.02,0,0.03-0.01,0.05-0.01c0.07-0.02,0.13-0.03,0.2-0.05c0.02-0.01,0.03-0.01,0.05-0.02c0.05-0.02,0.1-0.03,0.15-0.05
		c0.02-0.01,0.05-0.02,0.07-0.03c0.04-0.02,0.09-0.03,0.13-0.05c0.02-0.01,0.05-0.02,0.07-0.03c0.04-0.02,0.08-0.03,0.12-0.05
		c0.02-0.01,0.05-0.02,0.07-0.03c0.04-0.02,0.09-0.04,0.13-0.06c0.02-0.01,0.04-0.02,0.06-0.03c0.06-0.03,0.13-0.06,0.19-0.1
		c0.01,0,0.02-0.01,0.02-0.01c0.05-0.03,0.11-0.06,0.16-0.09c0.02-0.01,0.04-0.02,0.06-0.04c0.04-0.02,0.08-0.05,0.12-0.07
		c0.02-0.01,0.05-0.03,0.07-0.04c0.04-0.02,0.08-0.05,0.11-0.07c0.02-0.01,0.05-0.03,0.07-0.04c0.04-0.03,0.08-0.05,0.12-0.08
		c0.02-0.01,0.04-0.03,0.06-0.04c0.05-0.04,0.1-0.07,0.15-0.11c0.01-0.01,0.02-0.01,0.02-0.02c0.06-0.04,0.11-0.09,0.17-0.13
		c0.02-0.01,0.03-0.03,0.05-0.04c0.04-0.03,0.08-0.06,0.12-0.1c0.02-0.02,0.04-0.03,0.06-0.05c0.04-0.03,0.07-0.06,0.1-0.09
		c0.02-0.02,0.04-0.04,0.06-0.06c0.03-0.03,0.07-0.06,0.1-0.09c0.02-0.02,0.04-0.04,0.06-0.05c0.04-0.04,0.08-0.07,0.11-0.11
		c0.01-0.01,0.03-0.03,0.04-0.04c0.05-0.05,0.1-0.1,0.15-0.15c0.01-0.01,0.02-0.02,0.03-0.03c0.04-0.04,0.08-0.08,0.12-0.12
		c0.02-0.02,0.03-0.04,0.05-0.06c0.03-0.04,0.06-0.07,0.09-0.11c0.02-0.02,0.04-0.04,0.05-0.06c0.03-0.03,0.06-0.07,0.09-0.1
		c0.02-0.02,0.03-0.04,0.05-0.06c0.03-0.04,0.06-0.08,0.09-0.11c0.01-0.02,0.03-0.03,0.04-0.05c0.04-0.06,0.09-0.11,0.13-0.17
		c0.32-0.43,0.61-0.87,0.87-1.34c0.05-0.09,0.1-0.19,0.15-0.28c0.1-0.19,0.2-0.38,0.29-0.57c0.06-0.02,0.12-0.04,0.18-0.07
		c0.18-0.07,0.35-0.15,0.52-0.25c0.07-0.04,0.13-0.07,0.19-0.11c0.38-0.23,0.7-0.49,1-0.81c0.05-0.05,0.1-0.11,0.15-0.17
		c0.36-0.42,0.75-0.82,1.07-1.28c0.08-0.12,0.16-0.23,0.23-0.35c0.52-0.84,0.85-1.78,1-2.76C77.5,52.7,77.5,52.67,77.5,52.65
		 M57.3,50.26C57.3,50.26,57.3,50.26,57.3,50.26C57.3,50.26,57.3,50.27,57.3,50.26L57.3,50.26C57.3,50.27,57.3,50.26,57.3,50.26
		 M57.11,50.13C57.11,50.13,57.11,50.13,57.11,50.13C57.11,50.13,57.11,50.13,57.11,50.13C57.11,50.13,57.11,50.13,57.11,50.13
		c0,0,0.01,0,0.02,0C57.13,50.13,57.12,50.13,57.11,50.13C57.12,50.13,57.11,50.13,57.11,50.13 M57.64,60.14
		C57.64,60.14,57.64,60.14,57.64,60.14c0,0.01,0,0.01,0.01,0.02c0,0,0,0.01,0,0.01c0.01,0.01,0.01,0.03,0.01,0.03c0,0,0,0,0,0
		c0,0,0,0,0,0c0,0,0-0.01-0.01-0.02c0,0,0,0,0-0.01C57.64,60.15,57.63,60.14,57.64,60.14c-0.01-0.01-0.01-0.02-0.01-0.02
		C57.62,60.12,57.62,60.12,57.64,60.14C57.63,60.13,57.63,60.13,57.64,60.14 M57.34,50.36c0-0.01-0.01-0.02-0.01-0.04
		c-0.01-0.01-0.01-0.03-0.02-0.05c0,0,0,0,0-0.01c0.01,0.02,0.02,0.04,0.02,0.05C57.33,50.33,57.33,50.34,57.34,50.36
		C57.34,50.35,57.34,50.35,57.34,50.36C57.34,50.36,57.34,50.36,57.34,50.36C57.34,50.36,57.34,50.36,57.34,50.36
		C57.34,50.36,57.34,50.36,57.34,50.36C57.34,50.36,57.34,50.36,57.34,50.36 M57.3,50.21C57.3,50.21,57.3,50.21,57.3,50.21
		C57.3,50.21,57.3,50.21,57.3,50.21L57.3,50.21c0.01,0,0.02,0,0.03,0.01c0,0,0,0,0.01,0c0,0,0.01,0,0.01,0c0,0,0,0,0,0
		c-0.01,0.01-0.02,0.01-0.03,0.01c0.01,0.01,0.01,0.02,0.02,0.02c-0.01-0.01-0.01-0.01-0.02-0.02c-0.01,0-0.01,0-0.02,0.01
		C57.3,50.23,57.3,50.22,57.3,50.21 M65.76,53.9C65.76,53.89,65.76,53.89,65.76,53.9c0-0.01,0.01-0.02,0.01-0.03c0,0,0,0,0,0
		c0-0.01,0.01-0.01,0.01-0.02c0-0.01,0.01-0.02,0.01-0.02c0-0.01,0.01-0.02,0.01-0.03c0.01-0.02,0.01-0.03,0.02-0.05
		c0.02-0.04,0.03-0.08,0.04-0.11c0,0,0,0,0-0.01c0,0,0,0,0-0.01c0,0,0,0,0,0c0,0,0,0,0-0.01c0,0,0,0,0,0.01
		c0.06-0.15,0.12-0.3,0.18-0.46c0.03-0.08,0.05-0.16,0.07-0.24c0.02,0.2,0.05,0.41,0.1,0.61c0.03,0.14,0.06,0.28,0.1,0.41
		c0.23,0.83,0.6,1.64,1.06,2.37c0.08,0.12,0.15,0.24,0.23,0.36c0.73,1.05,1.68,1.78,2.94,2.04c0.02,0,0.04,0.01,0.06,0.01
		c0,0-0.01,0.01-0.01,0.01c-0.01,0.02-0.03,0.04-0.04,0.06c-0.01,0.01-0.01,0.02-0.02,0.03c-0.11,0.16-0.23,0.31-0.36,0.46
		c-0.13,0.16-0.27,0.3-0.41,0.45c-0.02,0.02-0.03,0.03-0.04,0.04c-0.12,0.09-0.23,0.19-0.35,0.28c-0.13,0.1-0.27,0.19-0.41,0.28
		c-0.04,0.02-0.11,0.07-0.14,0.08c-0.11,0.05-0.21,0.1-0.32,0.15c-0.05,0.02-0.09,0.04-0.14,0.05c-0.01,0.01-0.03,0.01-0.04,0.02
		c-0.03,0.01-0.06,0.02-0.09,0.03c-0.02,0.01-0.03,0.01-0.05,0.02c-0.03,0.01-0.05,0.02-0.08,0.02c-0.02,0-0.04,0.01-0.05,0.01
		c-0.03,0.01-0.05,0.01-0.08,0.02c-0.02,0-0.04,0.01-0.06,0.01c-0.02,0-0.05,0.01-0.07,0.01c-0.02,0-0.04,0.01-0.06,0.01
		c-0.02,0-0.05,0.01-0.07,0.01c-0.02,0-0.04,0-0.06,0c-0.02,0-0.05,0-0.07,0.01c-0.02,0-0.04,0-0.06,0c-0.03,0-0.06,0-0.08,0
		c-0.03,0-0.1-0.01-0.11-0.01c-0.14-0.02-0.28-0.03-0.41-0.06c0,0,0,0,0,0c-0.02-0.01-0.03-0.01-0.05-0.02
		c-0.05-0.02-0.11-0.04-0.17-0.07c-0.06-0.02-0.11-0.04-0.17-0.07c-0.07-0.03-0.14-0.07-0.21-0.11c-0.02-0.01-0.03-0.02-0.05-0.02
		c-0.01-0.01-0.02-0.02-0.05-0.04c-0.19-0.16-0.38-0.3-0.55-0.48c-0.03-0.03-0.06-0.06-0.09-0.1c0,0-0.01-0.01-0.01-0.01
		c0-0.01-0.01-0.01-0.02-0.02c-0.01-0.02-0.03-0.04-0.04-0.06c-0.03-0.04-0.06-0.08-0.07-0.1c-0.07-0.1-0.13-0.2-0.19-0.31
		c-0.06-0.11-0.11-0.21-0.16-0.32c0,0.01,0.01,0.02,0.01,0.03c0,0,0,0,0,0c0,0.01,0.01,0.02,0.01,0.03c0,0,0,0,0,0
		c0,0.01,0.01,0.02,0.01,0.02c0,0,0,0,0,0c0,0.01,0,0.01,0,0.01c0,0,0,0,0,0c0,0,0,0,0,0c0,0,0,0,0-0.01c0,0,0,0,0,0
		c0,0,0-0.01,0-0.01c0,0,0,0,0-0.01c0,0,0-0.01,0-0.01c0,0,0-0.01,0-0.01c0-0.01,0-0.01-0.01-0.02c0,0,0-0.01,0-0.01
		c0-0.01-0.01-0.02-0.01-0.03c0,0,0-0.01,0-0.01c0-0.01-0.01-0.03-0.02-0.05c-0.02-0.07-0.05-0.14-0.07-0.21
		c-0.02-0.07-0.04-0.14-0.06-0.21c-0.03-0.12-0.05-0.23-0.08-0.35c0-0.01,0-0.01,0-0.03c0,0,0,0,0,0c0-0.01,0-0.03-0.01-0.04
		c0,0,0,0,0,0c0-0.02,0-0.03-0.01-0.05c0-0.04-0.01-0.08-0.01-0.11c0,0,0,0,0-0.01c0-0.02,0-0.03-0.01-0.04c0,0,0,0,0,0
		c0-0.01,0-0.02,0-0.03c0,0,0,0,0,0c0-0.01,0-0.01,0-0.01l0,0c0,0,0,0,0,0c-0.01-0.22-0.01-0.44,0-0.67
		c0.01-0.12,0.01-0.24,0.03-0.36c0.01-0.07,0.01-0.14,0.02-0.21c0-0.02,0.01-0.03,0.01-0.05c0.08-0.4,0.18-0.8,0.31-1.19
		c0.04-0.13,0.09-0.26,0.13-0.39c0.02-0.06,0.05-0.12,0.07-0.18c0,0,0,0,0,0c0,0,0,0,0-0.01c0,0,0,0,0,0c0,0,0-0.01,0.01-0.02
		c0,0,0-0.01,0-0.01c0-0.01,0.01-0.02,0.01-0.03c0,0,0-0.01,0.01-0.01c0.02-0.06,0.05-0.13,0.07-0.16c0.01-0.01,0.01-0.02,0.01-0.03
		c0.08-0.2,0.16-0.4,0.24-0.59C65.75,53.91,65.75,53.9,65.76,53.9 M65.88,53.59C65.88,53.59,65.88,53.59,65.88,53.59
		C65.88,53.59,65.88,53.59,65.88,53.59L65.88,53.59z M65.88,53.6C65.87,53.6,65.87,53.6,65.88,53.6
		C65.87,53.6,65.87,53.6,65.88,53.6 M72.39,53.55c-0.03,0.23-0.07,0.46-0.11,0.68c-0.13,0.68-0.3,1.35-0.51,2.01
		c-0.04,0.11-0.07,0.22-0.11,0.32c-0.04,0.1-0.07,0.2-0.11,0.3c-0.57-0.12-1.1-0.38-1.56-0.81c-0.62-0.59-1.04-1.44-1.36-2.22
		c-0.15-0.38-0.27-0.77-0.34-1.17c-0.05-0.3-0.08-0.6-0.07-0.9c0-0.1,0.01-0.2,0.02-0.31c0.01-0.08,0.02-0.15,0.03-0.23
		c0,0.01,0,0.01,0,0.02c0,0.01,0,0.02,0,0.03c0,0.01,0,0.01,0,0.02c0,0.01,0,0.02,0,0.02c0,0,0,0.01,0,0.01c0,0.01,0,0.01,0,0.01
		c0,0,0,0,0,0.01c0,0,0,0,0,0c0,0,0,0,0,0c0,0,0,0,0,0c0,0,0,0,0-0.01c0,0,0,0,0,0c0,0,0-0.01,0-0.02c0,0,0-0.01,0-0.01
		c0-0.01,0-0.02,0-0.03c0-0.01,0-0.01,0-0.02c0-0.01,0-0.02,0.01-0.04c0-0.01,0-0.02,0.01-0.04c0,0,0-0.01,0-0.01
		c0-0.01,0-0.03,0.01-0.04c0,0,0-0.01,0-0.01c0-0.01,0-0.02,0-0.03c0,0,0-0.01,0-0.01c0-0.01,0-0.02,0-0.02
		c0.03-0.14,0.06-0.28,0.09-0.42c0.03-0.14,0.07-0.28,0.12-0.41c0.02-0.06,0.04-0.13,0.06-0.19c0.02-0.06,0.05-0.13,0.07-0.19
		c0,0,0.02-0.04,0.04-0.09c0.03-0.08,0.08-0.18,0.09-0.22c0.07-0.14,0.14-0.28,0.22-0.41c0.04-0.06,0.08-0.13,0.12-0.19
		c0.04-0.05,0.08-0.11,0.12-0.16c0.04-0.04,0.07-0.09,0.11-0.13c0.04-0.04,0.08-0.08,0.12-0.12c0.01-0.01,0.02-0.02,0.03-0.03
		c0.03-0.03,0.07-0.06,0.09-0.09c0.01-0.01,0.02-0.02,0.03-0.03c0.06-0.05,0.12-0.09,0.18-0.13c0.24-0.17,0.58-0.33,0.87-0.4
		c0.05-0.01,0.09-0.02,0.14-0.02c0.01,0,0.03,0,0.04,0c0.04,0,0.08-0.01,0.11-0.01c0.01,0,0.02,0,0.03,0c0.04,0,0.09,0,0.13,0.01
		c0.01,0,0.02,0,0.03,0c0.03,0,0.07,0.01,0.1,0.02c0.01,0,0.03,0.01,0.04,0.01c0.03,0.01,0.05,0.01,0.08,0.02
		c0.01,0,0.02,0.01,0.03,0.01c0.04,0.01,0.07,0.03,0.1,0.05c0.29,0.16,0.41,0.34,0.59,0.67c0.26,0.49,0.38,1.33,0.41,1.87
		C72.56,51.51,72.52,52.54,72.39,53.55 M40.5,50.6l-0.02-0.02c-0.03-0.02-0.05-0.04-0.08-0.06c-0.01-0.01-0.03-0.03-0.05-0.05
		c-0.01-0.01-0.02-0.02-0.03-0.03c-0.04-0.06-0.09-0.12-0.12-0.19c-0.01-0.01-0.02-0.03-0.02-0.05l-0.01-0.01
		c0-0.01,0-0.01-0.01-0.02c0-0.01-0.01-0.02-0.01-0.03c0,0,0,0,0-0.01c-0.02-0.07-0.04-0.14-0.05-0.22l-0.03-0.11c0,0,0-0.01,0-0.01
		c0-0.04,0-0.09,0-0.13c0-0.04,0-0.08,0-0.12c0-0.04,0.01-0.08,0.01-0.12c0-0.03,0-0.05,0.01-0.08l0-0.02c0,0,0-0.01,0-0.01
		c0.02-0.07,0.03-0.14,0.05-0.21c0.02-0.07,0.03-0.14,0.05-0.2c0.04-0.13,0.08-0.26,0.13-0.4l0.05-0.11
		c0.02-0.05,0.05-0.11,0.07-0.16c0.05-0.11,0.12-0.22,0.18-0.32c0-0.01,0.01-0.01,0.01-0.02c0.02-0.02,0.04-0.04,0.05-0.06
		l0.01-0.01c0,0,0.01-0.01,0.02-0.02c0.01-0.01,0.02-0.03,0.03-0.04l0.01-0.01c0.02-0.01,0.03-0.03,0.04-0.04
		c0.01-0.01,0.05-0.04,0.08-0.07c0.07-0.05,0.11-0.08,0.13-0.1l0.1-0.06c0.01,0,0.01,0,0.02,0c0.05,0.01,0.12,0.02,0.24,0.03
		c0.02,0.03,0.03,0.05,0.04,0.07c0.1,0.27,0.12,0.68,0.04,1.19c-0.07,0.5-0.28,1.02-0.62,1.58c-0.06,0.1-0.13,0.19-0.21,0.31
		c0,0-0.01,0-0.01-0.01C40.56,50.63,40.53,50.62,40.5,50.6C40.51,50.61,40.5,50.6,40.5,50.6C40.5,50.6,40.5,50.6,40.5,50.6
		 M41.42,47.36l0.01-0.03l0,0L41.42,47.36L41.42,47.36z M57.27,50.17C57.27,50.17,57.27,50.17,57.27,50.17
		C57.27,50.17,57.27,50.17,57.27,50.17C57.27,50.17,57.27,50.17,57.27,50.17 M57.29,50.22c0-0.01-0.01-0.01-0.01-0.02
		C57.29,50.21,57.29,50.21,57.29,50.22C57.29,50.21,57.29,50.21,57.29,50.22C57.29,50.21,57.29,50.21,57.29,50.22
		c0.01,0,0.01,0.01,0.01,0.02C57.29,50.23,57.29,50.22,57.29,50.22"/>
</g>
</svg>
