<?xml version="1.0" encoding="utf-8"?>
<!-- Generator: Adobe Illustrator 24.2.0, SVG Export Plug-In . SVG Version: 6.00 Build 0)  -->
<svg version="1.1" id="Layer_2_1_" xmlns="http://www.w3.org/2000/svg" xmlns:xlink="http://www.w3.org/1999/xlink" x="0px" y="0px"
	 viewBox="0 0 708.5 790" style="enable-background:new 0 0 708.5 790;" xml:space="preserve">
<style type="text/css">
	.st0{fill:#F00000;}
	.st1{fill:#353535;}
	.st2{fill:#FBF607;}
	.st3{fill:#FFFFFF;}
</style>
<g>
	<circle class="st0" cx="354.3" cy="395" r="346.5"/>
	<g>
		<path class="st1" d="M572.1,496.4c-0.2-19.5-2.7-40.5-7.5-63c-10-91.6-190.3-331.5-209.7-357.1v-1.6c-0.2,0.2-0.4,0.5-0.6,0.8
			c-0.2-0.3-0.4-0.6-0.6-0.8v1.6C335.1,100.9,168.9,322,146.2,421.1c-9.9,41.1-12.5,77.1-8.3,108.7c0.1,0.6,0.1,1.2,0.2,1.8
			c0,0,0,0.1,0,0.1l0,0c14.4,103.1,105.3,182.7,215.6,183.6v0c0.2,0,0.4,0,0.6,0c0.2,0,0.4,0,0.6,0v0
			c119.8-1,216.6-94.8,217.6-210.7l0-0.5C572.6,501.7,572.4,499.1,572.1,496.4z M353.9,696.6L353.9,696.6c-0.2,0-0.4,0-0.6,0
			c-0.2,0-0.4,0-0.6,0v0c-106.7-0.9-194.7-77.1-210.2-176.3c-0.2-2.8-0.1-6.3,0.3-10.3c0.8-7.8,5.4-18.5,10.1-8.2v0
			c26.3,86.3,106.2,149.2,200.9,150v0c0.2,0,0.4,0,0.6,0c0.2,0,0.4,0,0.6,0v0c95.6-0.8,176.1-64.9,201.7-152.4
			c4.2-5.9,8.1,3.6,8.8,10.6c0,0,0,0.1,0,0.1C554.6,614.2,464.1,695.7,353.9,696.6z"/>
		<g>
			<path class="st2" d="M219.8,565.5v-16.2l12-2.5v-77.7l-12-2.5v-16.3h12H272c14.5,0,25.8,2.7,34,8c8.1,5.3,12.2,13.3,12.2,23.8
				c0,5.4-1.3,10.3-3.9,14.6c-2.6,4.3-6.6,7.6-12,9.8c4.6,1,8.3,2.7,11.2,5.1s5,5.3,6.4,8.7c1.4,3.4,2.1,7.1,2.1,11
				c0,11.3-3.8,19.8-11.3,25.6c-7.5,5.8-18.5,8.6-32.9,8.6L219.8,565.5L219.8,565.5z M259.6,498.1h11.2c6.5,0,11.4-1,14.7-3.1
				c3.2-2.1,4.9-5.3,4.9-9.7c0-4.8-1.5-8.3-4.6-10.5c-3-2.2-7.6-3.3-13.8-3.3h-12.4L259.6,498.1L259.6,498.1z M259.6,544.4h18.3
				c5.5,0,9.6-1.1,12.4-3.2c2.8-2.2,4.2-5.5,4.2-9.9c0-3.3-0.5-6.1-1.6-8.3c-1.1-2.2-2.7-3.8-4.9-4.9c-2.2-1.1-5.1-1.6-8.7-1.6
				h-19.6L259.6,544.4L259.6,544.4z"/>
			<path class="st2" d="M326.7,565.5v-16.2l11.9-2.5v-77.7l-11.9-2.5v-16.3h11.9h42.5l27.9,75.9h0.5l27.1-75.9h53.8v16.3l-12,2.5
				v77.7l12,2.5v16.2h-51.6v-16.2l12.4-2.5v-15l0.6-54.2l-0.5-0.1l-32.6,88.1h-21.9l-33.1-87.1l-0.6,0.1l1.9,49.4v18.8l13.4,2.5
				v16.2L326.7,565.5L326.7,565.5z"/>
		</g>
		<g>
			<path class="st3" d="M219.8,388.3h4.2v30.2h-4.2V388.3z M221.9,414.5h17.3v4h-17.3V414.5z"/>
			<path class="st3" d="M247.8,417.5c-1.6-0.9-2.8-2.2-3.6-3.8s-1.2-3.7-1.2-6.1v-19.3h4.2v19.4c0,2.2,0.6,3.9,1.7,5.1
				s2.7,1.8,4.7,1.8c2,0,3.6-0.6,4.7-1.8c1.1-1.2,1.7-2.9,1.7-5.1v-19.4h4.2v19.3c0,2.4-0.4,4.4-1.2,6.1c-0.8,1.7-2,3-3.6,3.8
				c-1.6,0.9-3.5,1.3-5.8,1.3C251.3,418.8,249.4,418.4,247.8,417.5z"/>
			<path class="st3" d="M270.8,388.3h4.2v30.2h-4.2V388.3z M273.3,414.6h8.2c2.1,0,3.7-0.4,4.7-1.2c1-0.8,1.5-2,1.5-3.4v-0.1
				c0-1-0.2-1.9-0.5-2.6c-0.4-0.7-0.9-1.3-1.7-1.7c-0.8-0.4-1.7-0.6-2.9-0.6h-9.2v-3.8h9.2c1.6,0,2.7-0.4,3.5-1.1
				c0.8-0.7,1.2-1.8,1.2-3.3c0-1.5-0.4-2.6-1.3-3.4c-0.9-0.7-2.2-1.1-4-1.1h-8.6v-3.9h9.4c1.9,0,3.6,0.3,4.9,1
				c1.3,0.7,2.3,1.6,2.9,2.8c0.7,1.2,1,2.7,1,4.4c0,1-0.2,2-0.6,2.9c-0.4,0.9-1,1.7-1.8,2.3c-0.8,0.6-1.8,1.1-3.1,1.3
				c1.2,0.2,2.3,0.6,3.2,1.3c0.9,0.7,1.6,1.5,2,2.6c0.5,1,0.7,2.1,0.7,3.3v0.1c0,1.6-0.4,3.1-1.1,4.3c-0.7,1.2-1.8,2.2-3.1,2.9
				c-1.3,0.7-2.9,1-4.7,1h-9.8L273.3,414.6L273.3,414.6z"/>
			<path class="st3" d="M298.3,388.3h4.2v30.2h-4.2V388.3z M300.1,401.7h10.3c0.8,0,1.5-0.2,2.1-0.6c0.6-0.4,1.1-0.9,1.4-1.7
				c0.3-0.7,0.5-1.5,0.5-2.5s-0.2-1.7-0.5-2.5c-0.3-0.7-0.8-1.3-1.4-1.7c-0.6-0.4-1.3-0.6-2.2-0.6h-10.3v-4h10.1
				c1.7,0,3.3,0.4,4.6,1.1c1.3,0.7,2.3,1.7,3.1,3.1c0.7,1.3,1.1,2.8,1.1,4.6s-0.4,3.3-1.1,4.6c-0.7,1.3-1.8,2.3-3.1,3.1
				c-1.3,0.7-2.8,1.1-4.6,1.1h-10.1V401.7z M308.4,404.8l4.2-1l7.7,14.7h-5L308.4,404.8z"/>
			<path class="st3" d="M330.3,418.5H326v-30.2h4.2V418.5z"/>
			<path class="st3" d="M344.5,418.8c0,0-0.8-0.5-2.4-1.4c-1.6-0.9-2.8-2.2-3.7-4s-1.3-3.7-1.3-5.9v-8.3c0-2.2,0.4-4.2,1.3-5.9
				c0.9-1.7,2.1-3,3.7-4c1.6-0.9,3.4-1.4,5.5-1.4c1.7,0,3.3,0.4,4.8,1.1c1.4,0.7,2.7,1.8,3.6,3.1c1,1.4,1.6,2.9,2,4.7h-4.3
				c-0.3-0.9-0.7-1.8-1.3-2.5c-0.6-0.7-1.3-1.3-2.2-1.7c-0.8-0.4-1.7-0.6-2.6-0.6c-1.2,0-2.3,0.3-3.2,0.9c-0.9,0.6-1.6,1.4-2.2,2.5
				c-0.5,1.1-0.8,2.3-0.8,3.7v8.3c0,1.4,0.3,2.7,0.8,3.7c0.5,1.1,1.2,1.9,2.2,2.5c0.9,0.6,2,0.9,3.2,0.9c0.9,0,1.8-0.2,2.6-0.6
				c0.8-0.4,1.5-0.9,2.2-1.7c0.6-0.7,1.1-1.6,1.3-2.6h4.3c-0.3,1.8-1,3.4-2,4.7c-1,1.4-2.2,2.4-3.7,3.1c-1.5,0.7-3,1.1-4.8,1.1
				C345.5,418.8,344.5,418.8,344.5,418.8z"/>
			<path class="st3" d="M363.6,388.3h4.2v30.2h-4.2V388.3z M365.7,388.3H383v4h-17.3V388.3z M365.7,401.5h15.1v4h-15.1V401.5z
				 M365.7,414.5H383v4h-17.3V414.5z"/>
			<path class="st3" d="M389.1,388.3h3.8l14.8,23.3l-0.5,0.5v-23.9h4.2v30.2h-3.9l-14.7-23l0.5-0.5v23.5h-4.2L389.1,388.3
				L389.1,388.3z"/>
			<path class="st3" d="M416.4,388.3h21.3v4h-21.3V388.3z M424.9,390.8h4.2v27.7h-4.2V390.8z"/>
			<path class="st3" d="M441.8,388.3h4.2v30.2h-4.2V388.3z M443.7,401.7H454c0.8,0,1.5-0.2,2.1-0.6c0.6-0.4,1.1-0.9,1.4-1.7
				c0.3-0.7,0.5-1.5,0.5-2.5s-0.2-1.7-0.5-2.5s-0.8-1.3-1.4-1.7c-0.6-0.4-1.3-0.6-2.2-0.6h-10.3v-4h10.1c1.7,0,3.3,0.4,4.6,1.1
				c1.3,0.7,2.3,1.7,3.1,3.1c0.7,1.3,1.1,2.8,1.1,4.6s-0.4,3.3-1.1,4.6c-0.7,1.3-1.8,2.3-3.1,3.1c-1.3,0.7-2.8,1.1-4.6,1.1h-10.1
				V401.7z M451.9,404.8l4.2-1l7.7,14.7h-5L451.9,404.8z"/>
			<path class="st3" d="M473.1,417.4c-1.6-0.9-2.8-2.2-3.7-3.9c-0.9-1.7-1.3-3.6-1.3-5.8v-8.6c0-2.2,0.4-4.2,1.3-5.8
				c0.9-1.7,2.1-3,3.7-3.9c1.6-0.9,3.5-1.4,5.6-1.4c2.1,0,4,0.5,5.6,1.4c1.6,0.9,2.8,2.2,3.7,3.9c0.9,1.7,1.3,3.6,1.3,5.8v8.6
				c0,2.2-0.4,4.2-1.3,5.8c-0.9,1.7-2.1,3-3.7,3.9s-3.5,1.4-5.6,1.4C476.6,418.8,474.8,418.3,473.1,417.4z M482,413.8
				c0.9-0.6,1.7-1.4,2.2-2.4c0.5-1,0.8-2.2,0.8-3.6V399c0-1.4-0.3-2.6-0.8-3.6c-0.5-1-1.3-1.8-2.2-2.4c-0.9-0.6-2-0.8-3.3-0.8
				s-2.3,0.3-3.3,0.8c-0.9,0.6-1.7,1.4-2.2,2.4c-0.5,1-0.8,2.2-0.8,3.6v8.8c0,1.4,0.3,2.6,0.8,3.6c0.5,1,1.3,1.8,2.2,2.4
				c0.9,0.6,2,0.8,3.3,0.8C480,414.6,481.1,414.3,482,413.8z"/>
		</g>
	</g>
</g>
</svg>
