<?xml version="1.0" encoding="utf-8"?>
<!-- Generator: Adobe Illustrator 23.1.0, SVG Export Plug-In . SVG Version: 6.00 Build 0)  -->
<svg version="1.1" id="Layer_1" xmlns="http://www.w3.org/2000/svg" xmlns:xlink="http://www.w3.org/1999/xlink" x="0px" y="0px"
	 viewBox="0 0 41.4 38.3" style="enable-background:new 0 0 41.4 38.3;" xml:space="preserve">
<style type="text/css">
	.st0{fill:#FFFFFF;}
</style>
<g>
	<path class="st0" d="M4.3,21.1c1.7,0,3.3-1,4.3-2.1c0.6-0.6,1.1-1.4,1.7-2.5c0.2-0.3,0.3-0.6,0.5-1c0,0,0,0.1,0.1,0.1c0,0,0,0,0,0
		c0,0,0,0,0.1,0.1c0,0,0,0,0,0c0,0,0,0,0.1,0.1c0,0,0,0,0,0c0,0,0,0,0.1,0.1c0,0,0,0,0,0c0,0,0,0,0.1,0c0,0,0,0,0,0c0,0,0,0,0.1,0
		c0,0,0,0,0,0c0,0,0.1,0,0.1,0.1c0,0,0,0,0,0c0,0,0.1,0,0.1,0c0,0,0,0,0,0c0,0,0,0,0.1,0c0,0,0,0,0,0c0,0,0,0,0.1,0c0,0,0,0,0,0
		c0,0,0,0,0.1,0c0,0,0,0,0,0c0,0,0.1,0,0.1,0c0,0,0,0,0,0c0,0,0.1,0,0.1,0c0,0,0,0,0,0c0,0,0.1,0,0.1,0h0c0,0,0.1,0,0.1,0
		c0,0,0,0,0,0c0,0,0.1,0,0.1,0c0,0,0,0,0,0c0.5-0.1,1-0.3,1.4-0.6c0,0,0.1-0.1,0.1-0.1c0.1-0.1,0.3-0.2,0.4-0.4
		c0.1-0.1,0.2-0.3,0.4-0.4c0.1-0.1,0.2-0.3,0.3-0.4c0,0.1,0,0.3,0.1,0.4c0,0.1,0.1,0.3,0.1,0.4c0,0,0,0.1,0,0.1
		c0,0.1,0.1,0.2,0.2,0.3c0,0.1,0.1,0.1,0.1,0.2c0,0,0.1,0.1,0.2,0.1c0,0,0.1,0,0.1,0.1c0,0,0,0,0,0c0,0,0,0,0.1,0c0,0,0,0,0,0
		c0,0,0,0,0.1,0c0,0,0,0,0,0c0,0,0.1,0,0.1,0c0,0,0,0,0,0c0,0,0,0,0.1,0c0,0,0,0,0,0c0,0,0,0,0.1,0c0,0,0,0,0,0c0,0,0,0,0.1,0
		c0,0,0,0,0,0c0,0,0.1,0,0.1,0h0c0,0,0,0,0,0c0,0,0,0,0.1,0c0,0,0,0,0,0c0,0,0.1,0,0.1,0c0,0,0,0,0,0c0,0,0.1,0,0.1,0c0,0,0,0,0,0
		c0,0,0,0,0.1,0c0,0,0,0,0,0c0,0,0.1,0,0.1,0c0,0,0,0,0,0c0,0,0.1,0,0.1,0c0,0,0,0,0,0c0,0,0,0,0.1,0c0,0,0,0,0,0c0,0,0.1,0,0.1,0
		c0,0,0,0,0,0c0,0,0,0,0.1,0c0,0,0,0,0,0c0,0,0,0,0.1,0c0,0,0,0,0,0c0,0,0.1,0,0.1-0.1c0,0,0,0,0,0c0,0,0,0,0.1,0l0,0c0,0,0,0,0,0
		c0.2,0.3,0.4,0.5,0.7,0.7c0.4,0.3,0.9,0.4,1.3,0.4c0,0,0,0,0,0c0,0,0.1,0,0.2,0c0.1,0,0.1,0,0.2,0c0.5,0,1.1-0.2,1.8-0.7
		c0.6-0.5,1-1,1.4-1.5c0.2-0.3,0.4-0.6,0.6-0.9c0,0.2,0,0.4-0.1,0.6c0,0.7,0.1,1.2,0.5,1.6c0.4,0.4,1,0.5,1.5,0.3
		c0.5-0.2,0.9-0.6,1.2-0.9c0.3-0.3,0.5-0.6,0.7-0.9c0-0.1,0.1-0.1,0.1-0.2c0.2-0.3,0.4-0.7,0.6-1.1c-0.1,0.7-0.1,1.4-0.2,2.1
		c0,0,0,0,0,0c-0.2,0.2-0.4,0.3-0.6,0.5c-0.4,0.3-0.7,0.6-1.1,0.9c-0.9,0.7-2.1,1.8-2.9,3.1c-0.5,0.8-1.6,2.8-0.9,4.4
		c0.3,0.7,1,1.2,1.7,1.2c0,0,0.1,0,0.1,0c0.7,0,1.4-0.2,1.9-0.7c0.6-0.5,1.2-1.2,1.7-2.1c1-2,1.5-4.3,1.8-6.3
		c0.1-0.5,0.1-0.9,0.2-1.5c1-1,1.7-1.9,2.1-2.9c0.1-0.3,0.3-0.6,0.4-0.9l0,0c0-0.1,0-0.2,0-0.3c0-0.1-0.1-0.1-0.2-0.1
		c-0.2,0-0.4,0.1-0.4,0.3c-0.3,0.9-0.9,1.8-1.7,2.6c0.1-1.2,0.2-2.5,0.2-3.7c0-0.2,0-0.4,0-0.6c0-0.3-0.1-0.5-0.3-0.6
		c-0.2-0.1-0.4-0.2-0.6-0.1c-0.5,0.1-0.9,0.5-0.9,1c0,0.5-0.1,1-0.1,1.4c0,0.1,0,0.2,0,0.3c-0.1,0.2-0.2,0.5-0.3,0.7
		c-0.1,0.1-0.1,0.3-0.2,0.4c-0.2,0.5-0.4,0.8-0.6,1.1c-0.4,0.6-0.9,1.1-1.5,1.4c0,0-0.2,0.1-0.3,0.1h0c0,0,0,0,0,0c0,0,0,0,0,0l0,0
		c0,0,0,0,0,0c0,0,0,0,0-0.1c0,0,0,0,0,0c0,0,0,0,0,0l0,0c0,0,0-0.1,0-0.1c0-0.1,0-0.4,0-0.5c0-0.2,0-0.3,0.1-0.5
		c0-0.2,0.1-0.4,0.1-0.6c0.1-0.4,0.2-0.8,0.3-1.2l0,0c0.1-0.2,0.2-0.5,0.2-0.7l0-0.1c0,0,0-0.1,0.1-0.1c0-0.1,0.1-0.2,0.1-0.3
		c0.1-0.1,0.1-0.2,0.2-0.4c0.2-0.4,0.4-0.8,0.4-1.2c0-0.3-0.1-0.5-0.3-0.6c-0.3-0.1-0.6-0.1-0.9,0.1c-0.5,0.4-0.7,0.9-0.9,1.5
		c-0.2,0.4-0.4,1-0.5,1.5c0,0.1,0,0.2-0.1,0.2c-0.6,0.9-1.1,1.7-1.7,2.3c0,0-0.1,0.1-0.1,0.2c0-0.1,0-0.2,0-0.3
		c0.1-1.2-0.2-2.5-0.9-3.8c0,0,0-0.1,0-0.1c0,0,0.1,0,0.1-0.1c0.7-0.4,1.4-1.3,1.5-2.2c0-0.5-0.1-0.8-0.5-1.1
		c-0.4-0.4-1.1-0.5-1.7-0.3c-0.6,0.2-1.1,0.8-1.3,1.5c-0.3,1.1,0.1,2.1,0.5,3c0.1,0.3,0.3,0.6,0.4,0.9c0.2,0.6,0.3,1.2,0.4,1.8
		c0,0.3,0,0.6,0,0.8c-0.1,0.3-0.1,0.4-0.2,0.6c0,0,0,0,0,0.1c0,0,0,0,0,0c0,0,0,0-0.1,0.1c0,0,0,0-0.1,0.1c0,0-0.1,0.1-0.1,0.1l0,0
		c0,0-0.1,0-0.1,0c-0.1,0-0.1,0.1-0.2,0l-0.1,0c-0.1,0-0.1,0-0.2-0.1l0,0c-0.1,0-0.1,0-0.2-0.1l0,0c-0.1-0.1-0.2-0.2-0.3-0.3
		c0,0-0.1-0.1-0.1-0.1l0,0c-0.1-0.1-0.1-0.2-0.2-0.2l0,0c0-0.1-0.1-0.1-0.2-0.2c0.1-0.1,0.1-0.2,0.2-0.3c0.1-0.2,0.2-0.4,0.2-0.5
		c0.1-0.3,0.3-0.6,0.4-0.9c0.1-0.2,0.2-0.4,0.2-0.6c0-0.1,0.1-0.2,0.1-0.3c0.1-0.2,0.1-0.4,0.2-0.6c0,0,0,0,0,0c0,0,0,0,0,0
		c0,0,0,0,0,0c0,0,0,0,0,0c0,0,0,0,0,0c0,0,0,0,0,0c0,0,0,0,0,0s0,0,0,0s0,0,0,0c0,0,0,0,0,0c0,0,0,0,0,0c0,0,0,0,0,0c0,0,0,0,0,0
		s0,0,0,0c0,0,0,0,0,0c0,0,0,0,0,0c0,0,0,0,0,0c0,0,0,0,0,0c0,0,0,0,0,0c0,0,0,0,0,0c0,0,0,0,0,0c0,0,0,0,0,0c0,0,0,0,0,0
		c0,0,0,0,0,0s0,0,0,0c0,0,0,0,0,0c0,0,0,0,0,0c0,0,0,0,0,0c0,0,0,0,0,0c0,0,0,0,0,0c0,0,0,0,0,0c-0.2,0.5-0.3,1-0.6,1.5
		c-0.1,0.3-0.3,0.6-0.4,0.9c-0.1,0.1-0.1,0.2-0.2,0.4c0,0,0,0.1-0.1,0.1c0,0.1-0.1,0.2-0.2,0.2c0,0.1-0.1,0.1-0.2,0.2
		c-0.2,0.1-0.4,0.2-0.5,0.4c0,0,0,0.1-0.1,0.1c-0.1,0.1-0.2,0.1-0.3,0.2l0,0c0,0,0,0,0,0c0,0,0,0,0,0c0,0,0,0,0,0c0,0,0,0,0,0
		c0,0,0,0,0,0c0,0,0,0,0,0c0,0,0,0,0,0c0,0,0,0,0,0c0,0,0,0,0,0c0,0,0,0,0,0c0,0,0,0-0.1,0c0,0,0,0,0,0c0,0,0,0,0,0h0l0,0l0,0l0,0
		l0,0c0,0,0,0,0,0l0,0c0,0,0,0,0,0h0c0,0,0,0,0,0s0,0,0,0c0,0,0,0,0,0c0,0,0-0.1,0-0.1c0,0,0,0,0,0c0,0,0-0.1,0-0.1c0,0,0,0,0,0
		c0,0,0,0,0-0.1c0,0,0,0,0,0v0c0,0,0,0,0,0v0c0,0,0,0,0,0c0,0,0,0,0,0v0l0,0c0-0.1,0-0.2,0-0.3c0-0.1,0-0.2,0-0.3c0,0,0-0.1,0-0.2
		c0-0.2,0-0.3,0-0.5c0-0.1,0-0.1,0-0.2c0,0,0,0,0,0c0,0,0,0,0,0c0-0.1,0-0.2,0.1-0.3c0.1-0.3,0.3-0.7,0.3-1.1c0,0,0-0.1,0-0.1
		c0-0.1,0-0.3-0.1-0.4c0,0,0,0,0-0.1c0,0,0,0,0,0c0,0,0,0,0,0c0,0,0,0,0,0c0,0,0,0,0,0c0,0,0,0,0,0c0,0,0,0-0.1,0c0,0,0,0,0,0
		c0,0,0,0,0,0c0,0,0,0,0,0c0,0,0,0-0.1,0h0c0,0,0,0-0.1,0c0,0,0,0,0,0c0,0,0,0,0,0c0,0,0,0,0,0c0,0,0,0,0,0c0,0,0,0-0.1,0h0
		c0,0,0,0-0.1,0c0,0,0,0,0,0c0,0,0,0,0,0c0,0,0,0,0,0c0,0,0,0-0.1,0c-0.6,0.2-0.8,0.9-0.9,1.4c-0.1,0.3-0.2,0.7-0.2,1
		c0,0.1-0.1,0.1-0.2,0.2c-0.1,0.1-0.2,0.2-0.3,0.3c-0.1,0.1-0.2,0.2-0.3,0.3c-0.3,0.3-0.8,0.5-1.2,0.6c0,0-0.1,0-0.1,0c0,0,0,0,0,0
		c0,0,0,0-0.1,0c0,0,0,0,0,0c0,0,0,0-0.1,0c0,0,0,0,0,0c0,0,0,0-0.1,0c0,0,0,0,0,0c0,0-0.1,0-0.1,0c0,0,0,0,0,0c0,0-0.1,0-0.1,0
		c0,0,0,0,0,0c0,0,0,0,0,0c0,0-0.1,0-0.1-0.1c0,0,0,0,0,0c0,0,0,0,0,0c0,0-0.1-0.1-0.1-0.1c0,0,0,0,0,0c0,0,0,0,0,0l0,0l0,0l0,0
		c0,0,0,0,0,0c0,0,0,0,0,0c0,0,0,0,0,0s0,0,0,0s0,0,0,0s0,0,0,0c0,0,0,0,0,0s0,0,0,0s0,0,0,0c0,0,0,0,0,0c0,0,0,0,0,0s0,0,0,0
		c0,0,0,0,0,0c0,0,0,0,0,0c0,0,0,0,0,0c0,0,0,0,0,0c0,0,0,0,0,0c0,0,0,0,0,0v0v0c0,0,0,0,0,0v0v0l0,0l0,0l0,0c0-0.1,0-0.1,0-0.2
		c0,0,0,0,0,0c0,0,0,0,0,0c0,0,0-0.1,0-0.1c0,0,0-0.1,0-0.1c0-0.1,0-0.3,0-0.4c0,0,0-0.1,0-0.1c0,0,0-0.1,0-0.1c0,0,0,0,0,0
		c0,0,0,0,0,0c0-0.1,0-0.2,0.1-0.3c0.1-0.2,0.1-0.5,0.2-0.7c0,0,0,0,0,0c0,0,0,0,0,0c0-0.1,0-0.1,0.1-0.2c0-0.1,0-0.1,0.1-0.2
		c0-0.1,0.1-0.1,0.1-0.2c0.1-0.1,0.1-0.2,0.2-0.3c0,0,0.1-0.1,0.1-0.2c0,0,0,0,0,0c0,0,0,0,0,0c0,0,0.1-0.1,0.1-0.1
		c0.1-0.1,0.2-0.3,0.3-0.4c0,0,0.1-0.1,0.1-0.1c0,0,0,0,0,0c0,0,0.1-0.1,0.1-0.1c0,0,0,0,0,0c0,0,0,0,0,0c0.1-0.1,0.1-0.1,0.2-0.2
		c0,0,0.1-0.1,0.2-0.1c0,0,0,0,0,0c0,0,0.1,0,0.1,0c0,0,0,0,0,0c0,0,0.1,0,0.2-0.1c0,0,0.1,0,0.2-0.1c0,0,0,0,0,0c0,0,0.1,0,0.1,0
		c0,0,0.1,0,0.1,0c0,0,0.1,0,0.1,0c0,0,0.1,0,0.1,0c0,0,0.1,0,0.1,0c0,0,0,0,0,0l0,0c0,0,0,0,0,0l0,0l0,0l0,0l0,0c0,0,0,0,0,0l0,0
		c0,0,0,0,0,0h0c0,0,0,0,0,0h0c0,0,0,0,0,0l0,0l0,0l0,0l0,0c0,0,0,0,0,0c0,0,0,0,0,0s0,0,0,0h0c0,0,0,0,0,0c0,0,0,0,0,0c0,0,0,0,0,0
		c0,0,0,0,0,0c0,0,0,0,0,0l0,0c0,0,0,0,0,0s0,0,0,0h0c0,0,0,0,0,0l0,0h0l0,0l0,0l0,0h0c0,0,0,0,0,0s0,0,0,0h0c0,0,0,0,0,0
		c0.1,0,0.2,0.1,0.3,0.1c0,0,0,0,0,0c0,0,0.1,0,0.1,0.1c0,0,0,0,0,0c0,0,0,0,0,0c0,0,0,0,0,0l0,0l0,0c0,0,0,0,0,0l0,0c0,0,0,0,0,0
		c0,0,0,0,0,0c0,0,0,0,0,0c0,0,0,0,0,0c0,0,0,0,0,0c0,0,0.1,0.1,0.1,0.1c0,0,0,0,0,0c0,0,0,0,0,0h0c0,0,0,0,0,0s0,0,0,0h0l0,0l0,0
		l0,0h0l0,0c0,0,0,0,0,0c0,0,0,0,0.1,0.1c0,0,0,0,0,0c0,0,0,0,0,0c0,0,0,0,0,0c0,0,0,0,0,0c0,0,0,0,0,0c0,0,0,0,0,0c0,0,0,0,0,0
		c0,0,0,0,0,0h0c0,0,0,0,0.1,0c0,0,0,0,0,0c0,0,0,0,0,0c0,0,0,0,0,0c0,0,0,0,0,0h0c0,0,0,0,0,0c0,0,0,0,0,0c0,0,0,0,0,0c0,0,0,0,0,0
		c0,0,0,0,0,0c0,0,0,0,0,0c0,0,0,0,0,0c0,0,0,0,0,0c0,0,0,0,0,0c0-0.1,0.1-0.1,0.1-0.2c0,0,0,0,0,0c0,0,0-0.1,0-0.1
		c0.1-0.2,0-0.4-0.1-0.7c0-0.1-0.1-0.2-0.2-0.3c0-0.1-0.1-0.1-0.1-0.2c0,0,0,0,0,0c0,0,0,0,0,0l0,0l0,0l0,0c0,0,0,0,0,0s0,0,0,0
		c0,0,0,0,0,0c0,0,0,0,0,0c0,0,0,0,0,0c0,0,0,0-0.1,0c0,0-0.1-0.1-0.1-0.1c0,0,0,0,0,0c0,0-0.1,0-0.1,0c0,0,0,0-0.1,0c0,0,0,0-0.1,0
		c0,0,0,0-0.1,0c0,0,0,0-0.1,0c0,0,0,0-0.1,0c0,0,0,0-0.1,0c0,0,0,0-0.1,0c0,0,0,0-0.1,0c0,0,0,0-0.1,0c0,0,0,0-0.1,0c0,0,0,0-0.1,0
		c0,0,0,0-0.1,0c0,0,0,0,0,0c0,0,0,0-0.1,0s0,0-0.1,0c0,0,0,0-0.1,0c0,0,0,0-0.1,0c0,0,0,0-0.1,0c0,0,0,0-0.1,0c0,0,0,0-0.1,0
		c0,0,0,0-0.1,0c0,0-0.1,0-0.1,0s0,0-0.1,0c0,0-0.1,0-0.1,0c0,0,0,0-0.1,0c0,0-0.1,0-0.1,0c0,0,0,0,0,0c0,0-0.1,0-0.1,0
		c-0.7,0.3-1.3,0.8-1.8,1.3c-0.3,0.3-0.5,0.6-0.8,1c-0.1,0.2-0.3,0.4-0.4,0.7c0,0.1-0.1,0.1-0.1,0.2c0,0.1-0.1,0.2-0.1,0.2
		c-0.1,0.2-0.1,0.3-0.2,0.5c-0.1,0.3-0.2,0.6-0.2,1c0,0,0,0.1,0,0.1c0,0.1,0,0.2,0,0.3c0,0,0,0.1,0,0.1c0,0.1,0,0.3,0,0.4
		c0,0.1,0,0.2,0,0.3c-0.6,1.1-1.2,2.1-2,3c-0.5,0.6-1.1,1.1-1.7,1.4c-0.3,0.2-0.6,0.3-0.9,0.3c-0.2,0-0.3,0.1-0.5,0.1c0,0,0,0-0.1,0
		h0c0,0,0,0,0,0c-0.1,0-0.2,0-0.3,0c-0.2,0-0.4,0-0.5-0.1c0,0-0.1,0-0.1,0l0,0c-0.1,0-0.2-0.1-0.3-0.1c-0.2-0.1-0.3-0.1-0.5-0.2
		c0,0,0,0-0.1,0c0,0,0,0-0.1,0c-0.1,0-0.1-0.1-0.2-0.1S3,18.6,3,18.6c0,0,0,0,0,0c0,0,0,0,0-0.1c-0.1-0.1-0.2-0.3-0.3-0.4
		c0,0,0-0.1,0-0.1l0-0.1c0-0.1,0-0.1-0.1-0.2c0,0,0-0.1,0-0.1c0,0,0-0.1,0-0.1c0,0,0,0,0,0c0,0,0-0.1,0-0.1c0-0.2,0-0.4,0-0.5
		c0-0.1,0-0.2,0-0.3l0-0.1c0,0,0-0.1,0-0.1c0.1-0.3,0.2-0.7,0.3-1l0.1-0.1c0,0,0-0.1,0.1-0.1c0.1-0.2,0.1-0.3,0.2-0.5
		s0.2-0.3,0.3-0.4l0,0c0,0,0,0,0,0l0,0l0,0c0,0,0,0,0,0c0,0,0,0,0,0c0,0,0,0,0-0.1c0,0,0.1-0.1,0.1-0.1c0.2-0.3,0.5-0.6,0.7-0.8
		c0,0,0,0,0,0s0,0,0,0l0.1,0c0.1,0,0.1-0.1,0.2-0.1c0.1-0.1,0.3-0.2,0.4-0.3c0.2-0.1,0.3-0.2,0.5-0.3c0,0,0,0,0,0l0,0
		c0,0,0.1,0,0.1,0c0.1,0,0.2-0.1,0.2-0.1c0.2-0.1,0.4-0.2,0.6-0.2c0.2-0.1,0.4-0.1,0.5-0.2c0.4-0.2,0.7-0.6,0.6-1.1
		c0-0.2-0.1-0.4-0.3-0.5C7.2,9.7,7,9.7,6.8,9.7c-0.1,0-0.2,0-0.3,0.1c0,0,0,0,0,0l-0.2,0c-0.2,0-0.4,0-0.6,0c-0.4,0-0.9-0.1-1.3-0.2
		c-0.1,0-0.2-0.1-0.2-0.1c0,0-0.1,0-0.1-0.1c0,0,0,0,0,0c0,0,0,0,0,0c-0.1,0-0.1-0.1-0.2-0.1l0,0c0,0-0.1,0-0.1-0.1c0,0,0,0,0,0
		c0,0,0,0-0.1-0.1c0-0.1-0.1-0.1-0.1-0.2c0,0,0-0.1-0.1-0.1v0c0-0.1,0-0.2-0.1-0.3c0,0,0-0.1,0-0.1c0,0,0,0,0,0v0c0,0,0,0,0,0
		c0-0.2,0-0.3,0-0.5v0v0c0,0,0-0.1,0-0.1c0,0,0,0,0-0.1c0-0.1,0-0.2,0.1-0.3c0-0.1,0-0.1,0.1-0.2l0-0.1v0c0,0,0-0.1,0-0.1
		c0,0,0,0,0-0.1c0.1-0.2,0.2-0.4,0.3-0.5c0-0.1,0.1-0.1,0.1-0.2l0-0.1l0,0c0,0,0,0,0-0.1c0,0,0,0,0-0.1c0.1-0.2,0.3-0.3,0.4-0.5
		l0.1-0.1C4.6,5.2,4.7,5.1,4.8,5c0,0,0,0,0,0c0,0,0.1-0.1,0.1-0.1c0.1-0.1,0.2-0.1,0.3-0.2c0.2-0.1,0.3-0.2,0.5-0.3
		C5.8,4.2,5.9,4.1,6,4.1C6,4.1,6,4,6.1,4c0,0,0,0,0.1,0C6.6,3.7,7,3.6,7.3,3.4c0.1,0,0.2-0.1,0.3-0.1l0,0c0,0,0,0,0,0l0,0
		c0,0,0,0,0.1,0C8,3.2,8.3,3.2,8.5,3.1c0.1,0,0.2,0,0.3,0h0c0,0,0.1,0,0.1,0c0,0,0.1,0,0.1,0c0.2,0,0.5,0,0.7,0c0,0,0.1,0,0.1,0
		c0,0,0.1,0,0.1,0c0,0,0.1,0,0.1,0c0,0,0,0,0,0l0,0c0,0,0.1,0,0.1,0c0.1,0,0.2,0.1,0.3,0.1c0,0,0.1,0,0.2,0.1c0,0,0,0,0.1,0l0,0
		c0.1,0.1,0.3,0.2,0.4,0.3c0,0,0,0,0,0c0,0,0,0,0,0c0,0,0,0.1,0.1,0.1c0,0,0,0,0,0c0,0,0,0,0,0c0,0.1,0,0.1,0,0.2c0,0,0,0.1,0,0.1
		c0,0,0,0.1,0,0.1c0,0.1,0,0.2,0,0.3c0,0,0,0,0,0c0,0,0,0,0,0l0,0c0,0,0,0,0,0c0,0.1,0,0.2-0.1,0.3c0,0,0,0,0,0c0,0,0,0,0,0
		c0,0,0,0,0,0c0,0.1-0.1,0.2-0.1,0.3c0,0,0,0,0,0.1c0,0,0,0,0,0c0,0,0,0,0,0.1c0,0-0.1,0.1-0.1,0.1c0,0,0,0,0,0c0,0-0.1,0.1-0.1,0.1
		c0,0,0,0,0,0l0,0c-0.1,0.1-0.2,0.1-0.2,0.2c0,0,0,0-0.1,0l0,0l0,0c0,0-0.1,0-0.1,0.1c-0.1,0-0.1,0.1-0.2,0.1
		c-0.1,0-0.2,0.1-0.3,0.1c0,0,0,0-0.1,0s0,0-0.1,0c0,0,0,0,0,0c0,0,0,0,0,0C9.1,6.7,8.8,6.8,8.5,6.8c-0.1,0-0.2,0-0.4,0
		c0,0-0.1,0-0.1,0L8,6.9c0,0,0,0,0,0c0,0,0,0,0,0c-0.3,0-0.5,0-0.7,0c-0.2,0-0.3,0-0.5,0c-0.5,0-0.9-0.1-1.4,0
		C5,6.9,4.8,7.1,4.6,7.4C4.5,7.7,4.5,8,4.8,8.2l0,0C5,8.4,5.1,8.5,5.2,8.5c0.1,0,0.3,0.1,0.4,0.1c0,0,0.1,0,0.1,0
		c0.3,0,0.6,0.1,0.9,0.1c0.6,0,1.2,0,1.7,0c0.7-0.1,2-0.3,3-1.2c0.9-0.8,1.5-1.9,1.6-3c0.1-0.7-0.1-1.3-0.4-1.8
		c-0.3-0.5-0.8-0.8-1.4-1.1C8.8,0.5,6,2.1,4.9,2.8C2.9,4.1,1.6,6,1.5,7.9c-0.1,1.4,0.6,2.5,1.7,2.9C3.5,10.9,3.7,11,4,11
		c-0.5,0.4-1,0.9-1.4,1.4c-1.1,1.4-1.8,3-2,4.6c0,0.6,0,1.8,0.7,2.7c0.6,0.7,1.4,1.2,2.3,1.4C3.9,21.1,4.1,21.1,4.3,21.1 M21.3,9.4
		C21.3,9.4,21.3,9.4,21.3,9.4c-0.2-0.3-0.3-0.6-0.3-1c0-0.2,0-0.4,0.1-0.6c0,0,0,0,0-0.1l0,0c0,0,0,0,0.1-0.1l0,0c0,0,0,0,0,0
		c0,0,0,0,0,0c0,0,0,0,0,0c0,0,0,0,0.1,0h0c0,0,0.1,0,0.1,0c0,0,0,0,0,0c0.1,0,0.1,0,0.3,0.1C21.8,7.7,22,7.8,22,8
		C22,8.6,21.5,9.2,21.3,9.4 M28,16.7c-0.1,0.6-0.2,1.1-0.3,1.6c-0.2,1.1-0.5,2-0.8,2.9c0,0,0,0.1,0,0.1l0,0.1c0,0.1-0.1,0.2-0.1,0.3
		c-0.1,0.2-0.2,0.4-0.3,0.6c-0.1,0.2-0.2,0.4-0.3,0.5c0,0,0,0,0,0.1l0,0.1c0,0.1-0.1,0.1-0.1,0.2c-0.1,0.1-0.1,0.2-0.2,0.2
		c0,0-0.1,0.1-0.1,0.1c0,0,0,0,0,0c0,0-0.1,0.1-0.1,0.1c0,0,0,0-0.1,0c0,0,0,0-0.1,0c-0.1,0.1-0.2,0.1-0.3,0.1l0,0c0,0,0,0,0,0
		c-0.1,0-0.2,0-0.2,0c0,0,0,0-0.1,0l-0.1,0h0c0,0,0,0,0,0c0,0-0.1,0-0.1-0.1c0,0,0,0-0.1,0c0,0,0,0-0.1,0c-0.2-0.1-0.3-0.3-0.3-0.5
		c-0.1-0.3-0.1-0.6,0-0.9c0.1-0.6,0.3-1.1,0.7-1.7c0.3-0.5,0.6-0.9,1.1-1.4c0.4-0.4,0.8-0.9,1.4-1.4C27.3,17.3,27.6,17,28,16.7"/>
	<path class="st0" d="M11.3,21.1c0.2,0,0.4-0.1,0.6-0.1c0.4-0.1,0.8-0.1,1.2-0.2c0.6-0.1,1.2-0.2,1.7-0.2c0.2,0,0.3,0,0.5,0
		c0.2,0,0.3,0,0.5,0c0.1,0,0.3,0,0.4,0c0,0,0,0,0,0c0,0,0,0,0,0c0,0,0,0,0,0c0,0,0,0,0,0c0,0,0,0,0,0l0,0l0,0c0.1,0,0.2,0,0.2,0
		c0.1,0,0.1,0,0.2,0c0,0,0.1,0,0.1,0c0.1,0,0.1,0,0.2,0c0,0,0,0,0.1,0c0.1,0,0.1,0,0.2,0c0,0,0,0,0.1,0c0.1,0,0.1,0,0.2,0
		c0.1,0,0.1,0,0.2,0c0,0,0.1,0,0.1,0c0.1,0,0.1,0,0.2,0c0,0,0,0,0.1,0c0.1,0,0.1,0,0.2,0l0,0c0.1,0,0.2,0,0.2,0c0.2,0,0.3,0,0.5-0.1
		c0.2-0.1,0.4-0.3,0.5-0.6c0-0.1,0-0.2,0-0.2c0-0.1,0-0.1,0-0.2c-0.1-0.2-0.2-0.4-0.5-0.4c-0.1,0-0.1,0-0.2,0c0,0,0,0,0,0
		c-0.1,0-0.1,0-0.2,0c0,0,0,0,0,0c-0.1,0-0.1,0-0.2,0c0,0,0,0,0,0c-0.1,0-0.1,0-0.2,0c0,0,0,0,0,0c-0.1,0-0.1,0-0.2,0h0
		c-0.1,0-0.2,0-0.3,0c-0.1,0-0.2,0-0.4,0c-0.2,0-0.3,0-0.5,0c-0.3,0-0.6,0-0.9,0c-0.2,0-0.3,0-0.4,0c-0.7,0.1-1.4,0.2-2.1,0.3
		c-0.4,0.1-0.8,0.2-1.2,0.3c-0.1,0-0.3,0.1-0.4,0.1c-0.4,0.1-0.8,0.3-1.3,0.4c-0.3,0.1-0.6,0.2-0.8,0.3c-0.5,0.2-1.1,0.4-1.6,0.7
		c-0.8,0.4-1.6,0.7-2.4,1.1c-0.3,0.2-0.6,0.3-0.9,0.5c-0.3,0.2-0.6,0.3-0.8,0.5c-0.6,0.3-1.1,0.7-1.6,1.1l0,0c0,0,0,0,0,0
		c0,0,0,0,0,0c0,0,0,0,0,0c0,0,0,0,0,0c0,0,0,0,0,0c0,0,0,0,0,0c0,0,0,0,0,0s0,0,0,0c0,0,0,0,0,0c0,0,0,0,0,0s0,0,0,0v0c0,0,0,0,0,0
		v0c0,0,0,0,0,0c0,0,0,0,0,0c0,0,0,0,0,0c0,0,0,0,0,0s0,0,0,0c0,0,0,0,0,0c0,0,0,0,0,0l0,0c0,0,0,0,0,0l0,0c0,0,0,0,0,0l0,0
		c0,0,0,0,0,0l0,0c0,0,0,0,0,0c0,0,0,0,0,0c0,0,0,0,0,0l0,0c0.6-0.3,1.3-0.6,1.9-0.9c0.4-0.2,0.8-0.4,1.1-0.5c0.8-0.3,1.6-0.7,2.3-1
		c0.3-0.1,0.5-0.2,0.8-0.3c0.3-0.1,0.5-0.2,0.8-0.3c0,0.3-0.1,0.6-0.1,0.9c-0.1,0.5-0.2,1-0.2,1.6c0,0.3-0.1,0.5-0.1,0.8
		c0,0.3-0.1,0.5-0.2,0.8c-0.1,0.5-0.2,1-0.3,1.6c-0.4,1.8-0.9,3.6-1.5,5.3c-0.1,0.2-0.2,0.5-0.3,0.7c-0.1,0.1-0.1,0.3-0.2,0.4
		c0,0,0,0.1-0.1,0.2c0,0,0,0,0,0.1c0,0,0,0,0,0c-0.1,0.3-0.2,0.5-0.3,0.8c-0.1,0.1-0.1,0.3-0.2,0.4c-0.1,0.1-0.1,0.3-0.2,0.4
		c0,0.1-0.1,0.2-0.1,0.2c-0.1,0.1-0.1,0.2-0.1,0.3c0,0,0,0.1,0,0.1c0,0.2,0,0.3,0,0.5l0,0c0,0,0,0,0,0.1c0,0,0,0,0,0c0,0,0,0,0,0
		c0,0,0,0,0,0c0,0,0,0,0,0l0,0c0,0,0,0,0,0c0,0,0,0,0,0c0,0,0,0,0,0c0,0,0,0,0,0c0,0,0,0,0,0c0,0,0,0,0,0c0,0,0,0,0,0c0,0,0,0,0,0
		c0,0,0,0,0,0c0,0,0,0,0,0c0,0,0,0,0.1,0c0,0,0,0,0,0c0,0,0,0,0,0c0,0,0,0,0,0c0,0,0,0,0,0c0,0,0,0,0,0c0,0,0,0,0,0h0c0,0,0,0,0,0
		s0,0,0,0c0,0,0,0,0,0s0,0,0,0c0,0,0,0,0,0c0,0,0,0,0,0c0,0,0,0,0.1,0l0,0c0.1,0,0.1-0.1,0.2-0.1c0.2-0.1,0.3-0.2,0.4-0.4
		c0,0,0-0.1,0-0.1c0-0.1,0.1-0.2,0.1-0.3c0.1-0.2,0.2-0.5,0.3-0.8c0.1-0.1,0.1-0.3,0.2-0.4c0.2-0.4,0.3-0.8,0.5-1.2
		c0.3-0.8,0.6-1.5,0.8-2.3c0.1-0.3,0.2-0.5,0.2-0.8c0.3-0.9,0.5-1.9,0.7-2.8c0.1-0.4,0.2-0.8,0.2-1.2c0-0.3,0.1-0.5,0.1-0.8
		c0-0.3,0.1-0.5,0.1-0.8c0-0.3,0.1-0.5,0.1-0.8c0-0.4,0.1-0.9,0.1-1.3c0-0.1,0-0.3,0-0.4c0-0.1,0-0.2,0-0.3c0-0.1,0-0.1,0-0.2
		c0-0.1,0-0.2,0-0.3c0-0.2,0-0.3,0-0.5C10.6,21.2,11,21.1,11.3,21.1"/>
	<path class="st0" d="M40.2,28.3C40.2,28.3,40.2,28.3,40.2,28.3C40.2,28.3,40.2,28.3,40.2,28.3C40.2,28.3,40.2,28.3,40.2,28.3
		C40.2,28.3,40.2,28.3,40.2,28.3C40.2,28.3,40.2,28.3,40.2,28.3C40.2,28.3,40.2,28.3,40.2,28.3C40.2,28.3,40.2,28.3,40.2,28.3
		C40.2,28.2,40.2,28.2,40.2,28.3c-0.1-0.1-0.1-0.1-0.1-0.1c0,0,0,0,0,0c0,0,0,0,0,0c0,0,0,0,0,0c0,0,0,0,0,0s0,0,0,0c0,0,0,0,0,0
		c0,0,0,0,0,0c0,0,0,0,0,0c0,0,0,0,0,0c0,0,0,0,0,0c0,0,0,0,0,0s0,0,0,0s0,0,0,0c0,0,0,0,0,0c0,0,0,0,0,0c0,0,0,0,0,0c0,0,0,0,0,0
		c0,0,0,0,0,0c0,0,0,0,0,0c0,0,0,0,0,0c0,0,0,0,0,0c-0.1,0.4-0.3,0.8-0.5,1.2c0,0.1-0.1,0.1-0.1,0.2c0,0-0.1,0.1-0.1,0.1
		c-0.1,0.1-0.2,0.2-0.3,0.4c-0.1,0.1-0.2,0.1-0.3,0.2c0,0-0.1,0-0.1,0.1c0,0-0.1,0-0.1,0.1c0,0-0.1,0-0.1,0c0.1-0.4,0.2-0.8,0.3-1.2
		c0.1-0.7,0.2-1.3,0.2-2c0-0.1,0-0.2,0-0.3c0-0.2,0-0.5-0.1-0.7c0,0,0-0.1,0-0.1c0-0.1,0-0.1,0-0.2c0-0.1-0.1-0.2-0.1-0.3
		c0-0.1-0.1-0.1-0.1-0.2c0,0,0-0.1,0-0.1c-0.2-0.4-0.5-0.7-0.8-0.8c-0.1,0-0.1-0.1-0.2-0.1c0,0-0.1,0-0.1,0c0,0,0,0,0,0
		c0,0,0,0-0.1,0c0,0,0,0,0,0c0,0,0,0-0.1,0c0,0,0,0,0,0c0,0,0,0,0,0c0,0,0,0-0.1,0c0,0,0,0,0,0c0,0-0.1,0-0.1,0c0,0,0,0,0,0
		c0,0-0.1,0-0.1,0c0,0,0,0,0,0c0,0,0,0-0.1,0c0,0,0,0,0,0c0,0-0.1,0-0.1,0c0,0,0,0,0,0c0,0-0.1,0-0.1,0c0,0,0,0,0,0c0,0-0.1,0-0.1,0
		c0,0,0,0,0,0c0,0,0,0-0.1,0c0,0,0,0,0,0c0,0-0.1,0-0.1,0c0,0,0,0,0,0c0,0-0.1,0-0.1,0.1c0,0,0,0,0,0c0,0,0,0-0.1,0c0,0,0,0,0,0
		c0,0,0,0-0.1,0c0,0,0,0,0,0c0,0-0.1,0-0.1,0.1c-0.8,0.6-1.2,1.5-1.4,2.4c0,0,0,0.1,0,0.2c0,0-0.1-0.1-0.1-0.1c0,0,0,0-0.1,0
		c0,0,0,0,0,0c0,0,0,0,0,0c0,0,0,0-0.1,0c0,0,0,0,0,0c0,0,0,0,0,0c0,0,0,0,0,0c0,0,0,0,0,0c0,0,0,0-0.1,0c0,0,0,0,0,0c0,0,0,0-0.1,0
		h0c0,0,0,0-0.1,0c0,0,0,0,0,0c0,0,0,0-0.1,0c0,0,0,0,0,0c0,0,0,0-0.1,0l0,0c0,0,0,0-0.1,0c0,0,0,0,0,0c0,0,0,0,0,0c0,0,0,0,0,0
		c0,0,0,0,0,0c-0.1,0.1-0.3,0.3-0.4,0.4c0,0-0.1,0.1-0.1,0.1c-0.1,0.1-0.1,0.2-0.1,0.2c-0.1,0.2-0.3,0.5-0.4,0.7
		c-0.1,0.1-0.1,0.3-0.1,0.4c0,0,0,0,0,0.1c-0.1,0.2-0.2,0.5-0.4,0.7c-0.4,0.6-0.7,1.2-1.2,1.7c0,0.1-0.1,0.1-0.1,0.2
		c0,0,0,0.1-0.1,0.1c0,0-0.1,0-0.1,0.1c0,0-0.1,0-0.1,0.1c-0.1,0.1-0.2,0.1-0.3,0.1c0,0,0,0-0.1,0c0,0,0,0,0,0c0,0,0,0-0.1,0
		c0,0,0,0,0,0c0,0,0,0-0.1,0h0c0,0,0,0-0.1,0c0,0,0,0,0,0c0,0,0,0,0,0c0,0,0,0,0,0c0,0,0,0,0,0c0,0,0-0.1,0-0.1c0,0,0,0,0,0l0,0l0,0
		c0,0,0,0,0,0v0c0,0,0,0,0,0v0c0,0,0,0,0,0c0,0,0,0,0,0c0,0,0,0,0,0c0,0,0,0,0,0s0,0,0,0s0,0,0,0v0c0,0,0,0,0,0l0,0
		c0-0.2,0.1-0.4,0.2-0.5c0.1-0.4,0.2-0.7,0.3-1.1c0.2-0.7,0.4-1.4,0.6-2.1c0-0.2,0.1-0.4,0.1-0.6c0-0.2,0.1-0.4,0.1-0.6
		c0-0.3,0-0.7-0.1-1c0,0,0,0,0-0.1c0,0,0,0,0,0c0,0,0,0,0,0c0,0,0,0,0,0c0,0,0,0-0.1-0.1c0,0,0,0,0,0c0,0,0,0-0.1,0c0,0,0,0,0,0
		c0,0,0,0,0,0c0,0,0,0,0,0c0,0,0,0-0.1,0c0,0,0,0,0,0c0,0,0,0-0.1,0c0,0,0,0,0,0c0,0,0,0-0.1,0c0,0,0,0,0,0c0,0,0,0-0.1,0
		c0,0,0,0,0,0c0,0-0.1,0-0.1,0c0,0,0,0,0,0c0,0,0,0-0.1,0c0,0,0,0,0,0c0,0,0,0-0.1,0c0,0,0,0,0,0c0,0,0,0,0,0c0,0,0,0,0,0
		c0,0,0,0,0,0c0,0,0,0-0.1,0c0,0,0,0,0,0c0,0,0,0-0.1,0c0,0,0,0,0,0c0,0-0.1,0-0.1,0c-0.6,0.2-1,0.6-1.4,1c-0.1,0.1-0.1,0.1-0.2,0.2
		c-0.3,0.4-0.6,0.8-0.8,1.2c-0.1,0.2-0.2,0.3-0.3,0.5c0,0.1-0.1,0.1-0.1,0.2c0-0.2,0.1-0.3,0.1-0.5c0-0.2,0.1-0.3,0.1-0.5
		c0-0.1,0.1-0.3,0.1-0.4c0-0.1,0.1-0.3,0.1-0.4c0.1-0.3,0.3-0.7,0.3-1.1c0-0.1,0-0.1,0-0.2c0,0,0-0.1,0-0.1c0-0.1-0.1-0.1-0.1-0.2
		c0,0,0,0-0.1-0.1c0,0,0,0,0,0c0,0-0.1,0-0.2-0.1c0,0,0,0-0.1,0c0,0,0,0,0,0c0,0,0,0-0.1,0h0l0,0c0,0-0.1,0-0.1,0c0,0,0,0,0,0
		c0,0-0.1,0-0.1,0c0,0,0,0,0,0c0,0-0.1,0-0.1,0c0,0,0,0,0,0c0,0-0.1,0-0.1,0c0,0,0,0,0,0c0,0,0,0-0.1,0l0,0c0,0,0,0-0.1,0
		c0,0,0,0,0,0c0,0,0,0-0.1,0.1c0,0,0,0,0,0c0,0,0,0-0.1,0.1c-0.2,0.2-0.3,0.4-0.3,0.7c0,0.2-0.1,0.3-0.1,0.5c-0.1,0.3-0.1,0.6-0.2,1
		c0,0.2-0.1,0.3-0.1,0.5c-0.1,0.5-0.1,0.9-0.2,1.4c-0.2,0.5-0.5,0.9-0.8,1.4c0,0-0.1,0.1-0.1,0.1c-0.4,0.6-0.8,1.3-1.5,1.4
		c-0.2,0-0.5-0.1-0.6-0.2c0,0,0,0,0,0c0,0,0,0,0,0c0,0,0,0,0,0c0,0,0,0,0-0.1c0,0,0,0,0,0c0,0,0,0,0,0c0,0,0-0.1,0-0.1
		c0,0,0,0,0-0.1v0c0,0,0-0.1,0-0.1c0-0.1,0-0.3,0-0.4c0,0,0,0,0-0.1c0,0,0,0,0-0.1c0-0.1,0-0.2,0-0.2c0.1-0.3,0.2-0.6,0.3-1
		c0.1-0.2,0.1-0.4,0.2-0.6c0-0.1,0.1-0.2,0.1-0.2l0,0c0,0,0,0,0,0c0,0,0-0.1,0.1-0.1c0.1-0.1,0.1-0.2,0.2-0.4
		c0.1-0.3,0.3-0.5,0.3-0.8c0.1-0.3,0-0.6-0.3-0.8c-0.1-0.1-0.2-0.1-0.3-0.1c-0.2,0-0.3,0-0.5,0.1c0,0-0.1,0-0.1,0
		c-0.1,0-0.2,0.1-0.3,0.1c-0.1,0-0.2,0.1-0.3,0.1c-0.1,0-0.3,0.1-0.4,0.1c0.2-0.3,0.3-0.6,0.4-0.9c0.1-0.4,0.2-0.8,0.1-1.2
		c0-0.2-0.1-0.4-0.2-0.6c-0.2-0.2-0.4-0.3-0.7-0.4c-1.4-0.1-1.9,1.4-2.1,1.9c-0.3,0.9,0,2,0.9,2.4c-0.2,0.7-0.5,1.3-0.8,1.9
		c-0.2,0.3-0.4,0.7-0.5,0.9c-0.2,0.2-0.3,0.5-0.6,0.7c-0.2,0.2-0.5,0.3-0.6,0.3c0,0,0,0-0.1,0c0,0,0,0,0,0c0,0,0,0,0,0c0,0,0,0,0,0
		c0,0,0,0,0-0.1c0,0,0,0,0,0c0,0,0-0.1,0-0.1c0,0,0-0.1,0-0.1c0,0,0,0,0-0.1c0-0.1,0-0.3,0-0.4c0-0.1,0-0.3,0-0.4c0-0.1,0-0.2,0-0.2
		c0,0,0-0.1,0-0.1c0.1-0.4,0.2-0.7,0.3-1.1c0-0.1,0.1-0.2,0.1-0.3c0.1-0.3,0.3-0.7,0.1-1c-0.1-0.3-0.3-0.4-0.5-0.5c0,0,0,0-0.1,0
		l-0.2,0c0,0,0,0,0,0c-0.2,0-0.3,0.1-0.4,0.2c-0.2,0.1-0.3,0.3-0.4,0.4c-0.1,0.2-0.2,0.4-0.2,0.6l0,0.1c-0.1,0.3-0.2,0.6-0.3,0.9
		c-0.1,0.3-0.2,0.5-0.4,0.7c-0.4,0.6-0.9,1.1-1.5,1.4c0,0-0.2,0.1-0.3,0.1h0c0,0,0,0,0,0c0,0,0,0,0,0l0,0c0,0,0,0,0,0c0,0,0,0,0-0.1
		c0,0,0,0,0,0s0,0,0,0l0,0c0,0,0-0.1,0-0.1c0-0.1,0-0.4,0-0.5c0-0.2,0-0.3,0.1-0.5c0-0.2,0.1-0.4,0.1-0.6c0.1-0.4,0.2-0.8,0.3-1.2
		l0,0c0.1-0.2,0.2-0.5,0.2-0.7l0-0.1c0,0,0-0.1,0.1-0.1c0-0.1,0.1-0.2,0.1-0.3c0.1-0.1,0.1-0.2,0.2-0.4c0.2-0.4,0.4-0.8,0.4-1.2
		c0-0.3-0.1-0.5-0.3-0.6c-0.3-0.1-0.6-0.1-0.9,0.1c-0.5,0.4-0.7,0.9-0.9,1.5c-0.2,0.4-0.4,1-0.5,1.5c-0.3,1-0.5,2-0.5,3
		c0,0.7,0.1,1.2,0.5,1.6c0.2,0.3,0.6,0.4,0.9,0.4c0.2,0,0.4,0,0.6-0.1c0.4-0.2,0.7-0.5,1.2-0.9c0.2-0.2,0.4-0.5,0.6-0.8
		c0,0.3,0.1,0.6,0.1,0.8c0.1,0.4,0.5,0.9,1,1c0.5,0.1,1,0,1.4-0.3c0.4-0.3,0.6-0.6,0.9-1l0,0c0.2-0.3,0.4-0.7,0.6-1.1
		c0.4-0.9,0.7-1.7,1-2.6c0.4,0,0.7,0,1.2-0.1c-0.2,0.4-0.3,0.8-0.4,1.2c-0.3,1-0.4,1.8-0.3,2.5c0.1,0.9,0.8,1.6,1.7,1.6c0,0,0,0,0,0
		c1.1,0,1.8-0.9,2.4-1.8c0.1-0.2,0.2-0.4,0.4-0.6c0,0.1,0,0.3,0,0.4c0,0.3,0,0.6,0,0.9c0,0,0,0.1,0,0.1c0,0,0,0.1,0,0.1
		c0,0.1,0,0.3,0.1,0.4c0,0.1,0,0.1,0.1,0.2c0,0.1,0.1,0.1,0.1,0.2l0,0c0,0,0,0,0,0c0,0,0,0,0,0c0,0,0,0,0,0c0,0,0,0,0,0c0,0,0,0,0,0
		c0,0,0,0,0,0c0,0,0,0,0,0c0,0,0,0,0,0h0c0,0,0,0,0,0h0c0,0,0,0,0.1,0c0,0,0,0,0,0c0,0,0,0,0,0c0,0,0,0,0,0c0,0,0,0,0,0c0,0,0,0,0,0
		c0,0,0,0,0,0c0,0,0,0,0,0c0,0,0,0,0,0l0,0c0,0,0,0,0,0c0,0,0,0,0,0c0,0,0,0,0,0c0.2-0.3,0.2-0.7,0.2-1c0-0.3,0.1-0.6,0.1-1
		c0-0.3,0.1-0.7,0.1-1c0.1-0.2,0.2-0.4,0.3-0.6c0.1-0.2,0.2-0.4,0.3-0.6c0-0.1,0.1-0.1,0.1-0.2c0.1-0.1,0.2-0.3,0.2-0.4
		c0-0.1,0.1-0.1,0.1-0.2c0.3-0.4,0.6-0.7,0.9-1c0.2-0.2,0.5-0.4,0.8-0.5c0,0,0,0,0.1,0c0,0,0,0,0,0c0,0,0,0,0,0h0c0,0,0,0,0,0
		c0,0,0,0,0,0c0,0,0,0,0,0c0,0,0,0,0,0l0,0c0,0,0,0,0,0c0,0,0,0,0,0l0,0c0,0,0,0,0,0c0,0,0,0,0,0s0,0,0,0l0,0l0,0v0c0,0,0,0,0,0v0h0
		c0,0,0,0,0,0c0,0,0,0,0,0v0l0,0c0,0,0,0,0,0c0,0,0,0,0,0c0,0,0,0,0,0v0l0,0l0,0l0,0l0,0l0,0c0,0,0,0,0,0l0,0v0l0,0c0,0,0,0.1,0,0.1
		c0,0,0,0.1,0,0.1c0,0,0,0.1,0,0.1c0,0,0,0.1,0,0.1l0,0l0,0c0,0,0,0,0,0s0,0,0,0l0,0c0,0,0,0,0,0c0,0,0,0,0,0c0,0,0,0,0,0
		c0,0,0,0,0,0l0,0l0,0l0,0c0,0.1,0,0.1,0,0.2c0,0.2-0.1,0.4-0.1,0.6c-0.1,0.4-0.2,0.7-0.3,1.1c-0.2,0.7-0.4,1.4-0.5,2.2
		c-0.1,0.7-0.2,1.6,0.7,1.9c0,0,0,0,0.1,0c0,0,0,0,0,0c0,0,0,0,0,0c0,0,0,0,0,0c0,0,0,0,0,0c0,0,0,0,0,0c0,0,0,0,0,0c0,0,0,0,0,0h0
		c0,0,0.1,0,0.1,0c0,0,0,0,0,0c0,0,0.1,0,0.1,0c0,0,0,0,0,0c0,0,0.1,0,0.1,0c0,0,0,0,0,0c0,0,0.1,0,0.1,0c0,0,0,0,0,0
		c0,0,0.1,0,0.1,0c0,0,0,0,0,0c0,0,0.1,0,0.1,0c0,0,0,0,0,0c0,0,0.1,0,0.1-0.1c0,0,0,0,0,0c0,0,0.1,0,0.1-0.1c0,0,0,0,0,0
		c0,0,0.1,0,0.1-0.1c0,0,0,0,0,0c0,0,0.1,0,0.1-0.1c0,0,0,0,0,0c0,0,0,0,0.1-0.1c0,0,0,0,0,0c0,0,0,0,0.1-0.1l0,0c0,0,0,0,0.1-0.1
		c0,0,0,0,0,0c0,0,0,0,0.1-0.1c0,0,0,0,0,0c0,0,0,0,0.1-0.1c0,0,0,0,0,0c0,0,0,0,0.1-0.1c0.3-0.4,0.6-0.8,0.9-1.2
		c0.1-0.1,0.1-0.2,0.2-0.3c0,0.1,0,0.2,0,0.4c0,0.5,0.1,0.9,0.3,1.3c0.1,0.1,0.1,0.3,0.2,0.4c0,0,0,0.1,0.1,0.1
		c0,0.1,0.1,0.1,0.1,0.2c0,0,0,0.1,0.1,0.1c0.3,0.3,0.7,0.6,1.2,0.7l0,0c0,0,0.1,0,0.1,0c0,0,0,0,0,0c0,0,0.1,0,0.1,0c0,0,0,0,0,0
		c0,0,0.1,0,0.1,0c0,0,0,0,0,0c0,0,0.1,0,0.1,0l0,0c0,0,0.1,0,0.1,0c0,0,0,0,0,0c0,0,0.1,0,0.1,0c0,0,0,0,0,0c0,0,0,0,0.1,0
		c0,0,0,0,0,0c0,0,0,0,0.1,0c0,0,0,0,0,0c0,0,0.1,0,0.1,0c0,0,0,0,0,0c0,0,0.1,0,0.1,0c0,0,0,0,0,0c0,0,0.1,0,0.1,0c0,0,0,0,0,0
		c0,0,0,0,0.1,0c0,0,0,0,0,0c0,0,0,0,0.1,0c0,0,0,0,0,0c0,0,0,0,0.1,0c0,0,0,0,0,0c0,0,0.1,0,0.1-0.1c0,0,0,0,0,0c0,0,0.1,0,0.1,0
		c0,0,0,0,0,0c0,0,0,0,0.1,0c0,0,0,0,0,0c0,0,0,0,0.1,0c0,0,0,0,0,0c0,0,0,0,0.1,0c0,0,0,0,0,0c0,0,0.1,0,0.1-0.1c0,0,0,0,0,0
		c0,0,0.1,0,0.1-0.1c0,0,0,0,0,0c0,0,0,0,0.1-0.1c0,0,0,0,0,0c0,0,0,0,0.1,0c0,0,0,0,0,0c0,0,0,0,0.1,0c0,0,0,0,0,0c0,0,0,0,0.1-0.1
		c0,0,0,0,0,0c0,0,0.1-0.1,0.1-0.1c0,0,0,0,0,0c0,0,0,0,0.1-0.1c0,0,0,0,0,0c0,0,0,0,0-0.1c0,0,0,0,0,0c0,0,0,0,0-0.1c0,0,0,0,0,0
		c0,0,0,0,0-0.1c0,0,0,0,0,0c0,0,0-0.1,0.1-0.1c0.2-0.2,0.3-0.5,0.5-0.7c0,0,0.1-0.1,0.1-0.2c0.1-0.1,0.1-0.2,0.2-0.3
		c0,0,0.1,0,0.1,0c0.1,0,0.2-0.1,0.3-0.1c0,0,0.1,0,0.1-0.1c0.2-0.1,0.4-0.3,0.5-0.4c0,0,0.1-0.1,0.1-0.1c0.2-0.2,0.4-0.4,0.6-0.7
		c0-0.1,0.1-0.1,0.1-0.2C39.9,29.5,40.1,29,40.2,28.3C40.2,28.4,40.2,28.3,40.2,28.3 M29.3,27L29.3,27C29.3,27,29.3,27,29.3,27
		L29.3,27C29.3,27,29.3,27,29.3,27 M29.2,27L29.2,27L29.2,27L29.2,27C29.2,27,29.2,27,29.2,27C29.2,27,29.2,27,29.2,27
		C29.2,27,29.2,27,29.2,27 M29.4,32.4L29.4,32.4C29.4,32.4,29.4,32.4,29.4,32.4L29.4,32.4C29.5,32.4,29.5,32.4,29.4,32.4L29.4,32.4
		L29.4,32.4C29.5,32.4,29.5,32.4,29.4,32.4C29.4,32.4,29.4,32.4,29.4,32.4C29.4,32.4,29.4,32.4,29.4,32.4
		C29.4,32.4,29.4,32.4,29.4,32.4C29.4,32.4,29.4,32.4,29.4,32.4C29.4,32.4,29.4,32.4,29.4,32.4 M29.3,27.1
		C29.3,27.1,29.3,27.1,29.3,27.1C29.3,27.1,29.3,27.1,29.3,27.1C29.3,27,29.3,27,29.3,27.1C29.3,27.1,29.3,27.1,29.3,27.1
		C29.3,27.1,29.3,27.1,29.3,27.1C29.3,27.1,29.3,27.1,29.3,27.1L29.3,27.1L29.3,27.1L29.3,27.1L29.3,27.1 M29.3,27L29.3,27L29.3,27
		L29.3,27C29.3,27,29.3,27,29.3,27C29.3,27,29.3,27,29.3,27L29.3,27L29.3,27C29.3,27,29.3,27,29.3,27C29.3,27,29.3,27,29.3,27
		C29.3,27,29.3,27,29.3,27C29.3,27,29.3,27,29.3,27C29.3,27,29.3,27,29.3,27 M33.8,29C33.8,29,33.8,29,33.8,29
		C33.8,29,33.9,29,33.8,29L33.8,29C33.9,29,33.9,29,33.8,29C33.9,29,33.9,29,33.8,29C33.9,29,33.9,29,33.8,29
		C33.9,29,33.9,28.9,33.8,29c0-0.1,0-0.1,0.1-0.1c0,0,0,0,0,0c0,0,0,0,0,0l0,0c0,0,0,0,0,0c0,0,0,0,0,0c0-0.1,0.1-0.2,0.1-0.2
		c0,0,0-0.1,0-0.1c0,0.1,0,0.2,0.1,0.3c0,0.1,0,0.2,0.1,0.2c0.1,0.5,0.3,0.9,0.6,1.3c0,0.1,0.1,0.1,0.1,0.2c0.4,0.6,0.9,1,1.6,1.1
		c0,0,0,0,0,0l0,0c0,0,0,0,0,0c0,0,0,0,0,0c-0.1,0.1-0.1,0.2-0.2,0.2c-0.1,0.1-0.1,0.2-0.2,0.2c0,0,0,0,0,0c-0.1,0-0.1,0.1-0.2,0.2
		c-0.1,0.1-0.1,0.1-0.2,0.2c0,0-0.1,0-0.1,0c-0.1,0-0.1,0.1-0.2,0.1c0,0,0,0-0.1,0c0,0,0,0,0,0c0,0,0,0,0,0c0,0,0,0,0,0c0,0,0,0,0,0
		c0,0,0,0,0,0c0,0,0,0,0,0c0,0,0,0,0,0c0,0,0,0,0,0c0,0,0,0,0,0c0,0,0,0,0,0c0,0,0,0,0,0c0,0,0,0,0,0c0,0,0,0,0,0c0,0,0,0,0,0
		c0,0-0.1,0-0.1,0c-0.1,0-0.2,0-0.2,0l0,0c0,0,0,0,0,0c0,0-0.1,0-0.1,0c0,0-0.1,0-0.1,0c0,0-0.1,0-0.1-0.1c0,0,0,0,0,0c0,0,0,0,0,0
		c-0.1-0.1-0.2-0.2-0.3-0.3c0,0,0,0,0-0.1l0,0c0,0,0,0,0,0c0,0,0,0,0,0c0,0,0,0,0-0.1c0-0.1-0.1-0.1-0.1-0.2c0-0.1-0.1-0.1-0.1-0.2
		c0,0,0,0,0,0l0,0c0,0,0,0,0,0l0,0c0,0,0,0,0,0l0,0c0,0,0,0,0,0l0,0l0,0c0,0,0,0,0,0l0,0v0c0,0,0,0,0,0v0v0c0,0,0,0,0,0v0
		c0,0,0,0,0,0v0c0,0,0,0,0,0c0,0,0-0.1,0-0.1c0,0,0-0.1,0-0.1c0-0.1,0-0.1,0-0.2c0,0,0,0,0,0l0,0c0,0,0,0,0,0l0,0c0,0,0,0,0,0
		c0,0,0,0,0-0.1c0,0,0,0,0,0c0,0,0,0,0,0l0,0c0,0,0,0,0,0l0,0c0,0,0,0,0,0l0,0l0,0c0-0.1,0-0.2,0-0.4c0-0.1,0-0.1,0-0.2
		c0,0,0-0.1,0-0.1c0,0,0,0,0,0c0-0.2,0.1-0.4,0.2-0.6c0-0.1,0-0.1,0.1-0.2c0,0,0-0.1,0-0.1l0,0c0,0,0,0,0,0l0,0c0,0,0,0,0,0v0
		c0,0,0,0,0,0c0,0,0,0,0,0c0,0,0-0.1,0-0.1c0,0,0,0,0,0C33.8,29.2,33.8,29.1,33.8,29C33.8,29,33.8,29,33.8,29 M33.9,28.8L33.9,28.8
		L33.9,28.8L33.9,28.8z M33.9,28.9C33.9,28.9,33.9,28.9,33.9,28.9C33.9,28.9,33.9,28.9,33.9,28.9 M37.4,28.8c0,0.1,0,0.2-0.1,0.4
		c-0.1,0.4-0.2,0.7-0.3,1.1c0,0.1,0,0.1-0.1,0.2c0,0.1,0,0.1-0.1,0.2c-0.3-0.1-0.6-0.2-0.8-0.4c-0.3-0.3-0.6-0.8-0.7-1.2
		c-0.1-0.2-0.1-0.4-0.2-0.6c0-0.2,0-0.3,0-0.5c0-0.1,0-0.1,0-0.2c0,0,0-0.1,0-0.1c0,0,0,0,0,0s0,0,0,0c0,0,0,0,0,0c0,0,0,0,0,0v0
		c0,0,0,0,0,0s0,0,0,0l0,0l0,0l0,0c0,0,0,0,0,0l0,0c0,0,0,0,0,0v0c0,0,0,0,0,0c0,0,0,0,0,0s0,0,0,0c0,0,0,0,0,0v0c0,0,0,0,0,0v0
		c0,0,0,0,0,0v0c0,0,0,0,0,0c0-0.1,0-0.2,0-0.2c0-0.1,0-0.2,0.1-0.2c0,0,0-0.1,0-0.1c0,0,0-0.1,0-0.1c0,0,0,0,0,0c0,0,0-0.1,0-0.1
		c0-0.1,0.1-0.2,0.1-0.2c0,0,0-0.1,0.1-0.1c0,0,0-0.1,0.1-0.1c0,0,0,0,0.1-0.1s0,0,0.1-0.1c0,0,0,0,0,0c0,0,0,0,0,0c0,0,0,0,0,0
		c0,0,0.1,0,0.1-0.1c0.1-0.1,0.3-0.2,0.5-0.2c0,0,0,0,0.1,0c0,0,0,0,0,0c0,0,0,0,0.1,0c0,0,0,0,0,0c0,0,0,0,0.1,0c0,0,0,0,0,0
		c0,0,0,0,0.1,0c0,0,0,0,0,0c0,0,0,0,0,0c0,0,0,0,0,0c0,0,0,0,0.1,0c0.2,0.1,0.2,0.2,0.3,0.4c0.1,0.3,0.2,0.7,0.2,1
		C37.5,27.7,37.5,28.3,37.4,28.8 M20.1,27.2L20.1,27.2C20.1,27.2,20.1,27.2,20.1,27.2C20.1,27.2,20.1,27.2,20.1,27.2
		C20.1,27.2,20.1,27.1,20.1,27.2C20,27.1,20,27.1,20,27c0,0,0,0,0,0l0,0c0,0,0,0,0,0c0,0,0,0,0,0c0,0,0,0,0,0c0,0,0-0.1,0-0.1l0-0.1
		v0c0,0,0,0,0-0.1s0,0,0-0.1s0,0,0-0.1c0,0,0,0,0,0v0v0c0,0,0-0.1,0-0.1s0-0.1,0-0.1c0-0.1,0-0.1,0.1-0.2l0-0.1c0,0,0-0.1,0-0.1
		c0-0.1,0.1-0.1,0.1-0.2c0,0,0,0,0,0c0,0,0,0,0,0l0,0c0,0,0,0,0,0c0,0,0,0,0,0l0,0c0,0,0,0,0,0c0,0,0,0,0,0c0,0,0.1,0,0.1-0.1l0.1,0
		c0,0,0,0,0,0c0,0,0.1,0,0.1,0c0,0,0,0,0,0c0.1,0.1,0.1,0.4,0,0.6c0,0.3-0.2,0.6-0.3,0.9C20.3,27.1,20.2,27.2,20.1,27.2
		C20.2,27.3,20.2,27.3,20.1,27.2C20.2,27.2,20.2,27.2,20.1,27.2C20.1,27.2,20.1,27.2,20.1,27.2L20.1,27.2 M20.6,25.5L20.6,25.5
		L20.6,25.5L20.6,25.5L20.6,25.5z M29.2,27L29.2,27L29.2,27L29.2,27 M29.3,27C29.3,27,29.2,27,29.3,27C29.3,27,29.3,27,29.3,27
		C29.3,27,29.3,27,29.3,27C29.3,27,29.3,27,29.3,27C29.3,27,29.3,27,29.3,27C29.3,27,29.3,27,29.3,27"/>
</g>
</svg>
